<?xml version="1.0" encoding="utf-8" standalone="no"?>
<!DOCTYPE svg PUBLIC "-//W3C//DTD SVG 1.1//EN"
  "http://www.w3.org/Graphics/SVG/1.1/DTD/svg11.dtd">
<svg xmlns:xlink="http://www.w3.org/1999/xlink" width="1440pt" height="1080pt" viewBox="0 0 1440 1080" xmlns="http://www.w3.org/2000/svg" version="1.1">
 <metadata>
  <rdf:RDF xmlns:dc="http://purl.org/dc/elements/1.1/" xmlns:cc="http://creativecommons.org/ns#" xmlns:rdf="http://www.w3.org/1999/02/22-rdf-syntax-ns#">
   <cc:Work>
    <dc:type rdf:resource="http://purl.org/dc/dcmitype/StillImage"/>
    <dc:date>2023-12-06T15:54:01.279140</dc:date>
    <dc:format>image/svg+xml</dc:format>
    <dc:creator>
     <cc:Agent>
      <dc:title>Matplotlib v3.5.2, https://matplotlib.org/</dc:title>
     </cc:Agent>
    </dc:creator>
   </cc:Work>
  </rdf:RDF>
 </metadata>
 <defs>
  <style type="text/css">*{stroke-linejoin: round; stroke-linecap: butt}</style>
 </defs>
 <g id="figure_1">
  <g id="patch_1">
   <path d="M 0 1080 
L 1440 1080 
L 1440 0 
L 0 0 
L 0 1080 
z
" style="fill: none"/>
  </g>
  <g id="axes_1">
   <g id="patch_2">
    <path d="M 180 945 
L 1296 945 
L 1296 129.6 
L 180 129.6 
z
" style="fill: #ffffff"/>
   </g>
   <g id="matplotlib.axis_1">
    <g id="xtick_1">
     <g id="line2d_1">
      <path d="M 180 945 
L 180 129.6 
" clip-path="url(#p72bd7da432)" style="fill: none; stroke: #b0b0b0; stroke-width: 0.8; stroke-linecap: square"/>
     </g>
     <g id="line2d_2">
      <defs>
       <path id="mba81f2b3f1" d="M 0 0 
L 0 3.5 
" style="stroke: #000000; stroke-width: 0.8"/>
      </defs>
      <g>
       <use xlink:href="#mba81f2b3f1" x="180" y="945" style="stroke: #000000; stroke-width: 0.8"/>
      </g>
     </g>
     <g id="text_1">
      <!-- 400 -->
      <g transform="translate(156.140625 970.996094)scale(0.25 -0.25)">
       <defs>
        <path id="DejaVuSans-34" d="M 2419 4116 
L 825 1625 
L 2419 1625 
L 2419 4116 
z
M 2253 4666 
L 3047 4666 
L 3047 1625 
L 3713 1625 
L 3713 1100 
L 3047 1100 
L 3047 0 
L 2419 0 
L 2419 1100 
L 313 1100 
L 313 1709 
L 2253 4666 
z
" transform="scale(0.015625)"/>
        <path id="DejaVuSans-30" d="M 2034 4250 
Q 1547 4250 1301 3770 
Q 1056 3291 1056 2328 
Q 1056 1369 1301 889 
Q 1547 409 2034 409 
Q 2525 409 2770 889 
Q 3016 1369 3016 2328 
Q 3016 3291 2770 3770 
Q 2525 4250 2034 4250 
z
M 2034 4750 
Q 2819 4750 3233 4129 
Q 3647 3509 3647 2328 
Q 3647 1150 3233 529 
Q 2819 -91 2034 -91 
Q 1250 -91 836 529 
Q 422 1150 422 2328 
Q 422 3509 836 4129 
Q 1250 4750 2034 4750 
z
" transform="scale(0.015625)"/>
       </defs>
       <use xlink:href="#DejaVuSans-34"/>
       <use xlink:href="#DejaVuSans-30" x="63.623047"/>
       <use xlink:href="#DejaVuSans-30" x="127.246094"/>
      </g>
     </g>
    </g>
    <g id="xtick_2">
     <g id="line2d_3">
      <path d="M 403.2 945 
L 403.2 129.6 
" clip-path="url(#p72bd7da432)" style="fill: none; stroke: #b0b0b0; stroke-width: 0.8; stroke-linecap: square"/>
     </g>
     <g id="line2d_4">
      <g>
       <use xlink:href="#mba81f2b3f1" x="403.2" y="945" style="stroke: #000000; stroke-width: 0.8"/>
      </g>
     </g>
     <g id="text_2">
      <!-- 450 -->
      <g transform="translate(379.340625 970.996094)scale(0.25 -0.25)">
       <defs>
        <path id="DejaVuSans-35" d="M 691 4666 
L 3169 4666 
L 3169 4134 
L 1269 4134 
L 1269 2991 
Q 1406 3038 1543 3061 
Q 1681 3084 1819 3084 
Q 2600 3084 3056 2656 
Q 3513 2228 3513 1497 
Q 3513 744 3044 326 
Q 2575 -91 1722 -91 
Q 1428 -91 1123 -41 
Q 819 9 494 109 
L 494 744 
Q 775 591 1075 516 
Q 1375 441 1709 441 
Q 2250 441 2565 725 
Q 2881 1009 2881 1497 
Q 2881 1984 2565 2268 
Q 2250 2553 1709 2553 
Q 1456 2553 1204 2497 
Q 953 2441 691 2322 
L 691 4666 
z
" transform="scale(0.015625)"/>
       </defs>
       <use xlink:href="#DejaVuSans-34"/>
       <use xlink:href="#DejaVuSans-35" x="63.623047"/>
       <use xlink:href="#DejaVuSans-30" x="127.246094"/>
      </g>
     </g>
    </g>
    <g id="xtick_3">
     <g id="line2d_5">
      <path d="M 626.4 945 
L 626.4 129.6 
" clip-path="url(#p72bd7da432)" style="fill: none; stroke: #b0b0b0; stroke-width: 0.8; stroke-linecap: square"/>
     </g>
     <g id="line2d_6">
      <g>
       <use xlink:href="#mba81f2b3f1" x="626.4" y="945" style="stroke: #000000; stroke-width: 0.8"/>
      </g>
     </g>
     <g id="text_3">
      <!-- 500 -->
      <g transform="translate(602.540625 970.996094)scale(0.25 -0.25)">
       <use xlink:href="#DejaVuSans-35"/>
       <use xlink:href="#DejaVuSans-30" x="63.623047"/>
       <use xlink:href="#DejaVuSans-30" x="127.246094"/>
      </g>
     </g>
    </g>
    <g id="xtick_4">
     <g id="line2d_7">
      <path d="M 849.6 945 
L 849.6 129.6 
" clip-path="url(#p72bd7da432)" style="fill: none; stroke: #b0b0b0; stroke-width: 0.8; stroke-linecap: square"/>
     </g>
     <g id="line2d_8">
      <g>
       <use xlink:href="#mba81f2b3f1" x="849.6" y="945" style="stroke: #000000; stroke-width: 0.8"/>
      </g>
     </g>
     <g id="text_4">
      <!-- 550 -->
      <g transform="translate(825.740625 970.996094)scale(0.25 -0.25)">
       <use xlink:href="#DejaVuSans-35"/>
       <use xlink:href="#DejaVuSans-35" x="63.623047"/>
       <use xlink:href="#DejaVuSans-30" x="127.246094"/>
      </g>
     </g>
    </g>
    <g id="xtick_5">
     <g id="line2d_9">
      <path d="M 1072.8 945 
L 1072.8 129.6 
" clip-path="url(#p72bd7da432)" style="fill: none; stroke: #b0b0b0; stroke-width: 0.8; stroke-linecap: square"/>
     </g>
     <g id="line2d_10">
      <g>
       <use xlink:href="#mba81f2b3f1" x="1072.8" y="945" style="stroke: #000000; stroke-width: 0.8"/>
      </g>
     </g>
     <g id="text_5">
      <!-- 600 -->
      <g transform="translate(1048.940625 970.996094)scale(0.25 -0.25)">
       <defs>
        <path id="DejaVuSans-36" d="M 2113 2584 
Q 1688 2584 1439 2293 
Q 1191 2003 1191 1497 
Q 1191 994 1439 701 
Q 1688 409 2113 409 
Q 2538 409 2786 701 
Q 3034 994 3034 1497 
Q 3034 2003 2786 2293 
Q 2538 2584 2113 2584 
z
M 3366 4563 
L 3366 3988 
Q 3128 4100 2886 4159 
Q 2644 4219 2406 4219 
Q 1781 4219 1451 3797 
Q 1122 3375 1075 2522 
Q 1259 2794 1537 2939 
Q 1816 3084 2150 3084 
Q 2853 3084 3261 2657 
Q 3669 2231 3669 1497 
Q 3669 778 3244 343 
Q 2819 -91 2113 -91 
Q 1303 -91 875 529 
Q 447 1150 447 2328 
Q 447 3434 972 4092 
Q 1497 4750 2381 4750 
Q 2619 4750 2861 4703 
Q 3103 4656 3366 4563 
z
" transform="scale(0.015625)"/>
       </defs>
       <use xlink:href="#DejaVuSans-36"/>
       <use xlink:href="#DejaVuSans-30" x="63.623047"/>
       <use xlink:href="#DejaVuSans-30" x="127.246094"/>
      </g>
     </g>
    </g>
    <g id="xtick_6">
     <g id="line2d_11">
      <path d="M 1296 945 
L 1296 129.6 
" clip-path="url(#p72bd7da432)" style="fill: none; stroke: #b0b0b0; stroke-width: 0.8; stroke-linecap: square"/>
     </g>
     <g id="line2d_12">
      <g>
       <use xlink:href="#mba81f2b3f1" x="1296" y="945" style="stroke: #000000; stroke-width: 0.8"/>
      </g>
     </g>
     <g id="text_6">
      <!-- 650 -->
      <g transform="translate(1272.140625 970.996094)scale(0.25 -0.25)">
       <use xlink:href="#DejaVuSans-36"/>
       <use xlink:href="#DejaVuSans-35" x="63.623047"/>
       <use xlink:href="#DejaVuSans-30" x="127.246094"/>
      </g>
     </g>
    </g>
    <g id="text_7">
     <!-- Longitud de onda [nm] -->
     <g transform="translate(566.346094 1002.990625)scale(0.3 -0.3)">
      <defs>
       <path id="DejaVuSans-4c" d="M 628 4666 
L 1259 4666 
L 1259 531 
L 3531 531 
L 3531 0 
L 628 0 
L 628 4666 
z
" transform="scale(0.015625)"/>
       <path id="DejaVuSans-6f" d="M 1959 3097 
Q 1497 3097 1228 2736 
Q 959 2375 959 1747 
Q 959 1119 1226 758 
Q 1494 397 1959 397 
Q 2419 397 2687 759 
Q 2956 1122 2956 1747 
Q 2956 2369 2687 2733 
Q 2419 3097 1959 3097 
z
M 1959 3584 
Q 2709 3584 3137 3096 
Q 3566 2609 3566 1747 
Q 3566 888 3137 398 
Q 2709 -91 1959 -91 
Q 1206 -91 779 398 
Q 353 888 353 1747 
Q 353 2609 779 3096 
Q 1206 3584 1959 3584 
z
" transform="scale(0.015625)"/>
       <path id="DejaVuSans-6e" d="M 3513 2113 
L 3513 0 
L 2938 0 
L 2938 2094 
Q 2938 2591 2744 2837 
Q 2550 3084 2163 3084 
Q 1697 3084 1428 2787 
Q 1159 2491 1159 1978 
L 1159 0 
L 581 0 
L 581 3500 
L 1159 3500 
L 1159 2956 
Q 1366 3272 1645 3428 
Q 1925 3584 2291 3584 
Q 2894 3584 3203 3211 
Q 3513 2838 3513 2113 
z
" transform="scale(0.015625)"/>
       <path id="DejaVuSans-67" d="M 2906 1791 
Q 2906 2416 2648 2759 
Q 2391 3103 1925 3103 
Q 1463 3103 1205 2759 
Q 947 2416 947 1791 
Q 947 1169 1205 825 
Q 1463 481 1925 481 
Q 2391 481 2648 825 
Q 2906 1169 2906 1791 
z
M 3481 434 
Q 3481 -459 3084 -895 
Q 2688 -1331 1869 -1331 
Q 1566 -1331 1297 -1286 
Q 1028 -1241 775 -1147 
L 775 -588 
Q 1028 -725 1275 -790 
Q 1522 -856 1778 -856 
Q 2344 -856 2625 -561 
Q 2906 -266 2906 331 
L 2906 616 
Q 2728 306 2450 153 
Q 2172 0 1784 0 
Q 1141 0 747 490 
Q 353 981 353 1791 
Q 353 2603 747 3093 
Q 1141 3584 1784 3584 
Q 2172 3584 2450 3431 
Q 2728 3278 2906 2969 
L 2906 3500 
L 3481 3500 
L 3481 434 
z
" transform="scale(0.015625)"/>
       <path id="DejaVuSans-69" d="M 603 3500 
L 1178 3500 
L 1178 0 
L 603 0 
L 603 3500 
z
M 603 4863 
L 1178 4863 
L 1178 4134 
L 603 4134 
L 603 4863 
z
" transform="scale(0.015625)"/>
       <path id="DejaVuSans-74" d="M 1172 4494 
L 1172 3500 
L 2356 3500 
L 2356 3053 
L 1172 3053 
L 1172 1153 
Q 1172 725 1289 603 
Q 1406 481 1766 481 
L 2356 481 
L 2356 0 
L 1766 0 
Q 1100 0 847 248 
Q 594 497 594 1153 
L 594 3053 
L 172 3053 
L 172 3500 
L 594 3500 
L 594 4494 
L 1172 4494 
z
" transform="scale(0.015625)"/>
       <path id="DejaVuSans-75" d="M 544 1381 
L 544 3500 
L 1119 3500 
L 1119 1403 
Q 1119 906 1312 657 
Q 1506 409 1894 409 
Q 2359 409 2629 706 
Q 2900 1003 2900 1516 
L 2900 3500 
L 3475 3500 
L 3475 0 
L 2900 0 
L 2900 538 
Q 2691 219 2414 64 
Q 2138 -91 1772 -91 
Q 1169 -91 856 284 
Q 544 659 544 1381 
z
M 1991 3584 
L 1991 3584 
z
" transform="scale(0.015625)"/>
       <path id="DejaVuSans-64" d="M 2906 2969 
L 2906 4863 
L 3481 4863 
L 3481 0 
L 2906 0 
L 2906 525 
Q 2725 213 2448 61 
Q 2172 -91 1784 -91 
Q 1150 -91 751 415 
Q 353 922 353 1747 
Q 353 2572 751 3078 
Q 1150 3584 1784 3584 
Q 2172 3584 2448 3432 
Q 2725 3281 2906 2969 
z
M 947 1747 
Q 947 1113 1208 752 
Q 1469 391 1925 391 
Q 2381 391 2643 752 
Q 2906 1113 2906 1747 
Q 2906 2381 2643 2742 
Q 2381 3103 1925 3103 
Q 1469 3103 1208 2742 
Q 947 2381 947 1747 
z
" transform="scale(0.015625)"/>
       <path id="DejaVuSans-20" transform="scale(0.015625)"/>
       <path id="DejaVuSans-65" d="M 3597 1894 
L 3597 1613 
L 953 1613 
Q 991 1019 1311 708 
Q 1631 397 2203 397 
Q 2534 397 2845 478 
Q 3156 559 3463 722 
L 3463 178 
Q 3153 47 2828 -22 
Q 2503 -91 2169 -91 
Q 1331 -91 842 396 
Q 353 884 353 1716 
Q 353 2575 817 3079 
Q 1281 3584 2069 3584 
Q 2775 3584 3186 3129 
Q 3597 2675 3597 1894 
z
M 3022 2063 
Q 3016 2534 2758 2815 
Q 2500 3097 2075 3097 
Q 1594 3097 1305 2825 
Q 1016 2553 972 2059 
L 3022 2063 
z
" transform="scale(0.015625)"/>
       <path id="DejaVuSans-61" d="M 2194 1759 
Q 1497 1759 1228 1600 
Q 959 1441 959 1056 
Q 959 750 1161 570 
Q 1363 391 1709 391 
Q 2188 391 2477 730 
Q 2766 1069 2766 1631 
L 2766 1759 
L 2194 1759 
z
M 3341 1997 
L 3341 0 
L 2766 0 
L 2766 531 
Q 2569 213 2275 61 
Q 1981 -91 1556 -91 
Q 1019 -91 701 211 
Q 384 513 384 1019 
Q 384 1609 779 1909 
Q 1175 2209 1959 2209 
L 2766 2209 
L 2766 2266 
Q 2766 2663 2505 2880 
Q 2244 3097 1772 3097 
Q 1472 3097 1187 3025 
Q 903 2953 641 2809 
L 641 3341 
Q 956 3463 1253 3523 
Q 1550 3584 1831 3584 
Q 2591 3584 2966 3190 
Q 3341 2797 3341 1997 
z
" transform="scale(0.015625)"/>
       <path id="DejaVuSans-5b" d="M 550 4863 
L 1875 4863 
L 1875 4416 
L 1125 4416 
L 1125 -397 
L 1875 -397 
L 1875 -844 
L 550 -844 
L 550 4863 
z
" transform="scale(0.015625)"/>
       <path id="DejaVuSans-6d" d="M 3328 2828 
Q 3544 3216 3844 3400 
Q 4144 3584 4550 3584 
Q 5097 3584 5394 3201 
Q 5691 2819 5691 2113 
L 5691 0 
L 5113 0 
L 5113 2094 
Q 5113 2597 4934 2840 
Q 4756 3084 4391 3084 
Q 3944 3084 3684 2787 
Q 3425 2491 3425 1978 
L 3425 0 
L 2847 0 
L 2847 2094 
Q 2847 2600 2669 2842 
Q 2491 3084 2119 3084 
Q 1678 3084 1418 2786 
Q 1159 2488 1159 1978 
L 1159 0 
L 581 0 
L 581 3500 
L 1159 3500 
L 1159 2956 
Q 1356 3278 1631 3431 
Q 1906 3584 2284 3584 
Q 2666 3584 2933 3390 
Q 3200 3197 3328 2828 
z
" transform="scale(0.015625)"/>
       <path id="DejaVuSans-5d" d="M 1947 4863 
L 1947 -844 
L 622 -844 
L 622 -397 
L 1369 -397 
L 1369 4416 
L 622 4416 
L 622 4863 
L 1947 4863 
z
" transform="scale(0.015625)"/>
      </defs>
      <use xlink:href="#DejaVuSans-4c"/>
      <use xlink:href="#DejaVuSans-6f" x="53.962891"/>
      <use xlink:href="#DejaVuSans-6e" x="115.144531"/>
      <use xlink:href="#DejaVuSans-67" x="178.523438"/>
      <use xlink:href="#DejaVuSans-69" x="242"/>
      <use xlink:href="#DejaVuSans-74" x="269.783203"/>
      <use xlink:href="#DejaVuSans-75" x="308.992188"/>
      <use xlink:href="#DejaVuSans-64" x="372.371094"/>
      <use xlink:href="#DejaVuSans-20" x="435.847656"/>
      <use xlink:href="#DejaVuSans-64" x="467.634766"/>
      <use xlink:href="#DejaVuSans-65" x="531.111328"/>
      <use xlink:href="#DejaVuSans-20" x="592.634766"/>
      <use xlink:href="#DejaVuSans-6f" x="624.421875"/>
      <use xlink:href="#DejaVuSans-6e" x="685.603516"/>
      <use xlink:href="#DejaVuSans-64" x="748.982422"/>
      <use xlink:href="#DejaVuSans-61" x="812.458984"/>
      <use xlink:href="#DejaVuSans-20" x="873.738281"/>
      <use xlink:href="#DejaVuSans-5b" x="905.525391"/>
      <use xlink:href="#DejaVuSans-6e" x="944.539062"/>
      <use xlink:href="#DejaVuSans-6d" x="1007.917969"/>
      <use xlink:href="#DejaVuSans-5d" x="1105.330078"/>
     </g>
    </g>
   </g>
   <g id="matplotlib.axis_2">
    <g id="ytick_1">
     <g id="line2d_13">
      <path d="M 180 945 
L 1296 945 
" clip-path="url(#p72bd7da432)" style="fill: none; stroke: #b0b0b0; stroke-width: 0.8; stroke-linecap: square"/>
     </g>
     <g id="line2d_14">
      <defs>
       <path id="m79dc3327a0" d="M 0 0 
L -3.5 0 
" style="stroke: #000000; stroke-width: 0.8"/>
      </defs>
      <g>
       <use xlink:href="#m79dc3327a0" x="180" y="945" style="stroke: #000000; stroke-width: 0.8"/>
      </g>
     </g>
     <g id="text_8">
      <!-- 0.0 -->
      <g transform="translate(133.242188 954.498047)scale(0.25 -0.25)">
       <defs>
        <path id="DejaVuSans-2e" d="M 684 794 
L 1344 794 
L 1344 0 
L 684 0 
L 684 794 
z
" transform="scale(0.015625)"/>
       </defs>
       <use xlink:href="#DejaVuSans-30"/>
       <use xlink:href="#DejaVuSans-2e" x="63.623047"/>
       <use xlink:href="#DejaVuSans-30" x="95.410156"/>
      </g>
     </g>
    </g>
    <g id="ytick_2">
     <g id="line2d_15">
      <path d="M 180 781.92 
L 1296 781.92 
" clip-path="url(#p72bd7da432)" style="fill: none; stroke: #b0b0b0; stroke-width: 0.8; stroke-linecap: square"/>
     </g>
     <g id="line2d_16">
      <g>
       <use xlink:href="#m79dc3327a0" x="180" y="781.92" style="stroke: #000000; stroke-width: 0.8"/>
      </g>
     </g>
     <g id="text_9">
      <!-- 0.2 -->
      <g transform="translate(133.242188 791.418047)scale(0.25 -0.25)">
       <defs>
        <path id="DejaVuSans-32" d="M 1228 531 
L 3431 531 
L 3431 0 
L 469 0 
L 469 531 
Q 828 903 1448 1529 
Q 2069 2156 2228 2338 
Q 2531 2678 2651 2914 
Q 2772 3150 2772 3378 
Q 2772 3750 2511 3984 
Q 2250 4219 1831 4219 
Q 1534 4219 1204 4116 
Q 875 4013 500 3803 
L 500 4441 
Q 881 4594 1212 4672 
Q 1544 4750 1819 4750 
Q 2544 4750 2975 4387 
Q 3406 4025 3406 3419 
Q 3406 3131 3298 2873 
Q 3191 2616 2906 2266 
Q 2828 2175 2409 1742 
Q 1991 1309 1228 531 
z
" transform="scale(0.015625)"/>
       </defs>
       <use xlink:href="#DejaVuSans-30"/>
       <use xlink:href="#DejaVuSans-2e" x="63.623047"/>
       <use xlink:href="#DejaVuSans-32" x="95.410156"/>
      </g>
     </g>
    </g>
    <g id="ytick_3">
     <g id="line2d_17">
      <path d="M 180 618.84 
L 1296 618.84 
" clip-path="url(#p72bd7da432)" style="fill: none; stroke: #b0b0b0; stroke-width: 0.8; stroke-linecap: square"/>
     </g>
     <g id="line2d_18">
      <g>
       <use xlink:href="#m79dc3327a0" x="180" y="618.84" style="stroke: #000000; stroke-width: 0.8"/>
      </g>
     </g>
     <g id="text_10">
      <!-- 0.4 -->
      <g transform="translate(133.242188 628.338047)scale(0.25 -0.25)">
       <use xlink:href="#DejaVuSans-30"/>
       <use xlink:href="#DejaVuSans-2e" x="63.623047"/>
       <use xlink:href="#DejaVuSans-34" x="95.410156"/>
      </g>
     </g>
    </g>
    <g id="ytick_4">
     <g id="line2d_19">
      <path d="M 180 455.76 
L 1296 455.76 
" clip-path="url(#p72bd7da432)" style="fill: none; stroke: #b0b0b0; stroke-width: 0.8; stroke-linecap: square"/>
     </g>
     <g id="line2d_20">
      <g>
       <use xlink:href="#m79dc3327a0" x="180" y="455.76" style="stroke: #000000; stroke-width: 0.8"/>
      </g>
     </g>
     <g id="text_11">
      <!-- 0.6 -->
      <g transform="translate(133.242188 465.258047)scale(0.25 -0.25)">
       <use xlink:href="#DejaVuSans-30"/>
       <use xlink:href="#DejaVuSans-2e" x="63.623047"/>
       <use xlink:href="#DejaVuSans-36" x="95.410156"/>
      </g>
     </g>
    </g>
    <g id="ytick_5">
     <g id="line2d_21">
      <path d="M 180 292.68 
L 1296 292.68 
" clip-path="url(#p72bd7da432)" style="fill: none; stroke: #b0b0b0; stroke-width: 0.8; stroke-linecap: square"/>
     </g>
     <g id="line2d_22">
      <g>
       <use xlink:href="#m79dc3327a0" x="180" y="292.68" style="stroke: #000000; stroke-width: 0.8"/>
      </g>
     </g>
     <g id="text_12">
      <!-- 0.8 -->
      <g transform="translate(133.242188 302.178047)scale(0.25 -0.25)">
       <defs>
        <path id="DejaVuSans-38" d="M 2034 2216 
Q 1584 2216 1326 1975 
Q 1069 1734 1069 1313 
Q 1069 891 1326 650 
Q 1584 409 2034 409 
Q 2484 409 2743 651 
Q 3003 894 3003 1313 
Q 3003 1734 2745 1975 
Q 2488 2216 2034 2216 
z
M 1403 2484 
Q 997 2584 770 2862 
Q 544 3141 544 3541 
Q 544 4100 942 4425 
Q 1341 4750 2034 4750 
Q 2731 4750 3128 4425 
Q 3525 4100 3525 3541 
Q 3525 3141 3298 2862 
Q 3072 2584 2669 2484 
Q 3125 2378 3379 2068 
Q 3634 1759 3634 1313 
Q 3634 634 3220 271 
Q 2806 -91 2034 -91 
Q 1263 -91 848 271 
Q 434 634 434 1313 
Q 434 1759 690 2068 
Q 947 2378 1403 2484 
z
M 1172 3481 
Q 1172 3119 1398 2916 
Q 1625 2713 2034 2713 
Q 2441 2713 2670 2916 
Q 2900 3119 2900 3481 
Q 2900 3844 2670 4047 
Q 2441 4250 2034 4250 
Q 1625 4250 1398 4047 
Q 1172 3844 1172 3481 
z
" transform="scale(0.015625)"/>
       </defs>
       <use xlink:href="#DejaVuSans-30"/>
       <use xlink:href="#DejaVuSans-2e" x="63.623047"/>
       <use xlink:href="#DejaVuSans-38" x="95.410156"/>
      </g>
     </g>
    </g>
    <g id="ytick_6">
     <g id="line2d_23">
      <path d="M 180 129.6 
L 1296 129.6 
" clip-path="url(#p72bd7da432)" style="fill: none; stroke: #b0b0b0; stroke-width: 0.8; stroke-linecap: square"/>
     </g>
     <g id="line2d_24">
      <g>
       <use xlink:href="#m79dc3327a0" x="180" y="129.6" style="stroke: #000000; stroke-width: 0.8"/>
      </g>
     </g>
     <g id="text_13">
      <!-- 1.0 -->
      <g transform="translate(133.242188 139.098047)scale(0.25 -0.25)">
       <defs>
        <path id="DejaVuSans-31" d="M 794 531 
L 1825 531 
L 1825 4091 
L 703 3866 
L 703 4441 
L 1819 4666 
L 2450 4666 
L 2450 531 
L 3481 531 
L 3481 0 
L 794 0 
L 794 531 
z
" transform="scale(0.015625)"/>
       </defs>
       <use xlink:href="#DejaVuSans-31"/>
       <use xlink:href="#DejaVuSans-2e" x="63.623047"/>
       <use xlink:href="#DejaVuSans-30" x="95.410156"/>
      </g>
     </g>
    </g>
    <g id="text_14">
     <!-- Absorbancia [u.a.] -->
     <g transform="translate(123.003125 674.775)rotate(-90)scale(0.3 -0.3)">
      <defs>
       <path id="DejaVuSans-41" d="M 2188 4044 
L 1331 1722 
L 3047 1722 
L 2188 4044 
z
M 1831 4666 
L 2547 4666 
L 4325 0 
L 3669 0 
L 3244 1197 
L 1141 1197 
L 716 0 
L 50 0 
L 1831 4666 
z
" transform="scale(0.015625)"/>
       <path id="DejaVuSans-62" d="M 3116 1747 
Q 3116 2381 2855 2742 
Q 2594 3103 2138 3103 
Q 1681 3103 1420 2742 
Q 1159 2381 1159 1747 
Q 1159 1113 1420 752 
Q 1681 391 2138 391 
Q 2594 391 2855 752 
Q 3116 1113 3116 1747 
z
M 1159 2969 
Q 1341 3281 1617 3432 
Q 1894 3584 2278 3584 
Q 2916 3584 3314 3078 
Q 3713 2572 3713 1747 
Q 3713 922 3314 415 
Q 2916 -91 2278 -91 
Q 1894 -91 1617 61 
Q 1341 213 1159 525 
L 1159 0 
L 581 0 
L 581 4863 
L 1159 4863 
L 1159 2969 
z
" transform="scale(0.015625)"/>
       <path id="DejaVuSans-73" d="M 2834 3397 
L 2834 2853 
Q 2591 2978 2328 3040 
Q 2066 3103 1784 3103 
Q 1356 3103 1142 2972 
Q 928 2841 928 2578 
Q 928 2378 1081 2264 
Q 1234 2150 1697 2047 
L 1894 2003 
Q 2506 1872 2764 1633 
Q 3022 1394 3022 966 
Q 3022 478 2636 193 
Q 2250 -91 1575 -91 
Q 1294 -91 989 -36 
Q 684 19 347 128 
L 347 722 
Q 666 556 975 473 
Q 1284 391 1588 391 
Q 1994 391 2212 530 
Q 2431 669 2431 922 
Q 2431 1156 2273 1281 
Q 2116 1406 1581 1522 
L 1381 1569 
Q 847 1681 609 1914 
Q 372 2147 372 2553 
Q 372 3047 722 3315 
Q 1072 3584 1716 3584 
Q 2034 3584 2315 3537 
Q 2597 3491 2834 3397 
z
" transform="scale(0.015625)"/>
       <path id="DejaVuSans-72" d="M 2631 2963 
Q 2534 3019 2420 3045 
Q 2306 3072 2169 3072 
Q 1681 3072 1420 2755 
Q 1159 2438 1159 1844 
L 1159 0 
L 581 0 
L 581 3500 
L 1159 3500 
L 1159 2956 
Q 1341 3275 1631 3429 
Q 1922 3584 2338 3584 
Q 2397 3584 2469 3576 
Q 2541 3569 2628 3553 
L 2631 2963 
z
" transform="scale(0.015625)"/>
       <path id="DejaVuSans-63" d="M 3122 3366 
L 3122 2828 
Q 2878 2963 2633 3030 
Q 2388 3097 2138 3097 
Q 1578 3097 1268 2742 
Q 959 2388 959 1747 
Q 959 1106 1268 751 
Q 1578 397 2138 397 
Q 2388 397 2633 464 
Q 2878 531 3122 666 
L 3122 134 
Q 2881 22 2623 -34 
Q 2366 -91 2075 -91 
Q 1284 -91 818 406 
Q 353 903 353 1747 
Q 353 2603 823 3093 
Q 1294 3584 2113 3584 
Q 2378 3584 2631 3529 
Q 2884 3475 3122 3366 
z
" transform="scale(0.015625)"/>
      </defs>
      <use xlink:href="#DejaVuSans-41"/>
      <use xlink:href="#DejaVuSans-62" x="68.408203"/>
      <use xlink:href="#DejaVuSans-73" x="131.884766"/>
      <use xlink:href="#DejaVuSans-6f" x="183.984375"/>
      <use xlink:href="#DejaVuSans-72" x="245.166016"/>
      <use xlink:href="#DejaVuSans-62" x="286.279297"/>
      <use xlink:href="#DejaVuSans-61" x="349.755859"/>
      <use xlink:href="#DejaVuSans-6e" x="411.035156"/>
      <use xlink:href="#DejaVuSans-63" x="474.414062"/>
      <use xlink:href="#DejaVuSans-69" x="529.394531"/>
      <use xlink:href="#DejaVuSans-61" x="557.177734"/>
      <use xlink:href="#DejaVuSans-20" x="618.457031"/>
      <use xlink:href="#DejaVuSans-5b" x="650.244141"/>
      <use xlink:href="#DejaVuSans-75" x="689.257812"/>
      <use xlink:href="#DejaVuSans-2e" x="752.636719"/>
      <use xlink:href="#DejaVuSans-61" x="784.423828"/>
      <use xlink:href="#DejaVuSans-2e" x="845.703125"/>
      <use xlink:href="#DejaVuSans-5d" x="877.490234"/>
     </g>
    </g>
   </g>
   <g id="line2d_25">
    <path d="M 179.28806 490.486061 
L 181.904911 497.124086 
L 187.13834 509.556175 
L 189.754783 516.753065 
L 192.371089 523.234649 
L 194.987123 528.715993 
L 197.603156 533.577877 
L 200.218917 540.552261 
L 202.834542 545.215905 
L 205.450031 551.624313 
L 208.065384 557.242584 
L 210.6806 563.571309 
L 213.295544 567.703608 
L 215.910352 572.927842 
L 218.525023 578.685235 
L 221.139558 583.226482 
L 223.753957 586.836635 
L 226.368083 592.340194 
L 228.98221 596.350133 
L 231.596064 601.131882 
L 234.209646 604.518826 
L 236.823227 609.605841 
L 239.436672 612.527127 
L 244.662882 619.723075 
L 247.275782 624.633893 
L 249.888546 627.040723 
L 255.11353 634.074747 
L 257.725749 638.467706 
L 260.337832 641.190433 
L 262.949779 645.864134 
L 268.172991 653.250665 
L 270.784529 656.140508 
L 273.395795 660.084992 
L 276.006788 661.971951 
L 278.617781 664.194089 
L 281.228502 666.675336 
L 283.839086 670.741465 
L 286.449535 673.058286 
L 289.059847 676.497352 
L 294.279926 682.073721 
L 296.889693 685.187867 
L 299.499324 688.803536 
L 302.108818 691.641827 
L 304.718177 693.828953 
L 307.327263 695.428102 
L 309.936212 698.27059 
L 312.545026 700.238486 
L 315.153703 703.169934 
L 320.370513 707.435946 
L 322.978645 708.989994 
L 325.586641 711.582397 
L 330.802088 716.418001 
L 333.40954 717.998263 
L 336.016854 719.762618 
L 341.231076 724.243217 
L 343.837846 726.031875 
L 346.444616 728.740928 
L 351.657338 732.251076 
L 354.263563 733.305376 
L 356.869516 734.749634 
L 359.475469 736.690144 
L 364.686557 738.627422 
L 372.502099 742.637585 
L 375.106961 743.56673 
L 377.711688 745.684145 
L 380.316142 747.570432 
L 382.92046 748.787643 
L 385.524642 749.7717 
L 388.128687 751.785741 
L 393.336233 755.344386 
L 395.939733 756.478148 
L 398.543098 758.858344 
L 403.749281 760.943559 
L 406.352101 761.768384 
L 408.95492 763.070215 
L 411.557331 763.936915 
L 414.159741 764.961423 
L 416.761879 765.469119 
L 419.363881 767.598032 
L 421.965747 767.661649 
L 424.567477 768.861783 
L 427.168934 769.783769 
L 429.770391 771.157784 
L 432.371575 772.158904 
L 434.972487 774.015773 
L 437.573399 775.043599 
L 440.174039 776.412725 
L 442.774542 777.026078 
L 445.37491 778.598497 
L 447.975141 779.704715 
L 450.575099 781.498027 
L 455.774607 784.840302 
L 458.374157 784.726549 
L 460.973435 786.117168 
L 463.572576 787.074861 
L 471.369182 789.108859 
L 479.164153 792.38878 
L 481.762068 794.201254 
L 484.359983 794.73662 
L 486.957625 795.792259 
L 489.555132 797.011684 
L 492.152366 798.590992 
L 494.7496 800.38333 
L 502.539939 803.553699 
L 507.732772 805.907563 
L 510.328916 806.541813 
L 512.924924 807.897836 
L 515.520659 807.771753 
L 518.116258 808.670622 
L 520.711721 808.524485 
L 523.307048 809.035539 
L 525.902102 809.166544 
L 528.497156 809.881658 
L 531.091938 810.336419 
L 533.686447 812.088889 
L 536.280957 812.192127 
L 541.469294 813.969359 
L 544.063258 815.717473 
L 546.65695 819.570099 
L 549.250506 819.177522 
L 554.437208 819.810607 
L 557.030355 819.525129 
L 562.215968 821.769787 
L 564.80857 822.291947 
L 567.4009 822.396413 
L 569.993093 821.231591 
L 572.58515 823.515379 
L 575.177071 825.228541 
L 577.76872 827.417586 
L 580.360368 829.413489 
L 582.951744 829.10669 
L 585.542848 829.223843 
L 588.133951 829.679521 
L 590.724782 830.49865 
L 593.315477 831.183266 
L 595.905899 831.538429 
L 598.496322 831.694535 
L 601.086472 832.394029 
L 603.676485 832.961195 
L 606.266227 833.900886 
L 608.855968 834.325614 
L 611.445437 834.863677 
L 614.034769 835.21377 
L 616.623829 835.810189 
L 619.212889 835.697484 
L 621.801677 836.580445 
L 626.978707 837.444043 
L 629.56695 838.089491 
L 632.155056 839.598665 
L 637.330724 841.996853 
L 639.918422 842.07917 
L 642.505847 843.220809 
L 645.093 843.634555 
L 647.680153 844.613207 
L 652.853777 845.891542 
L 655.440249 845.923472 
L 658.026584 846.642747 
L 660.61292 847.109745 
L 663.198847 848.204866 
L 665.784773 848.233673 
L 668.370428 848.440226 
L 670.955946 848.462971 
L 673.541328 849.419188 
L 676.126437 850.119101 
L 678.71141 851.472851 
L 681.296247 851.061688 
L 683.880812 851.924946 
L 686.465376 851.67177 
L 694.217707 854.720593 
L 696.801454 855.376385 
L 701.968403 855.872036 
L 704.551878 856.618836 
L 707.134808 856.675932 
L 709.717737 857.682093 
L 712.300395 858.008256 
L 714.883052 858.472564 
L 717.465437 858.6744 
L 720.047549 858.687122 
L 725.211501 858.416553 
L 727.793068 858.521804 
L 730.374636 859.822743 
L 732.955931 860.502238 
L 735.537226 860.85105 
L 738.118248 860.870282 
L 743.279476 861.696264 
L 745.859953 863.046479 
L 748.440431 862.816336 
L 751.020363 864.278024 
L 753.600296 863.260322 
L 756.180229 862.816795 
L 758.759616 863.85627 
L 761.339004 864.431688 
L 763.918392 864.422344 
L 769.07635 864.126454 
L 771.65492 864.738547 
L 774.23349 864.302941 
L 776.811788 865.436769 
L 779.390086 866.18163 
L 784.545864 865.797647 
L 787.123345 865.745286 
L 789.700825 866.13349 
L 792.278033 866.323554 
L 794.855241 866.217254 
L 797.432177 866.875858 
L 800.00884 866.995784 
L 802.585503 867.385385 
L 805.161894 867.592848 
L 807.738284 868.928312 
L 810.31413 869.926522 
L 815.465821 871.234192 
L 818.041395 872.139392 
L 825.766752 872.722873 
L 828.341508 873.236233 
L 830.916264 873.02927 
L 833.490747 873.621754 
L 841.213107 874.10333 
L 843.786773 873.98214 
L 846.360167 874.368665 
L 848.933561 874.626032 
L 854.079803 874.885817 
L 856.652651 874.365736 
L 866.942411 875.025747 
L 872.086201 875.025276 
L 877.229174 875.658286 
L 879.800388 876.390146 
L 882.371602 876.948772 
L 884.942271 876.993304 
L 887.512939 877.20643 
L 892.654005 877.849993 
L 897.79398 878.47239 
L 900.363832 878.845216 
L 902.933684 878.964847 
L 905.50299 878.587114 
L 908.072297 878.466044 
L 910.641331 879.025062 
L 913.210365 878.902765 
L 915.779127 879.313712 
L 918.347616 879.55061 
L 920.915833 879.490275 
L 923.48405 879.226155 
L 926.052267 879.295479 
L 928.619938 879.704097 
L 931.18761 880.511369 
L 933.75501 880.451572 
L 936.322409 880.924675 
L 938.889536 880.860079 
L 941.456391 881.090205 
L 944.023245 881.185096 
L 949.156137 882.287586 
L 951.722446 882.495292 
L 954.288483 882.476315 
L 959.420013 882.935932 
L 967.115944 884.864451 
L 969.680892 885.028036 
L 972.245566 884.901762 
L 974.810241 885.49873 
L 977.374644 885.778302 
L 979.938773 886.21219 
L 985.066761 886.372187 
L 990.193931 885.936752 
L 1000.446091 886.1792 
L 1003.008586 886.032461 
L 1005.571081 886.033534 
L 1008.133304 885.706371 
L 1013.257204 885.511302 
L 1015.818882 885.712146 
L 1018.380287 886.059133 
L 1020.941692 885.680459 
L 1033.745449 886.759405 
L 1036.305492 886.598584 
L 1038.865535 886.65357 
L 1041.425578 886.508761 
L 1043.985076 886.814473 
L 1049.1038 886.414259 
L 1051.663025 886.055926 
L 1054.221979 885.847205 
L 1056.780659 885.322814 
L 1059.33934 885.16279 
L 1064.455884 883.394376 
L 1067.013747 882.134654 
L 1069.57161 880.603082 
L 1072.129474 879.435633 
L 1074.686792 878.43659 
L 1082.358202 873.821964 
L 1084.914703 872.600206 
L 1087.471477 871.859035 
L 1090.027705 872.041767 
L 1092.583934 873.035963 
L 1095.13989 874.586112 
L 1097.695573 876.444289 
L 1100.251257 880.119858 
L 1102.806668 884.281155 
L 1105.362079 888.848822 
L 1107.916945 893.753215 
L 1110.471812 898.018113 
L 1113.026678 901.801075 
L 1115.580999 905.066156 
L 1118.13532 907.738571 
L 1120.689642 910.227666 
L 1123.243418 911.025649 
L 1125.797194 911.562668 
L 1128.350971 911.078489 
L 1130.904202 910.160639 
L 1136.010665 908.063271 
L 1138.563352 906.719259 
L 1143.668452 903.250607 
L 1148.773008 900.604036 
L 1151.324877 899.834154 
L 1153.876474 898.799573 
L 1156.42807 898.019626 
L 1158.979395 897.060814 
L 1161.530719 896.362192 
L 1164.081498 895.780146 
L 1166.632277 895.388016 
L 1169.183057 894.721364 
L 1171.733291 894.249169 
L 1181.933139 892.965651 
L 1184.482828 892.497737 
L 1187.031973 892.315591 
L 1189.581117 891.882641 
L 1199.775788 891.163359 
L 1209.967462 891.124955 
L 1215.061937 891.484149 
L 1222.702559 891.160222 
L 1230.341546 891.958541 
L 1237.978898 893.269329 
L 1240.524229 893.88477 
L 1243.069286 895.054546 
L 1245.614344 896.68726 
L 1253.248154 900.245067 
L 1258.336362 901.908302 
L 1260.88033 902.362639 
L 1263.424025 902.966975 
L 1265.967448 902.902823 
L 1273.596899 901.689887 
L 1281.224443 901.447147 
L 1283.766504 901.415126 
L 1296.474354 902.248945 
L 1296.474354 902.248945 
" clip-path="url(#p72bd7da432)" style="fill: none; stroke: #1f77b4; stroke-width: 3; stroke-linecap: square"/>
   </g>
   <g id="line2d_26">
    <path d="M 179.28806 267.212369 
L 181.904911 273.991824 
L 184.521762 279.770386 
L 187.13834 284.851958 
L 189.754783 291.839779 
L 192.371089 296.774381 
L 194.987123 299.270653 
L 197.603156 303.485964 
L 200.218917 310.193641 
L 205.450031 321.739998 
L 208.065384 325.531156 
L 210.6806 331.518254 
L 213.295544 336.44994 
L 215.910352 342.026007 
L 218.525023 348.69949 
L 221.139558 354.732397 
L 223.753957 360.12502 
L 226.368083 366.286086 
L 228.98221 369.977938 
L 231.596064 376.709205 
L 234.209646 381.379315 
L 236.823227 387.079187 
L 239.436672 391.978287 
L 242.049845 394.973952 
L 244.662882 398.210828 
L 247.275782 402.081776 
L 249.888546 404.832502 
L 252.501038 408.46008 
L 255.11353 411.394065 
L 257.725749 415.285458 
L 260.337832 417.359184 
L 262.949779 421.874257 
L 265.561453 427.281453 
L 268.172991 430.256374 
L 273.395795 438.257832 
L 278.617781 444.350164 
L 281.228502 445.619927 
L 283.839086 450.121049 
L 286.449535 451.492792 
L 289.059847 453.610341 
L 291.670022 457.413163 
L 294.279926 459.25701 
L 296.889693 461.350417 
L 299.499324 463.969104 
L 304.718177 468.660191 
L 307.327263 469.447481 
L 309.936212 470.565165 
L 312.545026 471.551565 
L 315.153703 471.856153 
L 317.762108 471.038282 
L 320.370513 469.205411 
L 322.978645 468.274431 
L 325.586641 465.373307 
L 328.194365 462.873236 
L 330.802088 458.664279 
L 333.40954 453.224146 
L 336.016854 446.715871 
L 341.231076 428.488257 
L 343.837846 416.723873 
L 346.444616 401.221239 
L 349.051113 384.998216 
L 356.869516 326.68134 
L 359.475469 306.428218 
L 364.686557 270.634637 
L 367.291964 257.227165 
L 369.8971 245.798041 
L 372.502099 237.498691 
L 375.106961 230.37877 
L 377.711688 226.541333 
L 380.316142 223.983401 
L 382.92046 223.461833 
L 385.524642 224.017175 
L 388.128687 227.807018 
L 390.732596 231.173118 
L 393.336233 238.429709 
L 395.939733 247.500385 
L 401.146326 276.025192 
L 403.749281 291.352996 
L 408.95492 326.536311 
L 414.159741 365.169128 
L 416.761879 382.98636 
L 419.363881 399.083691 
L 421.965747 412.357452 
L 424.567477 424.186987 
L 427.168934 435.388585 
L 429.770391 443.882873 
L 432.371575 450.971277 
L 434.972487 456.898061 
L 437.573399 460.623598 
L 440.174039 463.113793 
L 442.774542 466.192046 
L 445.37491 467.934751 
L 447.975141 469.062952 
L 450.575099 469.423978 
L 453.174921 468.837618 
L 455.774607 466.934256 
L 463.572576 457.66309 
L 468.770449 450.063024 
L 473.967642 441.428494 
L 479.164153 432.324477 
L 484.359983 421.915304 
L 486.957625 417.263779 
L 489.555132 411.108855 
L 492.152366 405.706271 
L 497.346561 399.343156 
L 499.943386 399.427799 
L 502.539939 402.023551 
L 505.136492 406.652934 
L 507.732772 414.244616 
L 510.328916 424.018635 
L 512.924924 436.189289 
L 515.520659 447.642804 
L 518.116258 457.734102 
L 520.711721 469.094094 
L 523.307048 478.581498 
L 525.902102 486.377683 
L 528.497156 491.579091 
L 531.091938 493.288644 
L 533.686447 490.774204 
L 536.280957 483.420385 
L 538.875193 472.159808 
L 541.469294 457.588842 
L 544.063258 437.902787 
L 546.65695 414.890937 
L 549.250506 389.770865 
L 551.843925 372.86893 
L 554.437208 363.195591 
L 557.030355 361.296762 
L 559.62323 364.91699 
L 562.215968 372.984792 
L 564.80857 383.872082 
L 567.4009 398.980248 
L 569.993093 417.529976 
L 572.58515 442.304403 
L 575.177071 472.083089 
L 577.76872 506.40463 
L 580.360368 531.892338 
L 582.951744 546.310304 
L 585.542848 558.031783 
L 588.133951 568.707508 
L 590.724782 576.928622 
L 595.905899 590.523675 
L 603.676485 604.807871 
L 606.266227 608.837509 
L 608.855968 613.276659 
L 614.034769 620.031582 
L 616.623829 622.40027 
L 619.212889 624.597827 
L 624.390328 629.333198 
L 626.978707 631.234726 
L 629.56695 632.662257 
L 632.155056 633.826055 
L 634.743026 634.715421 
L 637.330724 634.788854 
L 639.918422 635.202585 
L 642.505847 634.379106 
L 645.093 632.639 
L 650.267033 627.88221 
L 655.440249 621.978966 
L 658.026584 618.474062 
L 660.61292 615.595298 
L 663.198847 612.027544 
L 665.784773 609.318115 
L 668.370428 607.32804 
L 670.955946 606.009342 
L 673.541328 605.203845 
L 676.126437 604.823406 
L 678.71141 605.204969 
L 681.296247 606.186449 
L 686.465376 609.626147 
L 689.049668 611.311643 
L 691.633687 612.631162 
L 699.385201 617.2564 
L 701.968403 617.791443 
L 704.551878 617.578049 
L 707.134808 615.395662 
L 709.717737 614.019472 
L 714.883052 611.534147 
L 717.465437 609.436697 
L 720.047549 608.034974 
L 722.629661 604.63969 
L 725.211501 600.877636 
L 727.793068 597.783429 
L 730.374636 596.357193 
L 732.955931 593.893965 
L 735.537226 590.575008 
L 738.118248 588.089406 
L 740.698998 584.416131 
L 743.279476 578.808742 
L 745.859953 575.338579 
L 748.440431 570.475636 
L 751.020363 564.645415 
L 753.600296 557.142213 
L 756.180229 548.961544 
L 763.918392 529.466245 
L 766.497234 523.894253 
L 769.07635 518.944112 
L 771.65492 515.170928 
L 776.811788 511.460959 
L 779.390086 510.662823 
L 784.545864 510.328036 
L 787.123345 510.916122 
L 789.700825 512.911276 
L 792.278033 514.370111 
L 794.855241 515.980332 
L 797.432177 517.140369 
L 800.00884 519.33472 
L 802.585503 521.737517 
L 805.161894 522.382012 
L 807.738284 523.555631 
L 810.31413 524.144136 
L 812.889976 522.945912 
L 815.465821 520.870221 
L 818.041395 518.36857 
L 820.616695 515.343407 
L 823.191724 511.19326 
L 825.766752 508.833485 
L 828.341508 507.678766 
L 830.916264 506.003219 
L 836.064958 501.104815 
L 838.639169 498.657851 
L 841.213107 496.404174 
L 846.360167 493.975137 
L 848.933561 490.553506 
L 851.506954 486.940612 
L 854.079803 482.466623 
L 856.652651 478.489795 
L 859.2255 474.073787 
L 861.797804 470.671071 
L 864.37038 466.42574 
L 869.514442 456.231316 
L 872.086201 451.597843 
L 877.229174 441.460443 
L 879.800388 437.379655 
L 882.371602 434.712244 
L 884.942271 431.34455 
L 887.512939 428.659215 
L 890.083608 426.266667 
L 892.654005 423.712979 
L 897.79398 419.08258 
L 900.363832 417.955797 
L 902.933684 415.996205 
L 908.072297 410.799278 
L 910.641331 409.713054 
L 913.210365 409.006252 
L 915.779127 409.945361 
L 920.915833 412.647082 
L 926.052267 417.427721 
L 928.619938 420.755448 
L 931.18761 423.566326 
L 933.75501 425.715851 
L 936.322409 426.882529 
L 938.889536 427.351555 
L 941.456391 426.84453 
L 946.589827 425.18222 
L 949.156137 424.074594 
L 951.722446 421.948362 
L 954.288483 420.122255 
L 956.854248 418.584265 
L 959.420013 418.521112 
L 967.115944 414.713274 
L 972.245566 409.312689 
L 974.810241 408.607791 
L 977.374644 408.201723 
L 979.938773 406.779655 
L 982.502903 403.543668 
L 985.066761 399.474425 
L 987.630346 394.180562 
L 990.193931 389.196353 
L 992.757243 384.900386 
L 995.320283 381.156986 
L 997.883323 374.622837 
L 1003.008586 359.397599 
L 1005.571081 353.070503 
L 1008.133304 348.610386 
L 1010.695254 345.15924 
L 1013.257204 340.87505 
L 1015.818882 335.647989 
L 1018.380287 329.502952 
L 1020.941692 324.252714 
L 1023.502825 320.245909 
L 1028.624546 312.682351 
L 1031.185134 309.37392 
L 1033.745449 307.614829 
L 1036.305492 306.424446 
L 1038.865535 306.299349 
L 1041.425578 306.768027 
L 1043.985076 307.515951 
L 1046.544574 307.586589 
L 1051.663025 306.823724 
L 1054.221979 307.409719 
L 1056.780659 307.468066 
L 1059.33934 308.780004 
L 1061.897748 309.817125 
L 1064.455884 311.180681 
L 1067.013747 312.745835 
L 1069.57161 314.727681 
L 1072.129474 317.696861 
L 1074.686792 320.932016 
L 1077.24411 323.342333 
L 1079.801156 325.532836 
L 1082.358202 326.53318 
L 1084.914703 327.846762 
L 1087.471477 329.002729 
L 1090.027705 330.817055 
L 1092.583934 333.833866 
L 1095.13989 335.495356 
L 1097.695573 336.196065 
L 1100.251257 337.958559 
L 1102.806668 340.095306 
L 1105.362079 343.427605 
L 1107.916945 346.298069 
L 1110.471812 348.986092 
L 1113.026678 351.168225 
L 1115.580999 351.631799 
L 1118.13532 352.736253 
L 1120.689642 354.584296 
L 1125.797194 355.581995 
L 1128.350971 354.393015 
L 1133.457434 353.516474 
L 1136.010665 352.949518 
L 1143.668452 352.06775 
L 1146.220866 352.029358 
L 1148.773008 352.527185 
L 1151.324877 353.846767 
L 1153.876474 354.507095 
L 1156.42807 355.595016 
L 1158.979395 356.115296 
L 1161.530719 356.753849 
L 1164.081498 357.985367 
L 1169.183057 359.404541 
L 1171.733291 359.398861 
L 1174.283525 360.243048 
L 1176.83376 360.468904 
L 1179.383449 360.273333 
L 1181.933139 360.482551 
L 1184.482828 360.267123 
L 1187.031973 359.875557 
L 1189.581117 360.077399 
L 1192.129989 359.935086 
L 1194.678861 359.953073 
L 1197.227461 359.290462 
L 1199.775788 359.437345 
L 1202.323843 359.38156 
L 1204.871897 359.752296 
L 1209.967462 361.251435 
L 1212.514699 361.245289 
L 1215.061937 361.610138 
L 1217.609174 362.16348 
L 1220.155866 362.288437 
L 1222.702559 362.30073 
L 1225.249251 362.516049 
L 1227.795398 362.320524 
L 1230.341546 361.982989 
L 1232.887421 361.388311 
L 1237.978898 361.300519 
L 1240.524229 360.5659 
L 1243.069286 360.0523 
L 1248.159129 359.887286 
L 1253.248154 359.62959 
L 1258.336362 359.391234 
L 1260.88033 359.051785 
L 1265.967448 360.083928 
L 1268.510871 359.854354 
L 1273.596899 360.595338 
L 1276.139505 361.292303 
L 1278.68211 361.801938 
L 1281.224443 362.516578 
L 1283.766504 362.694226 
L 1286.308564 363.41808 
L 1293.933384 364.15163 
L 1296.474354 364.998428 
L 1296.474354 364.998428 
" clip-path="url(#p72bd7da432)" style="fill: none; stroke: #ff7f0e; stroke-width: 3; stroke-linecap: square"/>
   </g>
   <g id="line2d_27">
    <path d="M 179.28806 197.969403 
L 181.904911 207.931214 
L 184.521762 215.877157 
L 187.13834 224.464332 
L 192.371089 242.632664 
L 194.987123 251.588897 
L 197.603156 258.308767 
L 200.218917 268.54162 
L 202.834542 274.060254 
L 205.450031 281.594056 
L 208.065384 290.117444 
L 210.6806 296.290971 
L 218.525023 313.063871 
L 221.139558 319.197595 
L 223.753957 322.351092 
L 226.368083 328.417539 
L 228.98221 333.019603 
L 231.596064 338.455099 
L 234.209646 342.760081 
L 236.823227 347.787707 
L 239.436672 351.191537 
L 242.049845 355.645908 
L 244.662882 358.46233 
L 247.275782 362.832088 
L 252.501038 367.884821 
L 255.11353 368.998146 
L 257.725749 374.336027 
L 260.337832 377.581792 
L 262.949779 382.414098 
L 268.172991 388.574923 
L 270.784529 391.735871 
L 273.395795 394.625611 
L 276.006788 397.08209 
L 278.617781 400.185212 
L 281.228502 400.861325 
L 283.839086 403.544262 
L 286.449535 403.87004 
L 289.059847 405.566564 
L 291.670022 407.858061 
L 294.279926 409.96685 
L 296.889693 412.325556 
L 299.499324 413.873734 
L 302.108818 415.11824 
L 304.718177 416.716374 
L 307.327263 416.947417 
L 309.936212 419.488903 
L 312.545026 420.263521 
L 315.153703 420.656005 
L 317.762108 420.075802 
L 320.370513 420.545491 
L 322.978645 419.837331 
L 325.586641 418.62114 
L 328.194365 415.917289 
L 330.802088 413.986519 
L 333.40954 410.048561 
L 336.016854 405.285605 
L 338.624033 399.543497 
L 341.231076 393.423437 
L 343.837846 383.517881 
L 346.444616 375.832135 
L 351.657338 355.378395 
L 354.263563 341.79574 
L 356.869516 329.602352 
L 362.081013 306.566137 
L 364.686557 294.619652 
L 367.291964 285.880898 
L 369.8971 276.56562 
L 372.502099 269.899834 
L 375.106961 264.08661 
L 380.316142 259.429995 
L 382.92046 259.078514 
L 385.524642 259.922283 
L 388.128687 262.11464 
L 390.732596 265.081316 
L 393.336233 269.553269 
L 395.939733 275.75045 
L 398.543098 282.392684 
L 401.146326 290.437243 
L 403.749281 299.892384 
L 406.352101 308.281076 
L 411.557331 328.761034 
L 414.159741 341.427298 
L 419.363881 364.492504 
L 424.567477 383.047032 
L 427.168934 389.516979 
L 429.770391 396.348393 
L 432.371575 401.838909 
L 434.972487 407.943494 
L 437.573399 409.697544 
L 440.174039 412.297447 
L 442.774542 413.484769 
L 445.37491 414.96106 
L 447.975141 414.882823 
L 450.575099 415.94106 
L 453.174921 415.665824 
L 455.774607 414.66538 
L 458.374157 411.301338 
L 460.973435 410.202461 
L 463.572576 407.279052 
L 466.171581 404.971541 
L 468.770449 402.483252 
L 471.369182 400.288473 
L 473.967642 397.117179 
L 476.565965 394.500736 
L 479.164153 391.596705 
L 481.762068 389.671848 
L 486.957625 383.793512 
L 489.555132 379.439836 
L 492.152366 376.784743 
L 494.7496 374.418175 
L 497.346561 373.057499 
L 499.943386 372.700829 
L 502.539939 374.222296 
L 505.136492 374.581636 
L 507.732772 378.232816 
L 510.328916 385.183164 
L 512.924924 392.460753 
L 520.711721 411.355571 
L 523.307048 417.548538 
L 525.902102 421.271711 
L 528.497156 425.476532 
L 531.091938 426.701301 
L 533.686447 425.359503 
L 536.280957 420.751931 
L 538.875193 413.649178 
L 541.469294 404.203276 
L 544.063258 392.209316 
L 546.65695 379.21803 
L 549.250506 363.6294 
L 551.843925 353.189278 
L 554.437208 346.976848 
L 557.030355 344.226624 
L 559.62323 345.692904 
L 562.215968 350.309652 
L 564.80857 356.31324 
L 567.4009 364.046844 
L 569.993093 373.307547 
L 572.58515 388.670382 
L 575.177071 406.049497 
L 577.76872 426.750814 
L 580.360368 444.041747 
L 582.951744 453.758931 
L 585.542848 461.76711 
L 590.724782 475.186828 
L 601.086472 491.64775 
L 603.676485 494.763444 
L 606.266227 497.145521 
L 608.855968 499.138074 
L 611.445437 501.73574 
L 614.034769 503.143943 
L 616.623829 505.203767 
L 619.212889 505.780643 
L 621.801677 507.485668 
L 629.56695 508.671752 
L 632.155056 509.167351 
L 634.743026 509.23653 
L 637.330724 508.709004 
L 639.918422 507.705169 
L 642.505847 507.488652 
L 645.093 505.227343 
L 647.680153 503.176788 
L 650.267033 500.371792 
L 652.853777 498.00414 
L 658.026584 490.055574 
L 660.61292 487.15069 
L 663.198847 484.007741 
L 665.784773 479.913894 
L 670.955946 476.718851 
L 673.541328 475.485539 
L 676.126437 474.675991 
L 678.71141 475.106826 
L 681.296247 474.731512 
L 683.880812 475.774517 
L 686.465376 476.099274 
L 689.049668 479.239065 
L 691.633687 479.475965 
L 694.217707 481.275331 
L 696.801454 481.875055 
L 699.385201 483.515787 
L 701.968403 484.097452 
L 704.551878 484.213599 
L 707.134808 482.345576 
L 709.717737 481.838289 
L 712.300395 478.097185 
L 714.883052 476.190586 
L 717.465437 472.037884 
L 720.047549 470.244063 
L 722.629661 465.597121 
L 725.211501 462.126425 
L 727.793068 459.21191 
L 730.374636 457.72325 
L 732.955931 455.008208 
L 735.537226 451.948834 
L 738.118248 448.667098 
L 740.698998 445.823194 
L 743.279476 440.835377 
L 745.859953 437.247682 
L 748.440431 431.643425 
L 751.020363 426.690225 
L 753.600296 419.073696 
L 756.180229 412.036376 
L 758.759616 406.621073 
L 763.918392 391.65431 
L 769.07635 382.951013 
L 771.65492 379.747771 
L 774.23349 375.005146 
L 776.811788 372.677505 
L 781.967839 367.195266 
L 784.545864 365.994364 
L 787.123345 368.581406 
L 789.700825 368.165671 
L 792.278033 369.856782 
L 794.855241 370.329688 
L 797.432177 373.602408 
L 800.00884 375.72679 
L 802.585503 378.784844 
L 807.738284 382.68588 
L 810.31413 380.444633 
L 812.889976 379.421712 
L 815.465821 376.266643 
L 818.041395 372.816208 
L 820.616695 368.759974 
L 823.191724 365.80349 
L 825.766752 362.398035 
L 828.341508 360.793941 
L 830.916264 357.441913 
L 833.490747 357.321741 
L 836.064958 355.660071 
L 838.639169 352.64718 
L 841.213107 350.387108 
L 843.786773 349.844447 
L 846.360167 346.688871 
L 848.933561 344.234558 
L 851.506954 339.658296 
L 854.079803 336.485107 
L 856.652651 330.135586 
L 859.2255 325.890956 
L 861.797804 321.91934 
L 864.37038 318.612898 
L 866.942411 313.086348 
L 869.514442 308.7257 
L 872.086201 303.223519 
L 874.657688 298.149164 
L 877.229174 291.85993 
L 879.800388 288.924415 
L 882.371602 284.728542 
L 887.512939 277.313787 
L 890.083608 274.454703 
L 892.654005 272.077059 
L 895.224129 268.996572 
L 897.79398 267.771507 
L 900.363832 266.914775 
L 902.933684 264.771302 
L 905.50299 262.129951 
L 908.072297 260.219192 
L 910.641331 259.907576 
L 913.210365 258.327698 
L 915.779127 258.488759 
L 918.347616 260.040048 
L 920.915833 260.936439 
L 926.052267 267.081548 
L 928.619938 270.724544 
L 931.18761 274.57092 
L 933.75501 276.82409 
L 936.322409 279.298458 
L 941.456391 281.004284 
L 944.023245 281.012472 
L 949.156137 280.584649 
L 951.722446 279.381754 
L 954.288483 277.530513 
L 956.854248 276.082736 
L 959.420013 276.584788 
L 961.985505 276.780471 
L 964.550725 276.067102 
L 967.115944 275.710481 
L 972.245566 272.272376 
L 974.810241 272.303134 
L 977.374644 272.897905 
L 979.938773 272.23438 
L 982.502903 270.207353 
L 987.630346 261.583391 
L 990.193931 256.807003 
L 992.757243 252.831682 
L 995.320283 247.917121 
L 997.883323 241.618586 
L 1000.446091 233.451149 
L 1003.008586 226.980452 
L 1005.571081 219.70134 
L 1008.133304 216.224109 
L 1010.695254 212.083131 
L 1013.257204 207.525014 
L 1015.818882 201.564988 
L 1018.380287 196.083081 
L 1020.941692 191.011031 
L 1023.502825 187.604131 
L 1026.063686 183.014441 
L 1028.624546 179.634877 
L 1031.185134 176.002993 
L 1033.745449 173.735222 
L 1036.305492 172.430317 
L 1038.865535 172.835324 
L 1041.425578 173.431919 
L 1043.985076 173.867935 
L 1046.544574 173.239569 
L 1049.1038 173.358959 
L 1054.221979 171.228159 
L 1056.780659 170.696877 
L 1059.33934 171.136569 
L 1061.897748 170.457102 
L 1067.013747 170.504247 
L 1069.57161 170.991928 
L 1072.129474 172.218167 
L 1074.686792 174.309159 
L 1077.24411 175.429296 
L 1079.801156 176.323671 
L 1084.914703 175.922987 
L 1087.471477 175.951792 
L 1090.027705 177.039333 
L 1092.583934 178.619329 
L 1095.13989 179.003364 
L 1097.695573 179.711378 
L 1102.806668 183.853734 
L 1105.362079 186.699292 
L 1107.916945 190.103359 
L 1110.471812 193.203917 
L 1115.580999 197.683719 
L 1118.13532 200.152451 
L 1120.689642 201.41901 
L 1125.797194 203.192914 
L 1128.350971 202.708667 
L 1130.904202 202.987707 
L 1133.457434 202.281429 
L 1136.010665 202.669938 
L 1138.563352 201.428861 
L 1141.116038 200.753301 
L 1143.668452 200.656095 
L 1146.220866 200.353384 
L 1148.773008 199.686174 
L 1151.324877 200.013621 
L 1153.876474 199.473099 
L 1156.42807 200.147573 
L 1158.979395 199.322106 
L 1161.530719 199.849592 
L 1164.081498 200.110964 
L 1166.632277 200.697991 
L 1169.183057 200.765262 
L 1171.733291 201.04355 
L 1174.283525 200.56998 
L 1176.83376 200.888933 
L 1179.383449 200.461903 
L 1181.933139 200.485832 
L 1184.482828 200.239416 
L 1187.031973 200.196565 
L 1189.581117 199.095321 
L 1192.129989 198.797537 
L 1194.678861 199.015192 
L 1197.227461 199.696386 
L 1199.775788 199.650814 
L 1202.323843 198.942273 
L 1204.871897 197.749248 
L 1207.41968 197.373004 
L 1209.967462 196.601312 
L 1212.514699 196.508774 
L 1215.061937 196.226545 
L 1217.609174 195.765561 
L 1222.702559 194.697106 
L 1225.249251 195.120359 
L 1227.795398 195.920835 
L 1230.341546 196.033697 
L 1232.887421 195.392275 
L 1235.433296 195.430399 
L 1237.978898 195.103231 
L 1240.524229 194.465612 
L 1243.069286 195.024543 
L 1245.614344 195.440554 
L 1248.159129 196.202013 
L 1250.703642 196.403714 
L 1253.248154 197.111393 
L 1255.792395 198.345105 
L 1258.336362 199.218247 
L 1260.88033 200.376914 
L 1263.424025 200.953601 
L 1265.967448 200.193128 
L 1268.510871 200.294333 
L 1271.053749 199.651626 
L 1273.596899 200.259683 
L 1276.139505 199.597381 
L 1278.68211 199.39309 
L 1281.224443 198.947111 
L 1283.766504 199.260928 
L 1286.308564 200.086302 
L 1288.850353 201.091535 
L 1291.391868 201.537005 
L 1293.933384 202.547875 
L 1296.474354 202.601503 
L 1296.474354 202.601503 
" clip-path="url(#p72bd7da432)" style="fill: none; stroke: #2ca02c; stroke-width: 3; stroke-linecap: square"/>
   </g>
   <g id="line2d_28">
    <path d="M 179.28806 294.029897 
L 181.904911 303.679015 
L 187.13834 327.622928 
L 189.754783 338.426073 
L 192.371089 347.892243 
L 194.987123 355.492312 
L 197.603156 362.541536 
L 200.218917 370.945017 
L 202.834542 377.779715 
L 208.065384 392.403685 
L 210.6806 399.020419 
L 213.295544 405.107182 
L 215.910352 411.55384 
L 218.525023 418.707852 
L 221.139558 425.079599 
L 226.368083 438.334617 
L 228.98221 443.409924 
L 234.209646 452.286353 
L 236.823227 457.684141 
L 239.436672 460.781015 
L 244.662882 468.701443 
L 252.501038 478.058541 
L 255.11353 481.886935 
L 257.725749 485.155604 
L 260.337832 487.670857 
L 262.949779 492.204506 
L 265.561453 495.444035 
L 268.172991 498.088059 
L 273.395795 504.740639 
L 276.006788 507.460107 
L 283.839086 516.239303 
L 286.449535 517.975541 
L 289.059847 519.909522 
L 291.670022 522.604235 
L 294.279926 524.911426 
L 296.889693 527.635523 
L 299.499324 529.479627 
L 302.108818 530.464099 
L 304.718177 531.226729 
L 307.327263 533.296034 
L 312.545026 536.890118 
L 315.153703 539.293763 
L 317.762108 541.470126 
L 320.370513 542.712569 
L 322.978645 545.347264 
L 325.586641 547.61965 
L 328.194365 550.824477 
L 330.802088 552.321383 
L 333.40954 554.190069 
L 336.016854 555.688032 
L 338.624033 556.362219 
L 341.231076 558.156118 
L 343.837846 559.065561 
L 346.444616 560.092757 
L 349.051113 561.48346 
L 351.657338 562.672946 
L 356.869516 564.622276 
L 359.475469 565.8145 
L 362.081013 567.301495 
L 364.686557 567.476294 
L 367.291964 568.714573 
L 369.8971 570.529292 
L 372.502099 571.430593 
L 375.106961 572.154287 
L 377.711688 573.790182 
L 382.92046 576.064948 
L 385.524642 576.639177 
L 388.128687 578.579334 
L 390.732596 580.132431 
L 393.336233 580.57768 
L 395.939733 582.274533 
L 398.543098 584.123479 
L 401.146326 584.369397 
L 403.749281 584.950735 
L 406.352101 585.756286 
L 408.95492 586.721884 
L 411.557331 587.119531 
L 414.159741 587.742015 
L 419.363881 589.404941 
L 421.965747 588.862091 
L 424.567477 589.678229 
L 427.168934 590.850256 
L 429.770391 591.646425 
L 434.972487 593.824701 
L 437.573399 594.485693 
L 440.174039 594.959817 
L 442.774542 595.138082 
L 445.37491 595.802516 
L 447.975141 596.146562 
L 450.575099 597.058393 
L 453.174921 598.13014 
L 455.774607 598.432234 
L 458.374157 598.285893 
L 460.973435 598.460155 
L 463.572576 599.455424 
L 466.171581 599.892015 
L 471.369182 602.213897 
L 473.967642 602.838563 
L 476.565965 603.105119 
L 479.164153 603.642847 
L 481.762068 604.348371 
L 484.359983 605.448056 
L 486.957625 605.475571 
L 492.152366 605.806837 
L 494.7496 605.307819 
L 497.346561 605.685635 
L 499.943386 606.358791 
L 502.539939 607.594966 
L 505.136492 608.07082 
L 507.732772 608.359994 
L 510.328916 609.33336 
L 512.924924 611.310813 
L 515.520659 611.529266 
L 518.116258 612.93123 
L 520.711721 612.699127 
L 528.497156 611.588759 
L 533.686447 613.080108 
L 536.280957 612.112702 
L 538.875193 612.121302 
L 541.469294 611.970679 
L 544.063258 612.765468 
L 546.65695 613.971234 
L 549.250506 614.569059 
L 551.843925 614.841152 
L 554.437208 613.771911 
L 557.030355 613.974831 
L 559.62323 614.062256 
L 564.80857 614.801654 
L 567.4009 614.803712 
L 569.993093 614.967796 
L 572.58515 615.362692 
L 575.177071 616.326752 
L 577.76872 617.754722 
L 580.360368 617.42636 
L 582.951744 618.141285 
L 588.133951 618.869193 
L 590.724782 619.755681 
L 593.315477 619.568077 
L 595.905899 619.637839 
L 598.496322 619.512399 
L 601.086472 619.665143 
L 603.676485 620.464589 
L 606.266227 619.740192 
L 608.855968 620.185206 
L 614.034769 618.59245 
L 616.623829 619.083489 
L 619.212889 619.106887 
L 621.801677 619.962987 
L 624.390328 620.627325 
L 626.978707 619.75951 
L 629.56695 620.589305 
L 632.155056 620.295368 
L 634.743026 620.648474 
L 637.330724 620.13756 
L 639.918422 618.98316 
L 642.505847 617.494891 
L 645.093 615.104156 
L 647.680153 612.939934 
L 650.267033 610.569103 
L 652.853777 607.501343 
L 655.440249 603.817166 
L 658.026584 600.936547 
L 660.61292 597.588045 
L 663.198847 593.807126 
L 665.784773 591.254875 
L 668.370428 588.369664 
L 670.955946 586.669553 
L 673.541328 586.094826 
L 678.71141 586.502784 
L 681.296247 586.059664 
L 683.880812 587.858225 
L 686.465376 589.35845 
L 689.049668 590.559449 
L 691.633687 592.552564 
L 694.217707 594.16846 
L 696.801454 595.375435 
L 699.385201 595.108728 
L 701.968403 596.731 
L 704.551878 595.754882 
L 707.134808 593.684789 
L 709.717737 592.163108 
L 712.300395 589.892987 
L 714.883052 587.930633 
L 722.629661 579.184702 
L 725.211501 575.06163 
L 727.793068 573.284829 
L 730.374636 571.892696 
L 732.955931 570.268154 
L 735.537226 567.548959 
L 738.118248 564.329811 
L 740.698998 561.985539 
L 743.279476 559.460086 
L 745.859953 556.19758 
L 748.440431 551.977609 
L 751.020363 546.51032 
L 753.600296 539.878561 
L 756.180229 532.79041 
L 758.759616 526.998846 
L 761.339004 521.772321 
L 763.918392 515.489659 
L 766.497234 509.88015 
L 769.07635 505.723003 
L 771.65492 502.529716 
L 774.23349 500.568701 
L 779.390086 498.670709 
L 781.967839 498.295319 
L 784.545864 498.131528 
L 787.123345 499.64064 
L 789.700825 500.643614 
L 792.278033 501.885844 
L 794.855241 502.280086 
L 797.432177 504.504627 
L 800.00884 505.849493 
L 802.585503 507.513731 
L 805.161894 508.940653 
L 807.738284 509.95826 
L 810.31413 510.453437 
L 812.889976 509.758939 
L 815.465821 508.096828 
L 818.041395 507.252398 
L 820.616695 504.502251 
L 823.191724 501.929938 
L 825.766752 500.115347 
L 828.341508 498.083923 
L 830.916264 496.229769 
L 833.490747 493.693246 
L 836.064958 491.933409 
L 838.639169 490.459961 
L 841.213107 487.922231 
L 846.360167 483.945586 
L 848.933561 480.381102 
L 851.506954 477.145846 
L 854.079803 473.624411 
L 856.652651 469.287671 
L 859.2255 466.009942 
L 861.797804 462.41582 
L 864.37038 459.183372 
L 866.942411 455.258678 
L 869.514442 451.590247 
L 872.086201 448.368924 
L 874.657688 444.366222 
L 877.229174 439.784104 
L 879.800388 437.123092 
L 882.371602 433.493745 
L 884.942271 430.740139 
L 887.512939 428.715463 
L 892.654005 425.054295 
L 895.224129 423.725966 
L 897.79398 422.15495 
L 900.363832 421.984843 
L 905.50299 419.157353 
L 908.072297 417.332038 
L 910.641331 415.906096 
L 913.210365 415.460892 
L 915.779127 415.98637 
L 918.347616 416.937726 
L 920.915833 418.759167 
L 923.48405 421.038923 
L 926.052267 423.744981 
L 928.619938 426.720243 
L 931.18761 429.450682 
L 933.75501 431.685174 
L 936.322409 433.15277 
L 938.889536 434.115267 
L 941.456391 435.260057 
L 946.589827 436.368717 
L 949.156137 436.571221 
L 951.722446 436.661803 
L 956.854248 437.358402 
L 959.420013 439.342111 
L 961.985505 440.522254 
L 964.550725 440.72582 
L 967.115944 441.471608 
L 969.680892 441.409071 
L 972.245566 441.131844 
L 974.810241 442.369444 
L 977.374644 443.752733 
L 979.938773 444.768319 
L 982.502903 444.178135 
L 985.066761 442.218163 
L 987.630346 440.109853 
L 990.193931 437.332138 
L 992.757243 435.014853 
L 995.320283 433.19213 
L 997.883323 429.48064 
L 1000.446091 424.435891 
L 1005.571081 414.698486 
L 1010.695254 410.579348 
L 1013.257204 407.985612 
L 1020.941692 396.73755 
L 1026.063686 391.986627 
L 1028.624546 390.158204 
L 1033.745449 385.933692 
L 1036.305492 385.042144 
L 1041.425578 385.23117 
L 1043.985076 385.72172 
L 1046.544574 385.59352 
L 1049.1038 385.33778 
L 1051.663025 384.924378 
L 1056.780659 383.504826 
L 1059.33934 383.415959 
L 1061.897748 383.035035 
L 1064.455884 382.85796 
L 1067.013747 382.509435 
L 1072.129474 382.452365 
L 1074.686792 383.101739 
L 1077.24411 383.544131 
L 1079.801156 383.842671 
L 1082.358202 383.110205 
L 1084.914703 382.069097 
L 1087.471477 380.777564 
L 1090.027705 380.234289 
L 1095.13989 379.849854 
L 1097.695573 378.886157 
L 1100.251257 378.409078 
L 1102.806668 379.090129 
L 1105.362079 380.495572 
L 1107.916945 382.493122 
L 1110.471812 383.904075 
L 1113.026678 384.858207 
L 1115.580999 385.506684 
L 1118.13532 385.827759 
L 1120.689642 386.288269 
L 1123.243418 386.508819 
L 1125.797194 385.971093 
L 1128.350971 384.398185 
L 1130.904202 383.570955 
L 1133.457434 383.226567 
L 1136.010665 382.522497 
L 1138.563352 381.547959 
L 1141.116038 381.341796 
L 1143.668452 380.752708 
L 1146.220866 380.29945 
L 1148.773008 380.324103 
L 1151.324877 381.045978 
L 1153.876474 380.687403 
L 1158.979395 379.621042 
L 1164.081498 380.093086 
L 1166.632277 379.866593 
L 1169.183057 379.832441 
L 1171.733291 380.010257 
L 1174.283525 379.961376 
L 1176.83376 380.274636 
L 1179.383449 381.092122 
L 1181.933139 381.461308 
L 1184.482828 381.401929 
L 1187.031973 380.422531 
L 1189.581117 381.414315 
L 1197.227461 381.101422 
L 1199.775788 380.70561 
L 1202.323843 379.838968 
L 1204.871897 379.287565 
L 1207.41968 378.952718 
L 1209.967462 379.734794 
L 1212.514699 379.404336 
L 1215.061937 379.445512 
L 1217.609174 379.641114 
L 1220.155866 379.559822 
L 1222.702559 379.62974 
L 1225.249251 380.18555 
L 1227.795398 380.383005 
L 1232.887421 380.203885 
L 1235.433296 379.454051 
L 1243.069286 377.914492 
L 1245.614344 378.208901 
L 1248.159129 377.779541 
L 1250.703642 378.043814 
L 1253.248154 378.554673 
L 1255.792395 378.502771 
L 1258.336362 379.305105 
L 1260.88033 379.73293 
L 1263.424025 379.921189 
L 1265.967448 380.636983 
L 1268.510871 380.521895 
L 1271.053749 380.91401 
L 1278.68211 382.5946 
L 1281.224443 383.461548 
L 1283.766504 383.533849 
L 1286.308564 384.337653 
L 1288.850353 384.822158 
L 1291.391868 384.924801 
L 1293.933384 385.508346 
L 1296.474354 385.586418 
L 1296.474354 385.586418 
" clip-path="url(#p72bd7da432)" style="fill: none; stroke: #d62728; stroke-width: 3; stroke-linecap: square"/>
   </g>
   <g id="patch_3">
    <path d="M 180 945 
L 180 129.6 
" style="fill: none; stroke: #000000; stroke-width: 0.8; stroke-linejoin: miter; stroke-linecap: square"/>
   </g>
   <g id="patch_4">
    <path d="M 1296 945 
L 1296 129.6 
" style="fill: none; stroke: #000000; stroke-width: 0.8; stroke-linejoin: miter; stroke-linecap: square"/>
   </g>
   <g id="patch_5">
    <path d="M 180 945 
L 1296 945 
" style="fill: none; stroke: #000000; stroke-width: 0.8; stroke-linejoin: miter; stroke-linecap: square"/>
   </g>
   <g id="patch_6">
    <path d="M 180 129.6 
L 1296 129.6 
" style="fill: none; stroke: #000000; stroke-width: 0.8; stroke-linejoin: miter; stroke-linecap: square"/>
   </g>
   <g id="text_15">
    <!-- Absorbancia de las muestras -->
    <g transform="translate(484.586328 122.321094)scale(0.35 -0.35)">
     <defs>
      <path id="DejaVuSans-6c" d="M 603 4863 
L 1178 4863 
L 1178 0 
L 603 0 
L 603 4863 
z
" transform="scale(0.015625)"/>
     </defs>
     <use xlink:href="#DejaVuSans-41"/>
     <use xlink:href="#DejaVuSans-62" x="68.408203"/>
     <use xlink:href="#DejaVuSans-73" x="131.884766"/>
     <use xlink:href="#DejaVuSans-6f" x="183.984375"/>
     <use xlink:href="#DejaVuSans-72" x="245.166016"/>
     <use xlink:href="#DejaVuSans-62" x="286.279297"/>
     <use xlink:href="#DejaVuSans-61" x="349.755859"/>
     <use xlink:href="#DejaVuSans-6e" x="411.035156"/>
     <use xlink:href="#DejaVuSans-63" x="474.414062"/>
     <use xlink:href="#DejaVuSans-69" x="529.394531"/>
     <use xlink:href="#DejaVuSans-61" x="557.177734"/>
     <use xlink:href="#DejaVuSans-20" x="618.457031"/>
     <use xlink:href="#DejaVuSans-64" x="650.244141"/>
     <use xlink:href="#DejaVuSans-65" x="713.720703"/>
     <use xlink:href="#DejaVuSans-20" x="775.244141"/>
     <use xlink:href="#DejaVuSans-6c" x="807.03125"/>
     <use xlink:href="#DejaVuSans-61" x="834.814453"/>
     <use xlink:href="#DejaVuSans-73" x="896.09375"/>
     <use xlink:href="#DejaVuSans-20" x="948.193359"/>
     <use xlink:href="#DejaVuSans-6d" x="979.980469"/>
     <use xlink:href="#DejaVuSans-75" x="1077.392578"/>
     <use xlink:href="#DejaVuSans-65" x="1140.771484"/>
     <use xlink:href="#DejaVuSans-73" x="1202.294922"/>
     <use xlink:href="#DejaVuSans-74" x="1254.394531"/>
     <use xlink:href="#DejaVuSans-72" x="1293.603516"/>
     <use xlink:href="#DejaVuSans-61" x="1334.716797"/>
     <use xlink:href="#DejaVuSans-73" x="1395.996094"/>
    </g>
   </g>
   <g id="legend_1">
    <g id="patch_7">
     <path d="M 194 935 
L 483.8 935 
Q 487.8 935 487.8 931 
L 487.8 812.53125 
Q 487.8 808.53125 483.8 808.53125 
L 194 808.53125 
Q 190 808.53125 190 812.53125 
L 190 931 
Q 190 935 194 935 
z
" style="fill: #ffffff; opacity: 0.8; stroke: #cccccc; stroke-linejoin: miter"/>
    </g>
    <g id="line2d_29">
     <path d="M 198 824.728125 
L 218 824.728125 
L 238 824.728125 
" style="fill: none; stroke: #1f77b4; stroke-width: 3; stroke-linecap: square"/>
    </g>
    <g id="text_16">
     <!-- Matriz -->
     <g transform="translate(254 831.728125)scale(0.2 -0.2)">
      <defs>
       <path id="DejaVuSans-4d" d="M 628 4666 
L 1569 4666 
L 2759 1491 
L 3956 4666 
L 4897 4666 
L 4897 0 
L 4281 0 
L 4281 4097 
L 3078 897 
L 2444 897 
L 1241 4097 
L 1241 0 
L 628 0 
L 628 4666 
z
" transform="scale(0.015625)"/>
       <path id="DejaVuSans-7a" d="M 353 3500 
L 3084 3500 
L 3084 2975 
L 922 459 
L 3084 459 
L 3084 0 
L 275 0 
L 275 525 
L 2438 3041 
L 353 3041 
L 353 3500 
z
" transform="scale(0.015625)"/>
      </defs>
      <use xlink:href="#DejaVuSans-4d"/>
      <use xlink:href="#DejaVuSans-61" x="86.279297"/>
      <use xlink:href="#DejaVuSans-74" x="147.558594"/>
      <use xlink:href="#DejaVuSans-72" x="186.767578"/>
      <use xlink:href="#DejaVuSans-69" x="227.880859"/>
      <use xlink:href="#DejaVuSans-7a" x="255.664062"/>
     </g>
    </g>
    <g id="line2d_30">
     <path d="M 198 854.084375 
L 218 854.084375 
L 238 854.084375 
" style="fill: none; stroke: #ff7f0e; stroke-width: 3; stroke-linecap: square"/>
    </g>
    <g id="text_17">
     <!-- Matriz con $Pr^{3+}$ -->
     <g transform="translate(254 861.084375)scale(0.2 -0.2)">
      <defs>
       <path id="DejaVuSans-Oblique-50" d="M 1081 4666 
L 2541 4666 
Q 3178 4666 3512 4369 
Q 3847 4072 3847 3500 
Q 3847 2731 3353 2303 
Q 2859 1875 1966 1875 
L 1172 1875 
L 806 0 
L 172 0 
L 1081 4666 
z
M 1613 4147 
L 1275 2394 
L 2069 2394 
Q 2606 2394 2893 2669 
Q 3181 2944 3181 3456 
Q 3181 3784 2986 3965 
Q 2791 4147 2438 4147 
L 1613 4147 
z
" transform="scale(0.015625)"/>
       <path id="DejaVuSans-Oblique-72" d="M 2853 2969 
Q 2766 3016 2653 3041 
Q 2541 3066 2413 3066 
Q 1953 3066 1609 2717 
Q 1266 2369 1153 1784 
L 800 0 
L 225 0 
L 909 3500 
L 1484 3500 
L 1375 2956 
Q 1603 3259 1920 3421 
Q 2238 3584 2597 3584 
Q 2691 3584 2781 3573 
Q 2872 3563 2963 3538 
L 2853 2969 
z
" transform="scale(0.015625)"/>
       <path id="DejaVuSans-33" d="M 2597 2516 
Q 3050 2419 3304 2112 
Q 3559 1806 3559 1356 
Q 3559 666 3084 287 
Q 2609 -91 1734 -91 
Q 1441 -91 1130 -33 
Q 819 25 488 141 
L 488 750 
Q 750 597 1062 519 
Q 1375 441 1716 441 
Q 2309 441 2620 675 
Q 2931 909 2931 1356 
Q 2931 1769 2642 2001 
Q 2353 2234 1838 2234 
L 1294 2234 
L 1294 2753 
L 1863 2753 
Q 2328 2753 2575 2939 
Q 2822 3125 2822 3475 
Q 2822 3834 2567 4026 
Q 2313 4219 1838 4219 
Q 1578 4219 1281 4162 
Q 984 4106 628 3988 
L 628 4550 
Q 988 4650 1302 4700 
Q 1616 4750 1894 4750 
Q 2613 4750 3031 4423 
Q 3450 4097 3450 3541 
Q 3450 3153 3228 2886 
Q 3006 2619 2597 2516 
z
" transform="scale(0.015625)"/>
       <path id="DejaVuSans-2b" d="M 2944 4013 
L 2944 2272 
L 4684 2272 
L 4684 1741 
L 2944 1741 
L 2944 0 
L 2419 0 
L 2419 1741 
L 678 1741 
L 678 2272 
L 2419 2272 
L 2419 4013 
L 2944 4013 
z
" transform="scale(0.015625)"/>
      </defs>
      <use xlink:href="#DejaVuSans-4d" transform="translate(0 0.765625)"/>
      <use xlink:href="#DejaVuSans-61" transform="translate(86.279297 0.765625)"/>
      <use xlink:href="#DejaVuSans-74" transform="translate(147.558594 0.765625)"/>
      <use xlink:href="#DejaVuSans-72" transform="translate(186.767578 0.765625)"/>
      <use xlink:href="#DejaVuSans-69" transform="translate(227.880859 0.765625)"/>
      <use xlink:href="#DejaVuSans-7a" transform="translate(255.664062 0.765625)"/>
      <use xlink:href="#DejaVuSans-20" transform="translate(308.154297 0.765625)"/>
      <use xlink:href="#DejaVuSans-63" transform="translate(339.941406 0.765625)"/>
      <use xlink:href="#DejaVuSans-6f" transform="translate(394.921875 0.765625)"/>
      <use xlink:href="#DejaVuSans-6e" transform="translate(456.103516 0.765625)"/>
      <use xlink:href="#DejaVuSans-20" transform="translate(519.482422 0.765625)"/>
      <use xlink:href="#DejaVuSans-Oblique-50" transform="translate(551.269531 0.765625)"/>
      <use xlink:href="#DejaVuSans-Oblique-72" transform="translate(611.572266 0.765625)"/>
      <use xlink:href="#DejaVuSans-33" transform="translate(657.335443 39.046875)scale(0.7)"/>
      <use xlink:href="#DejaVuSans-2b" transform="translate(715.509271 39.046875)scale(0.7)"/>
     </g>
    </g>
    <g id="line2d_31">
     <path d="M 198 886.44375 
L 218 886.44375 
L 238 886.44375 
" style="fill: none; stroke: #2ca02c; stroke-width: 3; stroke-linecap: square"/>
    </g>
    <g id="text_18">
     <!-- Matriz con $Pr^{3+}$ y $TiO_2$ -->
     <g transform="translate(254 893.44375)scale(0.2 -0.2)">
      <defs>
       <path id="DejaVuSans-79" d="M 2059 -325 
Q 1816 -950 1584 -1140 
Q 1353 -1331 966 -1331 
L 506 -1331 
L 506 -850 
L 844 -850 
Q 1081 -850 1212 -737 
Q 1344 -625 1503 -206 
L 1606 56 
L 191 3500 
L 800 3500 
L 1894 763 
L 2988 3500 
L 3597 3500 
L 2059 -325 
z
" transform="scale(0.015625)"/>
       <path id="DejaVuSans-Oblique-54" d="M 378 4666 
L 4325 4666 
L 4225 4134 
L 2559 4134 
L 1759 0 
L 1125 0 
L 1925 4134 
L 275 4134 
L 378 4666 
z
" transform="scale(0.015625)"/>
       <path id="DejaVuSans-Oblique-69" d="M 1172 4863 
L 1747 4863 
L 1606 4134 
L 1031 4134 
L 1172 4863 
z
M 909 3500 
L 1484 3500 
L 800 0 
L 225 0 
L 909 3500 
z
" transform="scale(0.015625)"/>
       <path id="DejaVuSans-Oblique-4f" d="M 2919 4238 
Q 2400 4238 2003 3986 
Q 1606 3734 1313 3219 
Q 1125 2891 1026 2522 
Q 928 2153 928 1778 
Q 928 1128 1239 775 
Q 1550 422 2119 422 
Q 2631 422 3032 676 
Q 3434 931 3719 1434 
Q 3909 1772 4009 2142 
Q 4109 2513 4109 2881 
Q 4109 3528 3796 3883 
Q 3484 4238 2919 4238 
z
M 2100 -91 
Q 1241 -91 748 418 
Q 256 928 256 1813 
Q 256 2319 448 2847 
Q 641 3375 978 3788 
Q 1375 4272 1862 4511 
Q 2350 4750 2938 4750 
Q 3794 4750 4287 4245 
Q 4781 3741 4781 2869 
Q 4781 2331 4593 1812 
Q 4406 1294 4056 872 
Q 3656 384 3173 146 
Q 2691 -91 2100 -91 
z
" transform="scale(0.015625)"/>
      </defs>
      <use xlink:href="#DejaVuSans-4d" transform="translate(0 0.765625)"/>
      <use xlink:href="#DejaVuSans-61" transform="translate(86.279297 0.765625)"/>
      <use xlink:href="#DejaVuSans-74" transform="translate(147.558594 0.765625)"/>
      <use xlink:href="#DejaVuSans-72" transform="translate(186.767578 0.765625)"/>
      <use xlink:href="#DejaVuSans-69" transform="translate(227.880859 0.765625)"/>
      <use xlink:href="#DejaVuSans-7a" transform="translate(255.664062 0.765625)"/>
      <use xlink:href="#DejaVuSans-20" transform="translate(308.154297 0.765625)"/>
      <use xlink:href="#DejaVuSans-63" transform="translate(339.941406 0.765625)"/>
      <use xlink:href="#DejaVuSans-6f" transform="translate(394.921875 0.765625)"/>
      <use xlink:href="#DejaVuSans-6e" transform="translate(456.103516 0.765625)"/>
      <use xlink:href="#DejaVuSans-20" transform="translate(519.482422 0.765625)"/>
      <use xlink:href="#DejaVuSans-Oblique-50" transform="translate(551.269531 0.765625)"/>
      <use xlink:href="#DejaVuSans-Oblique-72" transform="translate(611.572266 0.765625)"/>
      <use xlink:href="#DejaVuSans-33" transform="translate(657.335443 39.046875)scale(0.7)"/>
      <use xlink:href="#DejaVuSans-2b" transform="translate(715.509271 39.046875)scale(0.7)"/>
      <use xlink:href="#DejaVuSans-20" transform="translate(790.533685 0.765625)"/>
      <use xlink:href="#DejaVuSans-79" transform="translate(822.320794 0.765625)"/>
      <use xlink:href="#DejaVuSans-20" transform="translate(881.500482 0.765625)"/>
      <use xlink:href="#DejaVuSans-Oblique-54" transform="translate(913.287591 0.765625)"/>
      <use xlink:href="#DejaVuSans-Oblique-69" transform="translate(974.371576 0.765625)"/>
      <use xlink:href="#DejaVuSans-Oblique-4f" transform="translate(1002.154779 0.765625)"/>
      <use xlink:href="#DejaVuSans-32" transform="translate(1080.865716 -15.640625)scale(0.7)"/>
     </g>
    </g>
    <g id="line2d_32">
     <path d="M 198 915.840625 
L 218 915.840625 
L 238 915.840625 
" style="fill: none; stroke: #d62728; stroke-width: 3; stroke-linecap: square"/>
    </g>
    <g id="text_19">
     <!-- Matriz con $TiO_2$ -->
     <g transform="translate(254 922.840625)scale(0.2 -0.2)">
      <use xlink:href="#DejaVuSans-4d" transform="translate(0 0.015625)"/>
      <use xlink:href="#DejaVuSans-61" transform="translate(86.279297 0.015625)"/>
      <use xlink:href="#DejaVuSans-74" transform="translate(147.558594 0.015625)"/>
      <use xlink:href="#DejaVuSans-72" transform="translate(186.767578 0.015625)"/>
      <use xlink:href="#DejaVuSans-69" transform="translate(227.880859 0.015625)"/>
      <use xlink:href="#DejaVuSans-7a" transform="translate(255.664062 0.015625)"/>
      <use xlink:href="#DejaVuSans-20" transform="translate(308.154297 0.015625)"/>
      <use xlink:href="#DejaVuSans-63" transform="translate(339.941406 0.015625)"/>
      <use xlink:href="#DejaVuSans-6f" transform="translate(394.921875 0.015625)"/>
      <use xlink:href="#DejaVuSans-6e" transform="translate(456.103516 0.015625)"/>
      <use xlink:href="#DejaVuSans-20" transform="translate(519.482422 0.015625)"/>
      <use xlink:href="#DejaVuSans-Oblique-54" transform="translate(551.269531 0.015625)"/>
      <use xlink:href="#DejaVuSans-Oblique-69" transform="translate(612.353516 0.015625)"/>
      <use xlink:href="#DejaVuSans-Oblique-4f" transform="translate(640.136719 0.015625)"/>
      <use xlink:href="#DejaVuSans-32" transform="translate(718.847656 -16.390625)scale(0.7)"/>
     </g>
    </g>
   </g>
  </g>
 </g>
 <defs>
  <clipPath id="p72bd7da432">
   <rect x="180" y="129.6" width="1116" height="815.4"/>
  </clipPath>
 </defs>
</svg>
