<?xml version="1.0" encoding="utf-8" standalone="no"?>
<!DOCTYPE svg PUBLIC "-//W3C//DTD SVG 1.1//EN"
  "http://www.w3.org/Graphics/SVG/1.1/DTD/svg11.dtd">
<svg xmlns:xlink="http://www.w3.org/1999/xlink" width="1440pt" height="1080pt" viewBox="0 0 1440 1080" xmlns="http://www.w3.org/2000/svg" version="1.1">
 <metadata>
  <rdf:RDF xmlns:dc="http://purl.org/dc/elements/1.1/" xmlns:cc="http://creativecommons.org/ns#" xmlns:rdf="http://www.w3.org/1999/02/22-rdf-syntax-ns#">
   <cc:Work>
    <dc:type rdf:resource="http://purl.org/dc/dcmitype/StillImage"/>
    <dc:date>2023-10-28T18:43:07.650797</dc:date>
    <dc:format>image/svg+xml</dc:format>
    <dc:creator>
     <cc:Agent>
      <dc:title>Matplotlib v3.5.2, https://matplotlib.org/</dc:title>
     </cc:Agent>
    </dc:creator>
   </cc:Work>
  </rdf:RDF>
 </metadata>
 <defs>
  <style type="text/css">*{stroke-linejoin: round; stroke-linecap: butt}</style>
 </defs>
 <g id="figure_1">
  <g id="patch_1">
   <path d="M 0 1080 
L 1440 1080 
L 1440 0 
L 0 0 
L 0 1080 
z
" style="fill: none"/>
  </g>
  <g id="axes_1">
   <g id="patch_2">
    <path d="M 180 945 
L 1296 945 
L 1296 129.6 
L 180 129.6 
z
" style="fill: #ffffff"/>
   </g>
   <g id="matplotlib.axis_1">
    <g id="xtick_1">
     <g id="line2d_1">
      <path d="M 230.002079 945 
L 230.002079 129.6 
" clip-path="url(#p52007f7a8a)" style="fill: none; stroke: #b0b0b0; stroke-width: 0.8; stroke-linecap: square"/>
     </g>
     <g id="line2d_2">
      <defs>
       <path id="m93e1ef777a" d="M 0 0 
L 0 3.5 
" style="stroke: #000000; stroke-width: 0.8"/>
      </defs>
      <g>
       <use xlink:href="#m93e1ef777a" x="230.002079" y="945" style="stroke: #000000; stroke-width: 0.8"/>
      </g>
     </g>
     <g id="text_1">
      <!-- 10 -->
      <g transform="translate(214.095829 970.996094)scale(0.25 -0.25)">
       <defs>
        <path id="DejaVuSans-31" d="M 794 531 
L 1825 531 
L 1825 4091 
L 703 3866 
L 703 4441 
L 1819 4666 
L 2450 4666 
L 2450 531 
L 3481 531 
L 3481 0 
L 794 0 
L 794 531 
z
" transform="scale(0.015625)"/>
        <path id="DejaVuSans-30" d="M 2034 4250 
Q 1547 4250 1301 3770 
Q 1056 3291 1056 2328 
Q 1056 1369 1301 889 
Q 1547 409 2034 409 
Q 2525 409 2770 889 
Q 3016 1369 3016 2328 
Q 3016 3291 2770 3770 
Q 2525 4250 2034 4250 
z
M 2034 4750 
Q 2819 4750 3233 4129 
Q 3647 3509 3647 2328 
Q 3647 1150 3233 529 
Q 2819 -91 2034 -91 
Q 1250 -91 836 529 
Q 422 1150 422 2328 
Q 422 3509 836 4129 
Q 1250 4750 2034 4750 
z
" transform="scale(0.015625)"/>
       </defs>
       <use xlink:href="#DejaVuSans-31"/>
       <use xlink:href="#DejaVuSans-30" x="63.623047"/>
      </g>
     </g>
    </g>
    <g id="xtick_2">
     <g id="line2d_3">
      <path d="M 375.040743 945 
L 375.040743 129.6 
" clip-path="url(#p52007f7a8a)" style="fill: none; stroke: #b0b0b0; stroke-width: 0.8; stroke-linecap: square"/>
     </g>
     <g id="line2d_4">
      <g>
       <use xlink:href="#m93e1ef777a" x="375.040743" y="945" style="stroke: #000000; stroke-width: 0.8"/>
      </g>
     </g>
     <g id="text_2">
      <!-- 20 -->
      <g transform="translate(359.134493 970.996094)scale(0.25 -0.25)">
       <defs>
        <path id="DejaVuSans-32" d="M 1228 531 
L 3431 531 
L 3431 0 
L 469 0 
L 469 531 
Q 828 903 1448 1529 
Q 2069 2156 2228 2338 
Q 2531 2678 2651 2914 
Q 2772 3150 2772 3378 
Q 2772 3750 2511 3984 
Q 2250 4219 1831 4219 
Q 1534 4219 1204 4116 
Q 875 4013 500 3803 
L 500 4441 
Q 881 4594 1212 4672 
Q 1544 4750 1819 4750 
Q 2544 4750 2975 4387 
Q 3406 4025 3406 3419 
Q 3406 3131 3298 2873 
Q 3191 2616 2906 2266 
Q 2828 2175 2409 1742 
Q 1991 1309 1228 531 
z
" transform="scale(0.015625)"/>
       </defs>
       <use xlink:href="#DejaVuSans-32"/>
       <use xlink:href="#DejaVuSans-30" x="63.623047"/>
      </g>
     </g>
    </g>
    <g id="xtick_3">
     <g id="line2d_5">
      <path d="M 520.079407 945 
L 520.079407 129.6 
" clip-path="url(#p52007f7a8a)" style="fill: none; stroke: #b0b0b0; stroke-width: 0.8; stroke-linecap: square"/>
     </g>
     <g id="line2d_6">
      <g>
       <use xlink:href="#m93e1ef777a" x="520.079407" y="945" style="stroke: #000000; stroke-width: 0.8"/>
      </g>
     </g>
     <g id="text_3">
      <!-- 30 -->
      <g transform="translate(504.173157 970.996094)scale(0.25 -0.25)">
       <defs>
        <path id="DejaVuSans-33" d="M 2597 2516 
Q 3050 2419 3304 2112 
Q 3559 1806 3559 1356 
Q 3559 666 3084 287 
Q 2609 -91 1734 -91 
Q 1441 -91 1130 -33 
Q 819 25 488 141 
L 488 750 
Q 750 597 1062 519 
Q 1375 441 1716 441 
Q 2309 441 2620 675 
Q 2931 909 2931 1356 
Q 2931 1769 2642 2001 
Q 2353 2234 1838 2234 
L 1294 2234 
L 1294 2753 
L 1863 2753 
Q 2328 2753 2575 2939 
Q 2822 3125 2822 3475 
Q 2822 3834 2567 4026 
Q 2313 4219 1838 4219 
Q 1578 4219 1281 4162 
Q 984 4106 628 3988 
L 628 4550 
Q 988 4650 1302 4700 
Q 1616 4750 1894 4750 
Q 2613 4750 3031 4423 
Q 3450 4097 3450 3541 
Q 3450 3153 3228 2886 
Q 3006 2619 2597 2516 
z
" transform="scale(0.015625)"/>
       </defs>
       <use xlink:href="#DejaVuSans-33"/>
       <use xlink:href="#DejaVuSans-30" x="63.623047"/>
      </g>
     </g>
    </g>
    <g id="xtick_4">
     <g id="line2d_7">
      <path d="M 665.118071 945 
L 665.118071 129.6 
" clip-path="url(#p52007f7a8a)" style="fill: none; stroke: #b0b0b0; stroke-width: 0.8; stroke-linecap: square"/>
     </g>
     <g id="line2d_8">
      <g>
       <use xlink:href="#m93e1ef777a" x="665.118071" y="945" style="stroke: #000000; stroke-width: 0.8"/>
      </g>
     </g>
     <g id="text_4">
      <!-- 40 -->
      <g transform="translate(649.211821 970.996094)scale(0.25 -0.25)">
       <defs>
        <path id="DejaVuSans-34" d="M 2419 4116 
L 825 1625 
L 2419 1625 
L 2419 4116 
z
M 2253 4666 
L 3047 4666 
L 3047 1625 
L 3713 1625 
L 3713 1100 
L 3047 1100 
L 3047 0 
L 2419 0 
L 2419 1100 
L 313 1100 
L 313 1709 
L 2253 4666 
z
" transform="scale(0.015625)"/>
       </defs>
       <use xlink:href="#DejaVuSans-34"/>
       <use xlink:href="#DejaVuSans-30" x="63.623047"/>
      </g>
     </g>
    </g>
    <g id="xtick_5">
     <g id="line2d_9">
      <path d="M 810.156735 945 
L 810.156735 129.6 
" clip-path="url(#p52007f7a8a)" style="fill: none; stroke: #b0b0b0; stroke-width: 0.8; stroke-linecap: square"/>
     </g>
     <g id="line2d_10">
      <g>
       <use xlink:href="#m93e1ef777a" x="810.156735" y="945" style="stroke: #000000; stroke-width: 0.8"/>
      </g>
     </g>
     <g id="text_5">
      <!-- 50 -->
      <g transform="translate(794.250485 970.996094)scale(0.25 -0.25)">
       <defs>
        <path id="DejaVuSans-35" d="M 691 4666 
L 3169 4666 
L 3169 4134 
L 1269 4134 
L 1269 2991 
Q 1406 3038 1543 3061 
Q 1681 3084 1819 3084 
Q 2600 3084 3056 2656 
Q 3513 2228 3513 1497 
Q 3513 744 3044 326 
Q 2575 -91 1722 -91 
Q 1428 -91 1123 -41 
Q 819 9 494 109 
L 494 744 
Q 775 591 1075 516 
Q 1375 441 1709 441 
Q 2250 441 2565 725 
Q 2881 1009 2881 1497 
Q 2881 1984 2565 2268 
Q 2250 2553 1709 2553 
Q 1456 2553 1204 2497 
Q 953 2441 691 2322 
L 691 4666 
z
" transform="scale(0.015625)"/>
       </defs>
       <use xlink:href="#DejaVuSans-35"/>
       <use xlink:href="#DejaVuSans-30" x="63.623047"/>
      </g>
     </g>
    </g>
    <g id="xtick_6">
     <g id="line2d_11">
      <path d="M 955.195399 945 
L 955.195399 129.6 
" clip-path="url(#p52007f7a8a)" style="fill: none; stroke: #b0b0b0; stroke-width: 0.8; stroke-linecap: square"/>
     </g>
     <g id="line2d_12">
      <g>
       <use xlink:href="#m93e1ef777a" x="955.195399" y="945" style="stroke: #000000; stroke-width: 0.8"/>
      </g>
     </g>
     <g id="text_6">
      <!-- 60 -->
      <g transform="translate(939.289149 970.996094)scale(0.25 -0.25)">
       <defs>
        <path id="DejaVuSans-36" d="M 2113 2584 
Q 1688 2584 1439 2293 
Q 1191 2003 1191 1497 
Q 1191 994 1439 701 
Q 1688 409 2113 409 
Q 2538 409 2786 701 
Q 3034 994 3034 1497 
Q 3034 2003 2786 2293 
Q 2538 2584 2113 2584 
z
M 3366 4563 
L 3366 3988 
Q 3128 4100 2886 4159 
Q 2644 4219 2406 4219 
Q 1781 4219 1451 3797 
Q 1122 3375 1075 2522 
Q 1259 2794 1537 2939 
Q 1816 3084 2150 3084 
Q 2853 3084 3261 2657 
Q 3669 2231 3669 1497 
Q 3669 778 3244 343 
Q 2819 -91 2113 -91 
Q 1303 -91 875 529 
Q 447 1150 447 2328 
Q 447 3434 972 4092 
Q 1497 4750 2381 4750 
Q 2619 4750 2861 4703 
Q 3103 4656 3366 4563 
z
" transform="scale(0.015625)"/>
       </defs>
       <use xlink:href="#DejaVuSans-36"/>
       <use xlink:href="#DejaVuSans-30" x="63.623047"/>
      </g>
     </g>
    </g>
    <g id="xtick_7">
     <g id="line2d_13">
      <path d="M 1100.234063 945 
L 1100.234063 129.6 
" clip-path="url(#p52007f7a8a)" style="fill: none; stroke: #b0b0b0; stroke-width: 0.8; stroke-linecap: square"/>
     </g>
     <g id="line2d_14">
      <g>
       <use xlink:href="#m93e1ef777a" x="1100.234063" y="945" style="stroke: #000000; stroke-width: 0.8"/>
      </g>
     </g>
     <g id="text_7">
      <!-- 70 -->
      <g transform="translate(1084.327813 970.996094)scale(0.25 -0.25)">
       <defs>
        <path id="DejaVuSans-37" d="M 525 4666 
L 3525 4666 
L 3525 4397 
L 1831 0 
L 1172 0 
L 2766 4134 
L 525 4134 
L 525 4666 
z
" transform="scale(0.015625)"/>
       </defs>
       <use xlink:href="#DejaVuSans-37"/>
       <use xlink:href="#DejaVuSans-30" x="63.623047"/>
      </g>
     </g>
    </g>
    <g id="xtick_8">
     <g id="line2d_15">
      <path d="M 1245.272727 945 
L 1245.272727 129.6 
" clip-path="url(#p52007f7a8a)" style="fill: none; stroke: #b0b0b0; stroke-width: 0.8; stroke-linecap: square"/>
     </g>
     <g id="line2d_16">
      <g>
       <use xlink:href="#m93e1ef777a" x="1245.272727" y="945" style="stroke: #000000; stroke-width: 0.8"/>
      </g>
     </g>
     <g id="text_8">
      <!-- 80 -->
      <g transform="translate(1229.366477 970.996094)scale(0.25 -0.25)">
       <defs>
        <path id="DejaVuSans-38" d="M 2034 2216 
Q 1584 2216 1326 1975 
Q 1069 1734 1069 1313 
Q 1069 891 1326 650 
Q 1584 409 2034 409 
Q 2484 409 2743 651 
Q 3003 894 3003 1313 
Q 3003 1734 2745 1975 
Q 2488 2216 2034 2216 
z
M 1403 2484 
Q 997 2584 770 2862 
Q 544 3141 544 3541 
Q 544 4100 942 4425 
Q 1341 4750 2034 4750 
Q 2731 4750 3128 4425 
Q 3525 4100 3525 3541 
Q 3525 3141 3298 2862 
Q 3072 2584 2669 2484 
Q 3125 2378 3379 2068 
Q 3634 1759 3634 1313 
Q 3634 634 3220 271 
Q 2806 -91 2034 -91 
Q 1263 -91 848 271 
Q 434 634 434 1313 
Q 434 1759 690 2068 
Q 947 2378 1403 2484 
z
M 1172 3481 
Q 1172 3119 1398 2916 
Q 1625 2713 2034 2713 
Q 2441 2713 2670 2916 
Q 2900 3119 2900 3481 
Q 2900 3844 2670 4047 
Q 2441 4250 2034 4250 
Q 1625 4250 1398 4047 
Q 1172 3844 1172 3481 
z
" transform="scale(0.015625)"/>
       </defs>
       <use xlink:href="#DejaVuSans-38"/>
       <use xlink:href="#DejaVuSans-30" x="63.623047"/>
      </g>
     </g>
    </g>
    <g id="text_9">
     <!-- Ángulo 2θ [°] -->
     <g transform="translate(638.397656 1007.95)scale(0.3 -0.3)">
      <defs>
       <path id="DejaVuSans-c1" d="M 2188 4044 
L 1331 1722 
L 3047 1722 
L 2188 4044 
z
M 1831 4666 
L 2547 4666 
L 4325 0 
L 3669 0 
L 3244 1197 
L 1141 1197 
L 716 0 
L 50 0 
L 1831 4666 
z
M 2356 5921 
L 2934 5921 
L 2222 5096 
L 1743 5096 
L 2356 5921 
z
" transform="scale(0.015625)"/>
       <path id="DejaVuSans-6e" d="M 3513 2113 
L 3513 0 
L 2938 0 
L 2938 2094 
Q 2938 2591 2744 2837 
Q 2550 3084 2163 3084 
Q 1697 3084 1428 2787 
Q 1159 2491 1159 1978 
L 1159 0 
L 581 0 
L 581 3500 
L 1159 3500 
L 1159 2956 
Q 1366 3272 1645 3428 
Q 1925 3584 2291 3584 
Q 2894 3584 3203 3211 
Q 3513 2838 3513 2113 
z
" transform="scale(0.015625)"/>
       <path id="DejaVuSans-67" d="M 2906 1791 
Q 2906 2416 2648 2759 
Q 2391 3103 1925 3103 
Q 1463 3103 1205 2759 
Q 947 2416 947 1791 
Q 947 1169 1205 825 
Q 1463 481 1925 481 
Q 2391 481 2648 825 
Q 2906 1169 2906 1791 
z
M 3481 434 
Q 3481 -459 3084 -895 
Q 2688 -1331 1869 -1331 
Q 1566 -1331 1297 -1286 
Q 1028 -1241 775 -1147 
L 775 -588 
Q 1028 -725 1275 -790 
Q 1522 -856 1778 -856 
Q 2344 -856 2625 -561 
Q 2906 -266 2906 331 
L 2906 616 
Q 2728 306 2450 153 
Q 2172 0 1784 0 
Q 1141 0 747 490 
Q 353 981 353 1791 
Q 353 2603 747 3093 
Q 1141 3584 1784 3584 
Q 2172 3584 2450 3431 
Q 2728 3278 2906 2969 
L 2906 3500 
L 3481 3500 
L 3481 434 
z
" transform="scale(0.015625)"/>
       <path id="DejaVuSans-75" d="M 544 1381 
L 544 3500 
L 1119 3500 
L 1119 1403 
Q 1119 906 1312 657 
Q 1506 409 1894 409 
Q 2359 409 2629 706 
Q 2900 1003 2900 1516 
L 2900 3500 
L 3475 3500 
L 3475 0 
L 2900 0 
L 2900 538 
Q 2691 219 2414 64 
Q 2138 -91 1772 -91 
Q 1169 -91 856 284 
Q 544 659 544 1381 
z
M 1991 3584 
L 1991 3584 
z
" transform="scale(0.015625)"/>
       <path id="DejaVuSans-6c" d="M 603 4863 
L 1178 4863 
L 1178 0 
L 603 0 
L 603 4863 
z
" transform="scale(0.015625)"/>
       <path id="DejaVuSans-6f" d="M 1959 3097 
Q 1497 3097 1228 2736 
Q 959 2375 959 1747 
Q 959 1119 1226 758 
Q 1494 397 1959 397 
Q 2419 397 2687 759 
Q 2956 1122 2956 1747 
Q 2956 2369 2687 2733 
Q 2419 3097 1959 3097 
z
M 1959 3584 
Q 2709 3584 3137 3096 
Q 3566 2609 3566 1747 
Q 3566 888 3137 398 
Q 2709 -91 1959 -91 
Q 1206 -91 779 398 
Q 353 888 353 1747 
Q 353 2609 779 3096 
Q 1206 3584 1959 3584 
z
" transform="scale(0.015625)"/>
       <path id="DejaVuSans-20" transform="scale(0.015625)"/>
       <path id="DejaVuSans-3b8" d="M 2953 2219 
L 963 2219 
Q 1009 1284 1225 888 
Q 1494 400 1959 400 
Q 2428 400 2688 891 
Q 2916 1322 2953 2219 
z
M 2944 2750 
Q 2856 3638 2688 3950 
Q 2419 4444 1959 4444 
Q 1481 4444 1228 3956 
Q 1028 3563 969 2750 
L 2944 2750 
z
M 1959 4913 
Q 2709 4913 3138 4250 
Q 3566 3591 3566 2422 
Q 3566 1256 3138 594 
Q 2709 -72 1959 -72 
Q 1206 -72 781 594 
Q 353 1256 353 2422 
Q 353 3591 781 4250 
Q 1206 4913 1959 4913 
z
" transform="scale(0.015625)"/>
       <path id="DejaVuSans-5b" d="M 550 4863 
L 1875 4863 
L 1875 4416 
L 1125 4416 
L 1125 -397 
L 1875 -397 
L 1875 -844 
L 550 -844 
L 550 4863 
z
" transform="scale(0.015625)"/>
       <path id="DejaVuSans-b0" d="M 1600 4347 
Q 1350 4347 1178 4173 
Q 1006 4000 1006 3750 
Q 1006 3503 1178 3333 
Q 1350 3163 1600 3163 
Q 1850 3163 2022 3333 
Q 2194 3503 2194 3750 
Q 2194 3997 2020 4172 
Q 1847 4347 1600 4347 
z
M 1600 4750 
Q 1800 4750 1984 4673 
Q 2169 4597 2303 4453 
Q 2447 4313 2519 4134 
Q 2591 3956 2591 3750 
Q 2591 3338 2302 3052 
Q 2013 2766 1594 2766 
Q 1172 2766 890 3047 
Q 609 3328 609 3750 
Q 609 4169 896 4459 
Q 1184 4750 1600 4750 
z
" transform="scale(0.015625)"/>
       <path id="DejaVuSans-5d" d="M 1947 4863 
L 1947 -844 
L 622 -844 
L 622 -397 
L 1369 -397 
L 1369 4416 
L 622 4416 
L 622 4863 
L 1947 4863 
z
" transform="scale(0.015625)"/>
      </defs>
      <use xlink:href="#DejaVuSans-c1"/>
      <use xlink:href="#DejaVuSans-6e" x="68.408203"/>
      <use xlink:href="#DejaVuSans-67" x="131.787109"/>
      <use xlink:href="#DejaVuSans-75" x="195.263672"/>
      <use xlink:href="#DejaVuSans-6c" x="258.642578"/>
      <use xlink:href="#DejaVuSans-6f" x="286.425781"/>
      <use xlink:href="#DejaVuSans-20" x="347.607422"/>
      <use xlink:href="#DejaVuSans-32" x="379.394531"/>
      <use xlink:href="#DejaVuSans-3b8" x="443.017578"/>
      <use xlink:href="#DejaVuSans-20" x="504.199219"/>
      <use xlink:href="#DejaVuSans-5b" x="535.986328"/>
      <use xlink:href="#DejaVuSans-b0" x="575"/>
      <use xlink:href="#DejaVuSans-5d" x="625"/>
     </g>
    </g>
   </g>
   <g id="matplotlib.axis_2">
    <g id="ytick_1">
     <g id="line2d_17">
      <path d="M 180 945 
L 1296 945 
" clip-path="url(#p52007f7a8a)" style="fill: none; stroke: #b0b0b0; stroke-width: 0.8; stroke-linecap: square"/>
     </g>
     <g id="line2d_18">
      <defs>
       <path id="m6550f7aca5" d="M 0 0 
L -3.5 0 
" style="stroke: #000000; stroke-width: 0.8"/>
      </defs>
      <g>
       <use xlink:href="#m6550f7aca5" x="180" y="945" style="stroke: #000000; stroke-width: 0.8"/>
      </g>
     </g>
     <g id="text_10">
      <!-- 0 -->
      <g transform="translate(157.09375 954.498047)scale(0.25 -0.25)">
       <use xlink:href="#DejaVuSans-30"/>
      </g>
     </g>
    </g>
    <g id="ytick_2">
     <g id="line2d_19">
      <path d="M 180 847.928571 
L 1296 847.928571 
" clip-path="url(#p52007f7a8a)" style="fill: none; stroke: #b0b0b0; stroke-width: 0.8; stroke-linecap: square"/>
     </g>
     <g id="line2d_20">
      <g>
       <use xlink:href="#m6550f7aca5" x="180" y="847.928571" style="stroke: #000000; stroke-width: 0.8"/>
      </g>
     </g>
     <g id="text_11">
      <!-- 250 -->
      <g transform="translate(125.28125 857.426618)scale(0.25 -0.25)">
       <use xlink:href="#DejaVuSans-32"/>
       <use xlink:href="#DejaVuSans-35" x="63.623047"/>
       <use xlink:href="#DejaVuSans-30" x="127.246094"/>
      </g>
     </g>
    </g>
    <g id="ytick_3">
     <g id="line2d_21">
      <path d="M 180 750.857143 
L 1296 750.857143 
" clip-path="url(#p52007f7a8a)" style="fill: none; stroke: #b0b0b0; stroke-width: 0.8; stroke-linecap: square"/>
     </g>
     <g id="line2d_22">
      <g>
       <use xlink:href="#m6550f7aca5" x="180" y="750.857143" style="stroke: #000000; stroke-width: 0.8"/>
      </g>
     </g>
     <g id="text_12">
      <!-- 500 -->
      <g transform="translate(125.28125 760.35519)scale(0.25 -0.25)">
       <use xlink:href="#DejaVuSans-35"/>
       <use xlink:href="#DejaVuSans-30" x="63.623047"/>
       <use xlink:href="#DejaVuSans-30" x="127.246094"/>
      </g>
     </g>
    </g>
    <g id="ytick_4">
     <g id="line2d_23">
      <path d="M 180 653.785714 
L 1296 653.785714 
" clip-path="url(#p52007f7a8a)" style="fill: none; stroke: #b0b0b0; stroke-width: 0.8; stroke-linecap: square"/>
     </g>
     <g id="line2d_24">
      <g>
       <use xlink:href="#m6550f7aca5" x="180" y="653.785714" style="stroke: #000000; stroke-width: 0.8"/>
      </g>
     </g>
     <g id="text_13">
      <!-- 750 -->
      <g transform="translate(125.28125 663.283761)scale(0.25 -0.25)">
       <use xlink:href="#DejaVuSans-37"/>
       <use xlink:href="#DejaVuSans-35" x="63.623047"/>
       <use xlink:href="#DejaVuSans-30" x="127.246094"/>
      </g>
     </g>
    </g>
    <g id="ytick_5">
     <g id="line2d_25">
      <path d="M 180 556.714286 
L 1296 556.714286 
" clip-path="url(#p52007f7a8a)" style="fill: none; stroke: #b0b0b0; stroke-width: 0.8; stroke-linecap: square"/>
     </g>
     <g id="line2d_26">
      <g>
       <use xlink:href="#m6550f7aca5" x="180" y="556.714286" style="stroke: #000000; stroke-width: 0.8"/>
      </g>
     </g>
     <g id="text_14">
      <!-- 1000 -->
      <g transform="translate(109.375 566.212333)scale(0.25 -0.25)">
       <use xlink:href="#DejaVuSans-31"/>
       <use xlink:href="#DejaVuSans-30" x="63.623047"/>
       <use xlink:href="#DejaVuSans-30" x="127.246094"/>
       <use xlink:href="#DejaVuSans-30" x="190.869141"/>
      </g>
     </g>
    </g>
    <g id="ytick_6">
     <g id="line2d_27">
      <path d="M 180 459.642857 
L 1296 459.642857 
" clip-path="url(#p52007f7a8a)" style="fill: none; stroke: #b0b0b0; stroke-width: 0.8; stroke-linecap: square"/>
     </g>
     <g id="line2d_28">
      <g>
       <use xlink:href="#m6550f7aca5" x="180" y="459.642857" style="stroke: #000000; stroke-width: 0.8"/>
      </g>
     </g>
     <g id="text_15">
      <!-- 1250 -->
      <g transform="translate(109.375 469.140904)scale(0.25 -0.25)">
       <use xlink:href="#DejaVuSans-31"/>
       <use xlink:href="#DejaVuSans-32" x="63.623047"/>
       <use xlink:href="#DejaVuSans-35" x="127.246094"/>
       <use xlink:href="#DejaVuSans-30" x="190.869141"/>
      </g>
     </g>
    </g>
    <g id="ytick_7">
     <g id="line2d_29">
      <path d="M 180 362.571429 
L 1296 362.571429 
" clip-path="url(#p52007f7a8a)" style="fill: none; stroke: #b0b0b0; stroke-width: 0.8; stroke-linecap: square"/>
     </g>
     <g id="line2d_30">
      <g>
       <use xlink:href="#m6550f7aca5" x="180" y="362.571429" style="stroke: #000000; stroke-width: 0.8"/>
      </g>
     </g>
     <g id="text_16">
      <!-- 1500 -->
      <g transform="translate(109.375 372.069475)scale(0.25 -0.25)">
       <use xlink:href="#DejaVuSans-31"/>
       <use xlink:href="#DejaVuSans-35" x="63.623047"/>
       <use xlink:href="#DejaVuSans-30" x="127.246094"/>
       <use xlink:href="#DejaVuSans-30" x="190.869141"/>
      </g>
     </g>
    </g>
    <g id="ytick_8">
     <g id="line2d_31">
      <path d="M 180 265.5 
L 1296 265.5 
" clip-path="url(#p52007f7a8a)" style="fill: none; stroke: #b0b0b0; stroke-width: 0.8; stroke-linecap: square"/>
     </g>
     <g id="line2d_32">
      <g>
       <use xlink:href="#m6550f7aca5" x="180" y="265.5" style="stroke: #000000; stroke-width: 0.8"/>
      </g>
     </g>
     <g id="text_17">
      <!-- 1750 -->
      <g transform="translate(109.375 274.998047)scale(0.25 -0.25)">
       <use xlink:href="#DejaVuSans-31"/>
       <use xlink:href="#DejaVuSans-37" x="63.623047"/>
       <use xlink:href="#DejaVuSans-35" x="127.246094"/>
       <use xlink:href="#DejaVuSans-30" x="190.869141"/>
      </g>
     </g>
    </g>
    <g id="ytick_9">
     <g id="line2d_33">
      <path d="M 180 168.428571 
L 1296 168.428571 
" clip-path="url(#p52007f7a8a)" style="fill: none; stroke: #b0b0b0; stroke-width: 0.8; stroke-linecap: square"/>
     </g>
     <g id="line2d_34">
      <g>
       <use xlink:href="#m6550f7aca5" x="180" y="168.428571" style="stroke: #000000; stroke-width: 0.8"/>
      </g>
     </g>
     <g id="text_18">
      <!-- 2000 -->
      <g transform="translate(109.375 177.926618)scale(0.25 -0.25)">
       <use xlink:href="#DejaVuSans-32"/>
       <use xlink:href="#DejaVuSans-30" x="63.623047"/>
       <use xlink:href="#DejaVuSans-30" x="127.246094"/>
       <use xlink:href="#DejaVuSans-30" x="190.869141"/>
      </g>
     </g>
    </g>
    <g id="text_19">
     <!-- Intensidad [u.a.] -->
     <g transform="translate(99.135937 660.771094)rotate(-90)scale(0.3 -0.3)">
      <defs>
       <path id="DejaVuSans-49" d="M 628 4666 
L 1259 4666 
L 1259 0 
L 628 0 
L 628 4666 
z
" transform="scale(0.015625)"/>
       <path id="DejaVuSans-74" d="M 1172 4494 
L 1172 3500 
L 2356 3500 
L 2356 3053 
L 1172 3053 
L 1172 1153 
Q 1172 725 1289 603 
Q 1406 481 1766 481 
L 2356 481 
L 2356 0 
L 1766 0 
Q 1100 0 847 248 
Q 594 497 594 1153 
L 594 3053 
L 172 3053 
L 172 3500 
L 594 3500 
L 594 4494 
L 1172 4494 
z
" transform="scale(0.015625)"/>
       <path id="DejaVuSans-65" d="M 3597 1894 
L 3597 1613 
L 953 1613 
Q 991 1019 1311 708 
Q 1631 397 2203 397 
Q 2534 397 2845 478 
Q 3156 559 3463 722 
L 3463 178 
Q 3153 47 2828 -22 
Q 2503 -91 2169 -91 
Q 1331 -91 842 396 
Q 353 884 353 1716 
Q 353 2575 817 3079 
Q 1281 3584 2069 3584 
Q 2775 3584 3186 3129 
Q 3597 2675 3597 1894 
z
M 3022 2063 
Q 3016 2534 2758 2815 
Q 2500 3097 2075 3097 
Q 1594 3097 1305 2825 
Q 1016 2553 972 2059 
L 3022 2063 
z
" transform="scale(0.015625)"/>
       <path id="DejaVuSans-73" d="M 2834 3397 
L 2834 2853 
Q 2591 2978 2328 3040 
Q 2066 3103 1784 3103 
Q 1356 3103 1142 2972 
Q 928 2841 928 2578 
Q 928 2378 1081 2264 
Q 1234 2150 1697 2047 
L 1894 2003 
Q 2506 1872 2764 1633 
Q 3022 1394 3022 966 
Q 3022 478 2636 193 
Q 2250 -91 1575 -91 
Q 1294 -91 989 -36 
Q 684 19 347 128 
L 347 722 
Q 666 556 975 473 
Q 1284 391 1588 391 
Q 1994 391 2212 530 
Q 2431 669 2431 922 
Q 2431 1156 2273 1281 
Q 2116 1406 1581 1522 
L 1381 1569 
Q 847 1681 609 1914 
Q 372 2147 372 2553 
Q 372 3047 722 3315 
Q 1072 3584 1716 3584 
Q 2034 3584 2315 3537 
Q 2597 3491 2834 3397 
z
" transform="scale(0.015625)"/>
       <path id="DejaVuSans-69" d="M 603 3500 
L 1178 3500 
L 1178 0 
L 603 0 
L 603 3500 
z
M 603 4863 
L 1178 4863 
L 1178 4134 
L 603 4134 
L 603 4863 
z
" transform="scale(0.015625)"/>
       <path id="DejaVuSans-64" d="M 2906 2969 
L 2906 4863 
L 3481 4863 
L 3481 0 
L 2906 0 
L 2906 525 
Q 2725 213 2448 61 
Q 2172 -91 1784 -91 
Q 1150 -91 751 415 
Q 353 922 353 1747 
Q 353 2572 751 3078 
Q 1150 3584 1784 3584 
Q 2172 3584 2448 3432 
Q 2725 3281 2906 2969 
z
M 947 1747 
Q 947 1113 1208 752 
Q 1469 391 1925 391 
Q 2381 391 2643 752 
Q 2906 1113 2906 1747 
Q 2906 2381 2643 2742 
Q 2381 3103 1925 3103 
Q 1469 3103 1208 2742 
Q 947 2381 947 1747 
z
" transform="scale(0.015625)"/>
       <path id="DejaVuSans-61" d="M 2194 1759 
Q 1497 1759 1228 1600 
Q 959 1441 959 1056 
Q 959 750 1161 570 
Q 1363 391 1709 391 
Q 2188 391 2477 730 
Q 2766 1069 2766 1631 
L 2766 1759 
L 2194 1759 
z
M 3341 1997 
L 3341 0 
L 2766 0 
L 2766 531 
Q 2569 213 2275 61 
Q 1981 -91 1556 -91 
Q 1019 -91 701 211 
Q 384 513 384 1019 
Q 384 1609 779 1909 
Q 1175 2209 1959 2209 
L 2766 2209 
L 2766 2266 
Q 2766 2663 2505 2880 
Q 2244 3097 1772 3097 
Q 1472 3097 1187 3025 
Q 903 2953 641 2809 
L 641 3341 
Q 956 3463 1253 3523 
Q 1550 3584 1831 3584 
Q 2591 3584 2966 3190 
Q 3341 2797 3341 1997 
z
" transform="scale(0.015625)"/>
       <path id="DejaVuSans-2e" d="M 684 794 
L 1344 794 
L 1344 0 
L 684 0 
L 684 794 
z
" transform="scale(0.015625)"/>
      </defs>
      <use xlink:href="#DejaVuSans-49"/>
      <use xlink:href="#DejaVuSans-6e" x="29.492188"/>
      <use xlink:href="#DejaVuSans-74" x="92.871094"/>
      <use xlink:href="#DejaVuSans-65" x="132.080078"/>
      <use xlink:href="#DejaVuSans-6e" x="193.603516"/>
      <use xlink:href="#DejaVuSans-73" x="256.982422"/>
      <use xlink:href="#DejaVuSans-69" x="309.082031"/>
      <use xlink:href="#DejaVuSans-64" x="336.865234"/>
      <use xlink:href="#DejaVuSans-61" x="400.341797"/>
      <use xlink:href="#DejaVuSans-64" x="461.621094"/>
      <use xlink:href="#DejaVuSans-20" x="525.097656"/>
      <use xlink:href="#DejaVuSans-5b" x="556.884766"/>
      <use xlink:href="#DejaVuSans-75" x="595.898438"/>
      <use xlink:href="#DejaVuSans-2e" x="659.277344"/>
      <use xlink:href="#DejaVuSans-61" x="691.064453"/>
      <use xlink:href="#DejaVuSans-2e" x="752.34375"/>
      <use xlink:href="#DejaVuSans-5d" x="784.130859"/>
     </g>
    </g>
   </g>
   <g id="line2d_35">
    <path d="M 230.727273 908.501143 
L 231.452466 911.607429 
L 232.177659 908.112857 
L 232.902853 908.112857 
L 234.353239 902.288571 
L 235.078433 913.548857 
L 235.803626 915.878571 
L 236.528819 908.112857 
L 237.254013 910.054286 
L 237.979206 913.937143 
L 238.704399 918.596571 
L 239.429593 912.384 
L 240.154786 916.655143 
L 240.879979 915.490286 
L 241.605173 906.948 
L 242.330366 909.666 
L 243.055559 911.607429 
L 243.780752 914.713714 
L 244.505946 907.724571 
L 245.231139 907.336286 
L 245.956332 905.394857 
L 246.681526 915.878571 
L 247.406719 911.995714 
L 248.131912 915.490286 
L 248.857106 914.713714 
L 249.582299 916.655143 
L 250.307492 915.878571 
L 251.032686 916.655143 
L 252.483072 911.607429 
L 253.208266 915.878571 
L 253.933459 912.384 
L 254.658652 915.102 
L 255.383846 913.160571 
L 256.109039 917.043429 
L 256.834232 919.373143 
L 257.559426 911.995714 
L 258.284619 906.559714 
L 259.009812 917.043429 
L 260.460199 913.160571 
L 261.185392 914.325429 
L 261.910585 908.501143 
L 262.635779 910.054286 
L 263.360972 915.490286 
L 264.086165 911.219143 
L 264.811359 913.160571 
L 265.536552 905.394857 
L 266.261745 909.277714 
L 266.986939 905.394857 
L 267.712132 912.772286 
L 268.437325 907.336286 
L 269.162519 911.607429 
L 269.887712 913.937143 
L 270.612905 917.043429 
L 271.338099 915.490286 
L 272.063292 913.160571 
L 272.788485 916.266857 
L 273.513679 914.713714 
L 274.238872 919.373143 
L 274.964065 911.995714 
L 275.689259 919.373143 
L 276.414452 916.266857 
L 277.139645 920.149714 
L 277.864839 911.995714 
L 278.590032 915.490286 
L 279.315225 918.208286 
L 280.040418 916.266857 
L 280.765612 915.878571 
L 281.490805 919.761429 
L 282.215998 922.479429 
L 282.941192 917.043429 
L 283.666385 917.431714 
L 284.391578 915.102 
L 285.116772 917.82 
L 285.841965 921.314571 
L 286.567158 914.325429 
L 287.292352 915.878571 
L 288.017545 914.325429 
L 288.742738 922.091143 
L 289.467932 918.984857 
L 290.193125 919.373143 
L 290.918318 915.878571 
L 291.643512 919.761429 
L 292.368705 916.655143 
L 293.093898 926.362286 
L 293.819092 918.208286 
L 294.544285 915.878571 
L 295.269478 919.373143 
L 295.994672 914.325429 
L 296.719865 923.644286 
L 297.445058 917.043429 
L 298.170251 916.655143 
L 298.895445 922.479429 
L 299.620638 921.702857 
L 300.345831 918.208286 
L 301.071025 918.596571 
L 301.796218 918.208286 
L 302.521411 920.926286 
L 303.246605 925.197429 
L 303.971798 915.878571 
L 304.696991 926.362286 
L 305.422185 914.713714 
L 306.872571 917.043429 
L 307.597765 917.431714 
L 308.322958 920.538 
L 309.048151 917.431714 
L 309.773345 922.479429 
L 310.498538 922.479429 
L 311.223731 920.149714 
L 311.948925 925.974 
L 312.674118 923.644286 
L 314.124505 915.490286 
L 314.849698 915.102 
L 315.574891 927.527143 
L 316.300084 919.761429 
L 317.025278 922.867714 
L 317.750471 921.314571 
L 318.475664 920.149714 
L 319.200858 922.091143 
L 319.926051 922.091143 
L 320.651244 920.149714 
L 321.376438 921.314571 
L 322.101631 920.926286 
L 322.826824 924.032571 
L 323.552018 924.032571 
L 324.277211 918.208286 
L 325.002404 919.373143 
L 325.727598 922.479429 
L 326.452791 920.149714 
L 327.177984 921.314571 
L 327.903178 923.256 
L 328.628371 915.102 
L 329.353564 921.314571 
L 330.078758 924.032571 
L 330.803951 918.984857 
L 331.529144 923.644286 
L 332.254338 921.702857 
L 332.979531 922.867714 
L 333.704724 922.091143 
L 334.429917 923.256 
L 335.155111 921.702857 
L 335.880304 927.527143 
L 336.605497 923.644286 
L 337.330691 924.032571 
L 338.055884 921.702857 
L 338.781077 925.197429 
L 339.506271 922.479429 
L 340.231464 925.197429 
L 340.956657 920.926286 
L 341.681851 923.256 
L 342.407044 923.644286 
L 343.132237 921.314571 
L 343.857431 919.373143 
L 344.582624 922.479429 
L 345.307817 922.867714 
L 346.033011 920.538 
L 346.758204 922.867714 
L 347.483397 923.644286 
L 348.208591 921.702857 
L 348.933784 924.420857 
L 349.658977 920.149714 
L 350.384171 924.809143 
L 351.109364 918.984857 
L 351.834557 929.468571 
L 352.55975 924.809143 
L 353.284944 922.867714 
L 354.010137 924.032571 
L 354.73533 916.266857 
L 355.460524 922.091143 
L 356.185717 921.702857 
L 356.91091 925.974 
L 357.636104 924.032571 
L 358.361297 922.479429 
L 359.08649 922.479429 
L 359.811684 920.926286 
L 360.536877 920.149714 
L 361.26207 925.585714 
L 361.987264 921.314571 
L 362.712457 920.926286 
L 363.43765 924.809143 
L 364.162844 924.809143 
L 364.888037 927.138857 
L 365.61323 919.373143 
L 366.338424 925.585714 
L 367.063617 927.138857 
L 367.78881 919.373143 
L 368.514004 921.702857 
L 369.239197 922.479429 
L 369.96439 917.043429 
L 370.689583 920.926286 
L 371.414777 921.702857 
L 372.13997 920.149714 
L 372.865163 925.197429 
L 373.590357 912.384 
L 374.31555 923.644286 
L 375.040743 918.596571 
L 375.765937 922.867714 
L 376.49113 921.702857 
L 377.216323 917.431714 
L 377.941517 918.984857 
L 378.66671 922.867714 
L 379.391903 925.974 
L 380.117097 917.82 
L 381.567483 921.702857 
L 382.292677 922.091143 
L 383.01787 926.750571 
L 383.743063 924.032571 
L 384.468257 920.538 
L 385.19345 923.644286 
L 385.918643 918.984857 
L 386.643837 920.538 
L 387.36903 921.702857 
L 388.094223 918.596571 
L 388.819416 924.809143 
L 389.54461 916.655143 
L 390.269803 917.043429 
L 390.994996 920.538 
L 391.72019 920.926286 
L 392.445383 919.373143 
L 393.170576 918.596571 
L 393.89577 927.527143 
L 394.620963 921.314571 
L 395.346156 924.809143 
L 396.796543 915.102 
L 397.521736 920.926286 
L 398.24693 916.266857 
L 398.972123 921.314571 
L 399.697316 915.490286 
L 400.42251 916.655143 
L 401.147703 916.655143 
L 401.872896 917.82 
L 402.59809 918.596571 
L 403.323283 918.984857 
L 404.048476 916.655143 
L 404.77367 915.490286 
L 405.498863 923.256 
L 406.224056 918.596571 
L 406.949249 917.431714 
L 407.674443 923.644286 
L 408.399636 922.091143 
L 409.124829 919.373143 
L 409.850023 921.702857 
L 410.575216 919.761429 
L 411.300409 924.032571 
L 412.025603 917.82 
L 412.750796 917.82 
L 413.475989 914.713714 
L 414.201183 918.984857 
L 414.926376 921.314571 
L 415.651569 919.761429 
L 417.101956 915.878571 
L 417.827149 914.713714 
L 419.277536 922.867714 
L 420.002729 914.325429 
L 420.727923 913.160571 
L 421.453116 915.878571 
L 422.178309 924.809143 
L 422.903503 911.219143 
L 423.628696 911.607429 
L 424.353889 910.830857 
L 425.079082 915.878571 
L 425.804276 913.160571 
L 426.529469 909.277714 
L 427.254662 915.878571 
L 427.979856 909.277714 
L 428.705049 913.937143 
L 429.430242 920.926286 
L 430.155436 922.091143 
L 430.880629 919.373143 
L 431.605822 906.559714 
L 432.331016 905.783143 
L 433.056209 910.054286 
L 433.781402 910.442571 
L 434.506596 907.724571 
L 435.231789 908.889429 
L 435.956982 913.160571 
L 436.682176 906.171429 
L 437.407369 897.240857 
L 438.132562 903.453429 
L 438.857756 901.512 
L 439.582949 898.794 
L 440.308142 903.065143 
L 441.033335 899.182286 
L 441.758529 891.028286 
L 442.483722 888.310286 
L 443.208915 891.028286 
L 443.934109 875.496857 
L 444.659302 871.614 
L 445.384495 862.295143 
L 446.109689 841.716 
L 447.560075 792.403714 
L 448.285269 736.102286 
L 449.010462 669.317143 
L 449.735655 580.788 
L 450.460849 439.452 
L 451.186042 327.625714 
L 451.911235 233.272286 
L 452.636429 239.873143 
L 453.361622 274.042286 
L 454.086815 412.660286 
L 454.812009 521.768571 
L 455.537202 605.638286 
L 456.262395 708.922286 
L 457.712782 807.546857 
L 458.437975 839.386286 
L 459.163168 860.353714 
L 459.888362 872.390571 
L 460.613555 875.885143 
L 461.338748 887.922 
L 462.063942 891.804857 
L 462.789135 893.358 
L 463.514328 903.453429 
L 464.239522 899.182286 
L 464.964715 907.724571 
L 465.689908 901.512 
L 466.415102 904.618286 
L 467.140295 898.405714 
L 467.865488 905.394857 
L 468.590682 907.336286 
L 469.315875 907.336286 
L 470.041068 911.995714 
L 470.766262 908.889429 
L 471.491455 910.054286 
L 472.216648 915.878571 
L 472.941842 913.548857 
L 473.667035 902.288571 
L 474.392228 911.219143 
L 475.117422 910.830857 
L 475.842615 907.336286 
L 476.567808 912.384 
L 477.293001 903.841714 
L 478.018195 905.783143 
L 478.743388 902.288571 
L 479.468581 901.512 
L 480.918968 885.204 
L 481.644161 874.332 
L 482.369355 852.976286 
L 483.094548 814.924286 
L 483.819741 819.972 
L 484.544935 842.492571 
L 485.270128 872.390571 
L 485.995321 888.310286 
L 486.720515 898.405714 
L 487.445708 893.358 
L 488.170901 902.676857 
L 488.896095 918.984857 
L 489.621288 912.772286 
L 490.346481 909.666 
L 491.071675 910.054286 
L 491.796868 913.937143 
L 492.522061 914.325429 
L 493.247255 922.479429 
L 494.697641 909.277714 
L 495.422834 917.043429 
L 496.148028 913.160571 
L 496.873221 918.208286 
L 497.598414 918.208286 
L 498.323608 917.431714 
L 499.048801 918.596571 
L 499.773994 918.984857 
L 500.499188 915.490286 
L 501.224381 917.431714 
L 501.949574 918.984857 
L 502.674768 926.362286 
L 503.399961 921.314571 
L 504.125154 918.208286 
L 504.850348 913.160571 
L 505.575541 918.208286 
L 506.300734 917.043429 
L 507.025928 921.314571 
L 507.751121 920.538 
L 508.476314 917.431714 
L 509.926701 928.303714 
L 510.651894 912.384 
L 511.377088 920.149714 
L 512.102281 915.490286 
L 512.827474 917.431714 
L 513.552667 915.878571 
L 514.277861 920.538 
L 515.003054 920.149714 
L 515.728247 924.420857 
L 516.453441 917.043429 
L 517.178634 917.82 
L 517.903827 915.102 
L 518.629021 918.596571 
L 519.354214 914.713714 
L 520.079407 921.702857 
L 520.804601 920.538 
L 521.529794 924.420857 
L 522.254987 915.102 
L 522.980181 921.314571 
L 523.705374 920.149714 
L 524.430567 918.208286 
L 525.155761 922.867714 
L 525.880954 919.761429 
L 526.606147 920.149714 
L 527.331341 914.325429 
L 528.056534 919.761429 
L 528.781727 921.702857 
L 529.506921 916.655143 
L 530.232114 920.538 
L 530.957307 918.208286 
L 531.6825 918.596571 
L 532.407694 923.644286 
L 533.132887 911.219143 
L 533.85808 917.82 
L 534.583274 918.596571 
L 535.308467 919.761429 
L 536.03366 915.102 
L 536.758854 921.314571 
L 537.484047 918.984857 
L 538.20924 917.82 
L 538.934434 923.644286 
L 539.659627 919.373143 
L 540.38482 917.043429 
L 541.110014 924.809143 
L 541.835207 916.655143 
L 542.5604 921.702857 
L 543.285594 921.314571 
L 544.010787 918.984857 
L 544.73598 917.431714 
L 545.461174 918.208286 
L 546.186367 925.197429 
L 546.91156 917.82 
L 547.636754 919.761429 
L 549.08714 925.585714 
L 549.812333 925.585714 
L 550.537527 923.256 
L 551.26272 923.256 
L 551.987913 924.032571 
L 552.713107 921.702857 
L 553.4383 920.926286 
L 554.163493 919.761429 
L 554.888687 921.314571 
L 555.61388 913.937143 
L 556.339073 923.256 
L 557.064267 926.362286 
L 557.78946 920.149714 
L 558.514653 925.197429 
L 559.239847 920.538 
L 559.96504 920.926286 
L 560.690233 927.915429 
L 561.415427 918.984857 
L 562.865813 918.208286 
L 563.591007 924.032571 
L 564.3162 925.974 
L 565.041393 916.655143 
L 565.766587 920.149714 
L 566.49178 917.82 
L 567.216973 921.702857 
L 567.942166 920.538 
L 568.66736 922.479429 
L 569.392553 923.644286 
L 570.117746 922.867714 
L 570.84294 927.138857 
L 571.568133 922.479429 
L 572.293326 918.984857 
L 573.01852 927.527143 
L 573.743713 921.314571 
L 574.468906 922.867714 
L 575.1941 918.596571 
L 575.919293 923.644286 
L 576.644486 922.479429 
L 577.36968 922.479429 
L 578.094873 919.761429 
L 578.820066 922.091143 
L 579.54526 922.867714 
L 580.270453 929.468571 
L 580.995646 922.479429 
L 581.72084 922.867714 
L 582.446033 927.138857 
L 583.171226 918.984857 
L 583.89642 923.256 
L 584.621613 923.644286 
L 585.346806 923.644286 
L 586.071999 923.256 
L 586.797193 921.702857 
L 587.522386 923.256 
L 588.972773 923.256 
L 589.697966 932.574857 
L 590.423159 925.197429 
L 591.148353 922.479429 
L 591.873546 920.538 
L 592.598739 922.867714 
L 593.323933 925.974 
L 594.049126 923.644286 
L 594.774319 920.149714 
L 595.499513 928.692 
L 596.224706 927.138857 
L 596.949899 927.527143 
L 597.675093 925.197429 
L 598.400286 926.362286 
L 599.125479 926.750571 
L 599.850673 920.149714 
L 600.575866 919.761429 
L 601.301059 921.702857 
L 602.026253 922.479429 
L 602.751446 922.091143 
L 603.476639 919.761429 
L 604.201832 922.867714 
L 604.927026 918.208286 
L 605.652219 917.431714 
L 606.377412 912.772286 
L 607.102606 901.512 
L 607.827799 884.815714 
L 608.552992 886.757143 
L 609.278186 884.815714 
L 610.003379 891.416571 
L 610.728572 901.123714 
L 611.453766 906.559714 
L 612.178959 913.937143 
L 612.904152 920.149714 
L 613.629346 913.937143 
L 614.354539 915.878571 
L 615.079732 918.984857 
L 615.804926 919.761429 
L 616.530119 920.926286 
L 617.255312 917.043429 
L 618.705699 906.171429 
L 619.430892 905.783143 
L 620.156086 899.570571 
L 620.881279 898.794 
L 621.606472 881.709429 
L 622.331665 890.251714 
L 623.056859 902.288571 
L 623.782052 892.193143 
L 624.507245 901.123714 
L 625.232439 904.23 
L 625.957632 899.958857 
L 626.682825 907.336286 
L 627.408019 908.501143 
L 628.133212 905.006571 
L 628.858405 904.618286 
L 629.583599 896.852571 
L 630.308792 876.661714 
L 631.033985 872.778857 
L 631.759179 850.646571 
L 632.484372 838.609714 
L 633.209565 816.865714 
L 633.934759 825.796286 
L 634.659952 829.679143 
L 635.385145 830.067429 
L 636.835532 854.529429 
L 637.560725 880.544571 
L 638.285919 880.932857 
L 639.011112 891.416571 
L 639.736305 892.581429 
L 640.461498 899.958857 
L 641.186692 903.841714 
L 641.911885 903.453429 
L 642.637078 900.735429 
L 643.362272 891.028286 
L 644.087465 889.863429 
L 644.812658 889.475143 
L 645.537852 884.039143 
L 646.263045 890.251714 
L 646.988238 893.358 
L 647.713432 901.123714 
L 648.438625 910.442571 
L 649.163818 913.937143 
L 649.889012 920.926286 
L 650.614205 920.149714 
L 651.339398 916.266857 
L 652.064592 915.102 
L 652.789785 915.490286 
L 653.514978 915.490286 
L 654.240172 917.043429 
L 654.965365 922.867714 
L 655.690558 923.256 
L 656.415752 924.420857 
L 657.140945 925.197429 
L 657.866138 926.362286 
L 658.591331 920.926286 
L 659.316525 932.574857 
L 660.041718 929.468571 
L 660.766911 927.527143 
L 661.492105 930.245143 
L 662.217298 924.420857 
L 663.667685 931.021714 
L 664.392878 926.362286 
L 665.118071 927.915429 
L 665.843265 929.080286 
L 666.568458 930.633429 
L 667.293651 926.362286 
L 668.018845 931.021714 
L 668.744038 925.974 
L 669.469231 929.856857 
L 670.194425 927.527143 
L 670.919618 926.362286 
L 671.644811 929.468571 
L 673.095198 924.809143 
L 673.820391 927.527143 
L 674.545585 932.963143 
L 675.270778 929.080286 
L 675.995971 931.021714 
L 676.721164 927.915429 
L 677.446358 931.021714 
L 678.171551 927.527143 
L 678.896744 921.702857 
L 679.621938 929.468571 
L 680.347131 925.974 
L 681.072324 923.644286 
L 681.797518 915.102 
L 682.522711 913.937143 
L 683.247904 913.160571 
L 683.973098 910.442571 
L 684.698291 911.995714 
L 685.423484 916.655143 
L 686.148678 924.420857 
L 686.873871 924.032571 
L 687.599064 925.197429 
L 688.324258 927.527143 
L 689.049451 927.138857 
L 689.774644 928.692 
L 690.499838 923.256 
L 691.225031 926.362286 
L 691.950224 925.197429 
L 692.675418 925.197429 
L 693.400611 928.303714 
L 694.125804 929.468571 
L 694.850997 927.138857 
L 695.576191 931.021714 
L 696.301384 922.091143 
L 697.026577 926.362286 
L 697.751771 928.692 
L 698.476964 924.809143 
L 699.202157 925.585714 
L 700.652544 931.41 
L 701.377737 932.574857 
L 702.102931 930.245143 
L 702.828124 929.468571 
L 703.553317 928.303714 
L 704.278511 931.798286 
L 705.003704 930.245143 
L 705.728897 926.750571 
L 706.454091 929.468571 
L 707.179284 925.974 
L 707.904477 925.974 
L 708.629671 930.245143 
L 709.354864 930.245143 
L 710.080057 928.692 
L 710.805251 924.420857 
L 711.530444 926.750571 
L 712.255637 924.032571 
L 712.98083 929.080286 
L 713.706024 930.633429 
L 714.431217 928.692 
L 715.15641 926.362286 
L 715.881604 931.41 
L 716.606797 929.080286 
L 717.33199 928.303714 
L 718.057184 925.974 
L 718.782377 928.303714 
L 719.50757 929.468571 
L 720.232764 928.692 
L 720.957957 931.798286 
L 721.68315 928.303714 
L 722.408344 931.798286 
L 723.133537 919.373143 
L 723.85873 918.596571 
L 724.583924 923.644286 
L 725.309117 924.809143 
L 726.03431 922.867714 
L 726.759504 919.761429 
L 727.484697 926.362286 
L 728.20989 929.080286 
L 728.935084 927.527143 
L 729.660277 930.245143 
L 730.38547 929.856857 
L 731.110663 929.080286 
L 731.835857 927.527143 
L 732.56105 927.138857 
L 733.286243 928.303714 
L 734.011437 922.867714 
L 734.73663 931.41 
L 735.461823 929.856857 
L 736.187017 922.479429 
L 736.91221 931.41 
L 737.637403 931.798286 
L 738.362597 931.021714 
L 739.08779 928.303714 
L 739.812983 926.362286 
L 741.26337 932.186571 
L 741.988563 928.692 
L 743.43895 927.915429 
L 744.164143 932.963143 
L 744.889337 927.527143 
L 745.61453 926.362286 
L 746.339723 928.303714 
L 747.064916 932.574857 
L 747.79011 932.186571 
L 748.515303 924.420857 
L 749.240496 926.750571 
L 749.96569 924.809143 
L 750.690883 929.468571 
L 751.416076 926.750571 
L 752.14127 929.856857 
L 752.866463 929.080286 
L 753.591656 927.527143 
L 754.31685 930.633429 
L 755.042043 925.585714 
L 755.767236 929.468571 
L 756.49243 927.915429 
L 757.217623 931.41 
L 757.942816 925.974 
L 758.66801 924.032571 
L 759.393203 934.516286 
L 760.118396 925.974 
L 760.84359 930.245143 
L 761.568783 926.750571 
L 762.293976 927.915429 
L 763.01917 924.032571 
L 763.744363 928.692 
L 765.194749 923.644286 
L 765.919943 921.314571 
L 766.645136 922.479429 
L 767.370329 926.362286 
L 768.095523 925.197429 
L 768.820716 927.915429 
L 769.545909 926.750571 
L 770.271103 923.644286 
L 770.996296 922.479429 
L 771.721489 916.266857 
L 772.446683 920.538 
L 773.171876 914.325429 
L 773.897069 914.713714 
L 774.622263 907.724571 
L 775.347456 910.054286 
L 776.072649 901.900286 
L 776.797843 905.006571 
L 777.523036 893.746286 
L 778.248229 870.837429 
L 778.973423 868.896 
L 779.698616 845.210571 
L 780.423809 835.503429 
L 781.874196 798.616286 
L 782.599389 795.898286 
L 783.324582 787.744286 
L 784.049776 805.605429 
L 784.774969 836.28 
L 785.500162 845.987143 
L 786.225356 865.401429 
L 786.950549 881.321143 
L 787.675742 900.347143 
L 788.400936 907.724571 
L 789.126129 903.841714 
L 789.851322 915.102 
L 790.576516 920.149714 
L 792.026902 923.256 
L 792.752096 926.362286 
L 793.477289 924.032571 
L 794.202482 924.032571 
L 794.927676 927.527143 
L 795.652869 927.527143 
L 796.378062 923.256 
L 797.103256 928.692 
L 797.828449 926.362286 
L 798.553642 927.527143 
L 799.278836 929.080286 
L 800.729222 929.856857 
L 801.454415 927.915429 
L 802.179609 918.208286 
L 802.904802 930.245143 
L 803.629995 926.362286 
L 804.355189 932.574857 
L 805.080382 932.574857 
L 805.805575 929.856857 
L 806.530769 935.681143 
L 807.255962 925.585714 
L 807.981155 929.468571 
L 808.706349 930.245143 
L 809.431542 929.080286 
L 810.156735 932.574857 
L 810.881929 931.41 
L 811.607122 928.303714 
L 812.332315 929.080286 
L 813.057509 925.197429 
L 813.782702 927.915429 
L 814.507895 927.915429 
L 815.233089 929.856857 
L 815.958282 932.963143 
L 816.683475 928.303714 
L 817.408669 925.197429 
L 818.133862 929.468571 
L 818.859055 931.021714 
L 819.584248 927.915429 
L 820.309442 927.527143 
L 821.034635 930.245143 
L 821.759828 929.080286 
L 822.485022 931.41 
L 823.210215 931.021714 
L 823.935408 933.739714 
L 824.660602 928.692 
L 825.385795 928.303714 
L 826.836182 933.739714 
L 827.561375 931.41 
L 828.286568 928.692 
L 829.011762 930.245143 
L 829.736955 931.021714 
L 830.462148 931.021714 
L 831.187342 925.197429 
L 831.912535 931.021714 
L 832.637728 932.963143 
L 833.362922 925.974 
L 834.088115 929.856857 
L 834.813308 924.032571 
L 835.538502 930.633429 
L 836.263695 927.138857 
L 836.988888 925.974 
L 837.714081 934.516286 
L 838.439275 929.856857 
L 839.164468 928.692 
L 839.889661 930.633429 
L 840.614855 927.138857 
L 841.340048 931.798286 
L 842.065241 927.138857 
L 842.790435 929.468571 
L 843.515628 930.633429 
L 844.240821 926.750571 
L 844.966015 927.138857 
L 845.691208 930.633429 
L 846.416401 931.798286 
L 847.141595 929.856857 
L 847.866788 921.314571 
L 848.591981 928.303714 
L 849.317175 927.915429 
L 850.042368 922.479429 
L 850.767561 931.798286 
L 851.492755 922.479429 
L 852.217948 928.692 
L 852.943141 925.974 
L 853.668335 926.362286 
L 854.393528 928.303714 
L 855.118721 923.256 
L 856.569108 924.809143 
L 857.294301 927.138857 
L 858.019494 922.091143 
L 858.744688 925.974 
L 859.469881 916.266857 
L 860.195074 916.266857 
L 860.920268 913.937143 
L 861.645461 915.102 
L 862.370654 906.171429 
L 863.095848 902.676857 
L 863.821041 903.453429 
L 864.546234 884.815714 
L 865.271428 874.720286 
L 865.996621 873.555429 
L 866.721814 856.470857 
L 867.447008 847.928571 
L 868.172201 850.258286 
L 868.897394 837.444857 
L 869.622588 854.917714 
L 870.347781 855.306 
L 871.072974 857.247429 
L 871.798168 865.401429 
L 872.523361 870.060857 
L 873.248554 861.130286 
L 873.973747 866.954571 
L 874.698941 866.178 
L 875.424134 885.204 
L 876.149327 886.757143 
L 876.874521 901.123714 
L 877.599714 901.900286 
L 878.324907 902.288571 
L 879.050101 904.618286 
L 879.775294 892.193143 
L 880.500487 884.039143 
L 881.225681 883.650857 
L 881.950874 887.145429 
L 882.676067 859.965429 
L 883.401261 845.987143 
L 884.126454 856.859143 
L 884.851647 853.752857 
L 885.576841 863.071714 
L 886.302034 858.800571 
L 887.027227 875.496857 
L 887.752421 877.438286 
L 888.477614 898.017429 
L 889.202807 909.277714 
L 889.928001 913.160571 
L 890.653194 911.995714 
L 891.378387 918.984857 
L 892.10358 917.043429 
L 892.828774 915.878571 
L 893.553967 920.149714 
L 894.27916 921.314571 
L 895.004354 922.091143 
L 895.729547 928.692 
L 896.45474 923.256 
L 897.179934 923.256 
L 897.905127 925.585714 
L 898.63032 923.644286 
L 899.355514 930.633429 
L 900.080707 918.596571 
L 900.8059 928.303714 
L 901.531094 927.915429 
L 902.256287 930.633429 
L 902.98148 931.021714 
L 903.706674 928.692 
L 905.15706 918.208286 
L 905.882254 922.479429 
L 906.607447 913.548857 
L 907.33264 918.984857 
L 908.057834 913.937143 
L 908.783027 917.431714 
L 909.50822 918.984857 
L 910.233413 923.644286 
L 910.958607 924.420857 
L 911.6838 925.585714 
L 912.408993 929.080286 
L 913.134187 923.644286 
L 913.85938 924.809143 
L 914.584573 929.856857 
L 915.309767 925.197429 
L 916.03496 928.692 
L 916.760153 924.420857 
L 917.485347 928.692 
L 918.21054 931.021714 
L 918.935733 926.750571 
L 919.660927 927.527143 
L 920.38612 925.585714 
L 921.111313 931.41 
L 921.836507 931.798286 
L 922.5617 928.303714 
L 923.286893 932.963143 
L 924.012087 929.468571 
L 924.73728 927.527143 
L 925.462473 927.915429 
L 926.187667 927.527143 
L 926.91286 927.915429 
L 927.638053 924.809143 
L 928.363246 925.585714 
L 929.08844 929.080286 
L 929.813633 930.245143 
L 931.26402 923.644286 
L 931.989213 927.915429 
L 932.714406 927.915429 
L 933.4396 928.303714 
L 934.164793 929.080286 
L 934.889986 926.362286 
L 935.61518 929.468571 
L 936.340373 929.080286 
L 937.065566 930.245143 
L 937.79076 929.856857 
L 938.515953 928.303714 
L 939.241146 931.41 
L 939.96634 929.080286 
L 940.691533 928.692 
L 941.416726 929.080286 
L 942.14192 925.197429 
L 942.867113 929.468571 
L 943.592306 925.585714 
L 944.3175 932.186571 
L 945.042693 927.527143 
L 945.767886 929.856857 
L 946.493079 929.856857 
L 947.218273 931.021714 
L 947.943466 929.468571 
L 948.668659 928.692 
L 949.393853 923.644286 
L 950.119046 932.186571 
L 950.844239 928.303714 
L 951.569433 926.750571 
L 952.294626 927.915429 
L 953.745013 933.739714 
L 954.470206 929.856857 
L 955.195399 930.633429 
L 955.920593 929.468571 
L 956.645786 930.633429 
L 957.370979 925.585714 
L 958.096173 927.915429 
L 958.821366 927.915429 
L 959.546559 933.739714 
L 960.271753 929.468571 
L 960.996946 929.080286 
L 961.722139 929.856857 
L 962.447333 927.915429 
L 963.172526 929.468571 
L 963.897719 923.256 
L 964.622912 930.245143 
L 965.348106 927.915429 
L 966.073299 927.527143 
L 966.798492 926.362286 
L 967.523686 925.585714 
L 968.248879 928.303714 
L 968.974072 929.856857 
L 969.699266 927.138857 
L 970.424459 928.692 
L 971.149652 927.915429 
L 971.874846 930.245143 
L 972.600039 928.303714 
L 973.325232 929.468571 
L 974.050426 929.468571 
L 974.775619 927.915429 
L 975.500812 928.692 
L 976.226006 923.256 
L 976.951199 927.138857 
L 977.676392 930.245143 
L 978.401586 927.915429 
L 979.126779 926.750571 
L 979.851972 923.256 
L 980.577166 924.032571 
L 981.302359 925.974 
L 982.027552 922.091143 
L 982.752745 920.538 
L 983.477939 919.373143 
L 984.203132 918.984857 
L 984.928325 909.666 
L 985.653519 913.548857 
L 986.378712 911.995714 
L 987.103905 913.160571 
L 987.829099 904.23 
L 988.554292 909.277714 
L 989.279485 911.219143 
L 990.004679 911.995714 
L 990.729872 903.453429 
L 992.180259 895.299429 
L 993.630645 885.204 
L 994.355839 870.837429 
L 995.081032 861.906857 
L 995.806225 874.720286 
L 996.531419 868.507714 
L 997.256612 870.060857 
L 997.981805 878.603143 
L 998.706999 888.698571 
L 999.432192 902.288571 
L 1000.157385 902.288571 
L 1000.882578 906.948 
L 1001.607772 908.889429 
L 1002.332965 918.596571 
L 1003.058158 922.479429 
L 1003.783352 917.82 
L 1004.508545 919.373143 
L 1005.233738 918.208286 
L 1005.958932 921.314571 
L 1006.684125 922.479429 
L 1007.409318 927.915429 
L 1008.134512 925.197429 
L 1008.859705 924.420857 
L 1009.584898 924.032571 
L 1010.310092 926.750571 
L 1011.035285 919.761429 
L 1011.760478 928.303714 
L 1012.485672 926.750571 
L 1013.210865 924.032571 
L 1013.936058 924.809143 
L 1014.661252 919.761429 
L 1015.386445 924.809143 
L 1016.111638 924.809143 
L 1016.836832 923.256 
L 1018.287218 924.809143 
L 1019.012411 925.197429 
L 1019.737605 928.303714 
L 1020.462798 927.915429 
L 1021.187991 928.303714 
L 1021.913185 929.856857 
L 1022.638378 924.809143 
L 1023.363571 927.915429 
L 1024.088765 927.915429 
L 1024.813958 925.974 
L 1025.539151 928.303714 
L 1026.264345 925.197429 
L 1026.989538 925.585714 
L 1027.714731 930.633429 
L 1028.439925 931.021714 
L 1029.165118 928.692 
L 1029.890311 927.527143 
L 1030.615505 931.021714 
L 1031.340698 929.856857 
L 1032.065891 927.915429 
L 1032.791085 926.750571 
L 1033.516278 929.080286 
L 1034.241471 929.856857 
L 1034.966665 927.915429 
L 1035.691858 929.468571 
L 1036.417051 930.633429 
L 1037.142244 924.032571 
L 1038.592631 930.633429 
L 1039.317824 929.080286 
L 1040.043018 931.021714 
L 1040.768211 927.138857 
L 1042.218598 931.021714 
L 1042.943791 927.915429 
L 1043.668984 926.362286 
L 1044.394178 926.362286 
L 1045.119371 927.915429 
L 1045.844564 925.585714 
L 1046.569758 929.856857 
L 1047.294951 931.798286 
L 1048.020144 929.468571 
L 1048.745338 929.856857 
L 1049.470531 935.681143 
L 1050.195724 932.186571 
L 1050.920918 931.798286 
L 1051.646111 929.468571 
L 1052.371304 928.303714 
L 1053.096497 927.527143 
L 1053.821691 927.527143 
L 1054.546884 928.303714 
L 1055.272077 927.915429 
L 1055.997271 921.314571 
L 1056.722464 931.41 
L 1057.447657 930.245143 
L 1058.172851 927.527143 
L 1058.898044 926.362286 
L 1059.623237 931.021714 
L 1060.348431 932.186571 
L 1061.073624 930.633429 
L 1061.798817 924.420857 
L 1062.524011 931.41 
L 1063.249204 931.021714 
L 1063.974397 931.021714 
L 1064.699591 933.351429 
L 1065.424784 929.080286 
L 1066.149977 927.527143 
L 1066.875171 931.798286 
L 1067.600364 927.915429 
L 1068.325557 927.138857 
L 1069.050751 928.303714 
L 1069.775944 931.021714 
L 1070.501137 932.963143 
L 1071.22633 930.245143 
L 1071.951524 929.856857 
L 1072.676717 925.974 
L 1073.40191 924.809143 
L 1074.127104 929.080286 
L 1074.852297 921.314571 
L 1075.57749 925.974 
L 1076.302684 926.750571 
L 1077.027877 924.032571 
L 1077.75307 927.915429 
L 1078.478264 920.149714 
L 1079.92865 914.713714 
L 1080.653844 917.82 
L 1081.379037 912.384 
L 1082.10423 912.772286 
L 1082.829424 904.618286 
L 1083.554617 902.676857 
L 1085.005004 904.23 
L 1085.730197 901.900286 
L 1087.180584 896.852571 
L 1087.905777 912.384 
L 1088.63097 916.266857 
L 1089.356163 909.666 
L 1090.081357 918.596571 
L 1090.80655 916.266857 
L 1091.531743 915.490286 
L 1092.256937 927.915429 
L 1092.98213 920.926286 
L 1093.707323 925.585714 
L 1094.432517 920.538 
L 1095.15771 920.926286 
L 1095.882903 924.809143 
L 1096.608097 919.373143 
L 1098.058483 917.043429 
L 1098.783677 922.479429 
L 1100.234063 917.043429 
L 1100.959257 917.043429 
L 1101.68445 915.490286 
L 1102.409643 915.490286 
L 1103.134837 906.171429 
L 1103.86003 903.065143 
L 1104.585223 911.607429 
L 1105.310417 907.724571 
L 1106.03561 907.336286 
L 1106.760803 905.006571 
L 1107.485996 914.325429 
L 1108.21119 911.219143 
L 1108.936383 912.384 
L 1109.661576 915.490286 
L 1110.38677 922.867714 
L 1111.111963 923.644286 
L 1111.837156 923.644286 
L 1112.56235 927.527143 
L 1113.287543 926.750571 
L 1114.012736 930.245143 
L 1114.73793 924.809143 
L 1116.188316 931.41 
L 1116.91351 924.809143 
L 1117.638703 928.692 
L 1118.363896 931.798286 
L 1119.08909 932.186571 
L 1119.814283 926.750571 
L 1120.539476 930.633429 
L 1121.26467 924.032571 
L 1121.989863 929.080286 
L 1122.715056 932.186571 
L 1123.44025 926.750571 
L 1124.165443 927.138857 
L 1124.890636 930.633429 
L 1125.615829 931.798286 
L 1126.341023 934.516286 
L 1127.066216 929.468571 
L 1127.791409 932.574857 
L 1128.516603 930.633429 
L 1129.241796 929.080286 
L 1129.966989 933.351429 
L 1130.692183 931.798286 
L 1131.417376 928.692 
L 1132.142569 921.314571 
L 1132.867763 928.303714 
L 1133.592956 929.080286 
L 1134.318149 931.41 
L 1135.043343 926.750571 
L 1135.768536 929.080286 
L 1136.493729 931.021714 
L 1137.218923 933.739714 
L 1137.944116 930.633429 
L 1138.669309 932.186571 
L 1139.394503 929.080286 
L 1140.119696 929.080286 
L 1140.844889 931.41 
L 1141.570083 929.468571 
L 1142.295276 928.692 
L 1143.020469 931.41 
L 1143.745662 930.633429 
L 1144.470856 927.527143 
L 1145.196049 931.798286 
L 1145.921242 932.186571 
L 1146.646436 931.021714 
L 1147.371629 929.080286 
L 1148.096822 930.245143 
L 1148.822016 929.468571 
L 1149.547209 930.633429 
L 1150.272402 928.692 
L 1150.997596 930.633429 
L 1151.722789 929.468571 
L 1152.447982 932.963143 
L 1153.173176 931.021714 
L 1153.898369 931.798286 
L 1154.623562 932.186571 
L 1155.348756 927.138857 
L 1156.073949 928.692 
L 1156.799142 932.186571 
L 1157.524336 929.080286 
L 1158.249529 932.186571 
L 1158.974722 926.362286 
L 1159.699916 927.138857 
L 1160.425109 922.867714 
L 1161.150302 927.527143 
L 1161.875495 933.739714 
L 1162.600689 928.303714 
L 1163.325882 930.633429 
L 1164.051075 926.362286 
L 1164.776269 925.974 
L 1166.226655 929.856857 
L 1166.951849 924.420857 
L 1167.677042 926.362286 
L 1168.402235 920.149714 
L 1169.127429 922.867714 
L 1169.852622 918.984857 
L 1170.577815 920.926286 
L 1171.303009 912.772286 
L 1172.028202 908.501143 
L 1172.753395 902.676857 
L 1173.478589 898.405714 
L 1174.928975 899.958857 
L 1175.654169 901.900286 
L 1176.379362 891.416571 
L 1177.104555 903.065143 
L 1177.829749 908.501143 
L 1178.554942 915.878571 
L 1179.280135 910.830857 
L 1180.005328 915.490286 
L 1180.730522 917.82 
L 1181.455715 924.032571 
L 1182.180908 920.538 
L 1182.906102 923.644286 
L 1183.631295 923.256 
L 1184.356488 929.468571 
L 1185.806875 916.655143 
L 1186.532068 919.761429 
L 1187.257262 924.420857 
L 1187.982455 920.926286 
L 1189.432842 920.926286 
L 1190.158035 924.032571 
L 1190.883228 922.867714 
L 1191.608422 923.256 
L 1192.333615 926.362286 
L 1193.058808 923.256 
L 1193.784002 928.692 
L 1194.509195 931.41 
L 1195.234388 931.41 
L 1195.959582 922.867714 
L 1196.684775 930.245143 
L 1197.409968 927.138857 
L 1198.135161 931.021714 
L 1198.860355 930.633429 
L 1199.585548 928.303714 
L 1200.310741 932.963143 
L 1201.035935 928.692 
L 1201.761128 927.527143 
L 1202.486321 931.021714 
L 1203.211515 932.186571 
L 1203.936708 931.41 
L 1204.661901 934.904571 
L 1205.387095 932.963143 
L 1206.112288 934.128 
L 1206.837481 929.468571 
L 1207.562675 928.692 
L 1208.287868 927.527143 
L 1209.013061 930.633429 
L 1209.738255 931.798286 
L 1210.463448 931.021714 
L 1211.188641 930.633429 
L 1211.913835 932.574857 
L 1212.639028 931.798286 
L 1213.364221 927.138857 
L 1214.089415 933.739714 
L 1215.539801 926.362286 
L 1216.264994 932.574857 
L 1216.990188 935.292857 
L 1217.715381 929.856857 
L 1218.440574 932.574857 
L 1219.165768 931.798286 
L 1219.890961 932.186571 
L 1220.616154 929.468571 
L 1221.341348 929.080286 
L 1222.066541 933.739714 
L 1222.791734 932.186571 
L 1223.516928 931.41 
L 1224.967314 932.963143 
L 1225.692508 931.798286 
L 1226.417701 930.245143 
L 1227.142894 934.516286 
L 1227.868088 930.245143 
L 1228.593281 934.516286 
L 1229.318474 934.128 
L 1230.043668 933.351429 
L 1230.768861 931.021714 
L 1231.494054 930.245143 
L 1232.219248 933.351429 
L 1232.944441 927.915429 
L 1233.669634 933.739714 
L 1234.394827 929.856857 
L 1235.120021 933.739714 
L 1235.845214 932.963143 
L 1236.570407 929.468571 
L 1237.295601 928.692 
L 1238.020794 936.846 
L 1238.745987 934.128 
L 1239.471181 934.904571 
L 1240.196374 931.021714 
L 1240.921567 930.245143 
L 1241.646761 936.457714 
L 1242.371954 933.351429 
L 1243.097147 928.692 
L 1243.822341 930.633429 
L 1244.547534 929.468571 
L 1245.272727 929.856857 
L 1245.272727 929.856857 
" clip-path="url(#p52007f7a8a)" style="fill: none; stroke: #1f77b4; stroke-width: 3; stroke-linecap: square"/>
   </g>
   <g id="patch_3">
    <path d="M 180 945 
L 180 129.6 
" style="fill: none; stroke: #000000; stroke-width: 0.8; stroke-linejoin: miter; stroke-linecap: square"/>
   </g>
   <g id="patch_4">
    <path d="M 1296 945 
L 1296 129.6 
" style="fill: none; stroke: #000000; stroke-width: 0.8; stroke-linejoin: miter; stroke-linecap: square"/>
   </g>
   <g id="patch_5">
    <path d="M 180 945 
L 1296 945 
" style="fill: none; stroke: #000000; stroke-width: 0.8; stroke-linejoin: miter; stroke-linecap: square"/>
   </g>
   <g id="patch_6">
    <path d="M 180 129.6 
L 1296 129.6 
" style="fill: none; stroke: #000000; stroke-width: 0.8; stroke-linejoin: miter; stroke-linecap: square"/>
   </g>
   <g id="text_20">
    <!-- [1 0 1] -->
    <g transform="translate(459.304236 227.98779)rotate(-90)scale(0.25 -0.25)">
     <use xlink:href="#DejaVuSans-5b"/>
     <use xlink:href="#DejaVuSans-31" x="39.013672"/>
     <use xlink:href="#DejaVuSans-20" x="102.636719"/>
     <use xlink:href="#DejaVuSans-30" x="134.423828"/>
     <use xlink:href="#DejaVuSans-20" x="198.046875"/>
     <use xlink:href="#DejaVuSans-31" x="229.833984"/>
     <use xlink:href="#DejaVuSans-5d" x="293.457031"/>
    </g>
   </g>
   <g id="text_21">
    <!-- [0 0 4] -->
    <g transform="translate(640.602566 814.299219)rotate(-90)scale(0.25 -0.25)">
     <use xlink:href="#DejaVuSans-5b"/>
     <use xlink:href="#DejaVuSans-30" x="39.013672"/>
     <use xlink:href="#DejaVuSans-20" x="102.636719"/>
     <use xlink:href="#DejaVuSans-30" x="134.423828"/>
     <use xlink:href="#DejaVuSans-20" x="198.046875"/>
     <use xlink:href="#DejaVuSans-34" x="229.833984"/>
     <use xlink:href="#DejaVuSans-5d" x="293.457031"/>
    </g>
   </g>
   <g id="text_22">
    <!-- [2 0 0] -->
    <g transform="translate(792.893163 785.17779)rotate(-90)scale(0.25 -0.25)">
     <use xlink:href="#DejaVuSans-5b"/>
     <use xlink:href="#DejaVuSans-32" x="39.013672"/>
     <use xlink:href="#DejaVuSans-20" x="102.636719"/>
     <use xlink:href="#DejaVuSans-30" x="134.423828"/>
     <use xlink:href="#DejaVuSans-20" x="198.046875"/>
     <use xlink:href="#DejaVuSans-30" x="229.833984"/>
     <use xlink:href="#DejaVuSans-5d" x="293.457031"/>
    </g>
   </g>
   <g id="text_23">
    <!-- [2 1 1] -->
    <g transform="translate(865.412495 818.182076)rotate(-90)scale(0.25 -0.25)">
     <use xlink:href="#DejaVuSans-5b"/>
     <use xlink:href="#DejaVuSans-32" x="39.013672"/>
     <use xlink:href="#DejaVuSans-20" x="102.636719"/>
     <use xlink:href="#DejaVuSans-31" x="134.423828"/>
     <use xlink:href="#DejaVuSans-20" x="198.046875"/>
     <use xlink:href="#DejaVuSans-31" x="229.833984"/>
     <use xlink:href="#DejaVuSans-5d" x="293.457031"/>
    </g>
   </g>
   <g id="text_24">
    <!-- [1 0 5] -->
    <g transform="translate(894.420228 818.182076)rotate(-90)scale(0.25 -0.25)">
     <use xlink:href="#DejaVuSans-5b"/>
     <use xlink:href="#DejaVuSans-31" x="39.013672"/>
     <use xlink:href="#DejaVuSans-20" x="102.636719"/>
     <use xlink:href="#DejaVuSans-30" x="134.423828"/>
     <use xlink:href="#DejaVuSans-20" x="198.046875"/>
     <use xlink:href="#DejaVuSans-35" x="229.833984"/>
     <use xlink:href="#DejaVuSans-5d" x="293.457031"/>
    </g>
   </g>
   <g id="text_25">
    <!-- [2 0 4] -->
    <g transform="translate(1003.199226 829.830647)rotate(-90)scale(0.25 -0.25)">
     <use xlink:href="#DejaVuSans-5b"/>
     <use xlink:href="#DejaVuSans-32" x="39.013672"/>
     <use xlink:href="#DejaVuSans-20" x="102.636719"/>
     <use xlink:href="#DejaVuSans-30" x="134.423828"/>
     <use xlink:href="#DejaVuSans-20" x="198.046875"/>
     <use xlink:href="#DejaVuSans-34" x="229.833984"/>
     <use xlink:href="#DejaVuSans-5d" x="293.457031"/>
    </g>
   </g>
   <g id="text_26">
    <!-- DRX de la muestra de $M+Pr^{3+}$ -->
    <g transform="translate(461.85 122.321094)scale(0.35 -0.35)">
     <defs>
      <path id="DejaVuSans-44" d="M 1259 4147 
L 1259 519 
L 2022 519 
Q 2988 519 3436 956 
Q 3884 1394 3884 2338 
Q 3884 3275 3436 3711 
Q 2988 4147 2022 4147 
L 1259 4147 
z
M 628 4666 
L 1925 4666 
Q 3281 4666 3915 4102 
Q 4550 3538 4550 2338 
Q 4550 1131 3912 565 
Q 3275 0 1925 0 
L 628 0 
L 628 4666 
z
" transform="scale(0.015625)"/>
      <path id="DejaVuSans-52" d="M 2841 2188 
Q 3044 2119 3236 1894 
Q 3428 1669 3622 1275 
L 4263 0 
L 3584 0 
L 2988 1197 
Q 2756 1666 2539 1819 
Q 2322 1972 1947 1972 
L 1259 1972 
L 1259 0 
L 628 0 
L 628 4666 
L 2053 4666 
Q 2853 4666 3247 4331 
Q 3641 3997 3641 3322 
Q 3641 2881 3436 2590 
Q 3231 2300 2841 2188 
z
M 1259 4147 
L 1259 2491 
L 2053 2491 
Q 2509 2491 2742 2702 
Q 2975 2913 2975 3322 
Q 2975 3731 2742 3939 
Q 2509 4147 2053 4147 
L 1259 4147 
z
" transform="scale(0.015625)"/>
      <path id="DejaVuSans-58" d="M 403 4666 
L 1081 4666 
L 2241 2931 
L 3406 4666 
L 4084 4666 
L 2584 2425 
L 4184 0 
L 3506 0 
L 2194 1984 
L 872 0 
L 191 0 
L 1856 2491 
L 403 4666 
z
" transform="scale(0.015625)"/>
      <path id="DejaVuSans-6d" d="M 3328 2828 
Q 3544 3216 3844 3400 
Q 4144 3584 4550 3584 
Q 5097 3584 5394 3201 
Q 5691 2819 5691 2113 
L 5691 0 
L 5113 0 
L 5113 2094 
Q 5113 2597 4934 2840 
Q 4756 3084 4391 3084 
Q 3944 3084 3684 2787 
Q 3425 2491 3425 1978 
L 3425 0 
L 2847 0 
L 2847 2094 
Q 2847 2600 2669 2842 
Q 2491 3084 2119 3084 
Q 1678 3084 1418 2786 
Q 1159 2488 1159 1978 
L 1159 0 
L 581 0 
L 581 3500 
L 1159 3500 
L 1159 2956 
Q 1356 3278 1631 3431 
Q 1906 3584 2284 3584 
Q 2666 3584 2933 3390 
Q 3200 3197 3328 2828 
z
" transform="scale(0.015625)"/>
      <path id="DejaVuSans-72" d="M 2631 2963 
Q 2534 3019 2420 3045 
Q 2306 3072 2169 3072 
Q 1681 3072 1420 2755 
Q 1159 2438 1159 1844 
L 1159 0 
L 581 0 
L 581 3500 
L 1159 3500 
L 1159 2956 
Q 1341 3275 1631 3429 
Q 1922 3584 2338 3584 
Q 2397 3584 2469 3576 
Q 2541 3569 2628 3553 
L 2631 2963 
z
" transform="scale(0.015625)"/>
      <path id="DejaVuSans-Oblique-4d" d="M 1081 4666 
L 2028 4666 
L 2572 1522 
L 4378 4666 
L 5350 4666 
L 4441 0 
L 3828 0 
L 4622 4091 
L 2791 897 
L 2175 897 
L 1581 4103 
L 788 0 
L 172 0 
L 1081 4666 
z
" transform="scale(0.015625)"/>
      <path id="DejaVuSans-2b" d="M 2944 4013 
L 2944 2272 
L 4684 2272 
L 4684 1741 
L 2944 1741 
L 2944 0 
L 2419 0 
L 2419 1741 
L 678 1741 
L 678 2272 
L 2419 2272 
L 2419 4013 
L 2944 4013 
z
" transform="scale(0.015625)"/>
      <path id="DejaVuSans-Oblique-50" d="M 1081 4666 
L 2541 4666 
Q 3178 4666 3512 4369 
Q 3847 4072 3847 3500 
Q 3847 2731 3353 2303 
Q 2859 1875 1966 1875 
L 1172 1875 
L 806 0 
L 172 0 
L 1081 4666 
z
M 1613 4147 
L 1275 2394 
L 2069 2394 
Q 2606 2394 2893 2669 
Q 3181 2944 3181 3456 
Q 3181 3784 2986 3965 
Q 2791 4147 2438 4147 
L 1613 4147 
z
" transform="scale(0.015625)"/>
      <path id="DejaVuSans-Oblique-72" d="M 2853 2969 
Q 2766 3016 2653 3041 
Q 2541 3066 2413 3066 
Q 1953 3066 1609 2717 
Q 1266 2369 1153 1784 
L 800 0 
L 225 0 
L 909 3500 
L 1484 3500 
L 1375 2956 
Q 1603 3259 1920 3421 
Q 2238 3584 2597 3584 
Q 2691 3584 2781 3573 
Q 2872 3563 2963 3538 
L 2853 2969 
z
" transform="scale(0.015625)"/>
     </defs>
     <use xlink:href="#DejaVuSans-44" transform="translate(0 0.765625)"/>
     <use xlink:href="#DejaVuSans-52" transform="translate(77.001953 0.765625)"/>
     <use xlink:href="#DejaVuSans-58" transform="translate(146.484375 0.765625)"/>
     <use xlink:href="#DejaVuSans-20" transform="translate(214.990234 0.765625)"/>
     <use xlink:href="#DejaVuSans-64" transform="translate(246.777344 0.765625)"/>
     <use xlink:href="#DejaVuSans-65" transform="translate(310.253906 0.765625)"/>
     <use xlink:href="#DejaVuSans-20" transform="translate(371.777344 0.765625)"/>
     <use xlink:href="#DejaVuSans-6c" transform="translate(403.564453 0.765625)"/>
     <use xlink:href="#DejaVuSans-61" transform="translate(431.347656 0.765625)"/>
     <use xlink:href="#DejaVuSans-20" transform="translate(492.626953 0.765625)"/>
     <use xlink:href="#DejaVuSans-6d" transform="translate(524.414062 0.765625)"/>
     <use xlink:href="#DejaVuSans-75" transform="translate(621.826172 0.765625)"/>
     <use xlink:href="#DejaVuSans-65" transform="translate(685.205078 0.765625)"/>
     <use xlink:href="#DejaVuSans-73" transform="translate(746.728516 0.765625)"/>
     <use xlink:href="#DejaVuSans-74" transform="translate(798.828125 0.765625)"/>
     <use xlink:href="#DejaVuSans-72" transform="translate(838.037109 0.765625)"/>
     <use xlink:href="#DejaVuSans-61" transform="translate(879.150391 0.765625)"/>
     <use xlink:href="#DejaVuSans-20" transform="translate(940.429688 0.765625)"/>
     <use xlink:href="#DejaVuSans-64" transform="translate(972.216797 0.765625)"/>
     <use xlink:href="#DejaVuSans-65" transform="translate(1035.693359 0.765625)"/>
     <use xlink:href="#DejaVuSans-20" transform="translate(1097.216797 0.765625)"/>
     <use xlink:href="#DejaVuSans-Oblique-4d" transform="translate(1129.003906 0.765625)"/>
     <use xlink:href="#DejaVuSans-2b" transform="translate(1234.765625 0.765625)"/>
     <use xlink:href="#DejaVuSans-Oblique-50" transform="translate(1338.037109 0.765625)"/>
     <use xlink:href="#DejaVuSans-Oblique-72" transform="translate(1398.339844 0.765625)"/>
     <use xlink:href="#DejaVuSans-33" transform="translate(1444.103021 39.046875)scale(0.7)"/>
     <use xlink:href="#DejaVuSans-2b" transform="translate(1502.276849 39.046875)scale(0.7)"/>
    </g>
   </g>
   <g id="legend_1">
    <g id="patch_7">
     <path d="M 1112.978125 174.95625 
L 1282 174.95625 
Q 1286 174.95625 1286 170.95625 
L 1286 143.6 
Q 1286 139.6 1282 139.6 
L 1112.978125 139.6 
Q 1108.978125 139.6 1108.978125 143.6 
L 1108.978125 170.95625 
Q 1108.978125 174.95625 1112.978125 174.95625 
z
" style="fill: #ffffff; opacity: 0.8; stroke: #cccccc; stroke-linejoin: miter"/>
    </g>
    <g id="line2d_36">
     <path d="M 1116.978125 155.796875 
L 1136.978125 155.796875 
L 1156.978125 155.796875 
" style="fill: none; stroke: #1f77b4; stroke-width: 3; stroke-linecap: square"/>
    </g>
    <g id="text_27">
     <!-- Intensidad -->
     <g transform="translate(1172.978125 162.796875)scale(0.2 -0.2)">
      <use xlink:href="#DejaVuSans-49"/>
      <use xlink:href="#DejaVuSans-6e" x="29.492188"/>
      <use xlink:href="#DejaVuSans-74" x="92.871094"/>
      <use xlink:href="#DejaVuSans-65" x="132.080078"/>
      <use xlink:href="#DejaVuSans-6e" x="193.603516"/>
      <use xlink:href="#DejaVuSans-73" x="256.982422"/>
      <use xlink:href="#DejaVuSans-69" x="309.082031"/>
      <use xlink:href="#DejaVuSans-64" x="336.865234"/>
      <use xlink:href="#DejaVuSans-61" x="400.341797"/>
      <use xlink:href="#DejaVuSans-64" x="461.621094"/>
     </g>
    </g>
   </g>
  </g>
 </g>
 <defs>
  <clipPath id="p52007f7a8a">
   <rect x="180" y="129.6" width="1116" height="815.4"/>
  </clipPath>
 </defs>
</svg>
