<?xml version="1.0" encoding="utf-8" standalone="no"?>
<!DOCTYPE svg PUBLIC "-//W3C//DTD SVG 1.1//EN"
  "http://www.w3.org/Graphics/SVG/1.1/DTD/svg11.dtd">
<svg xmlns:xlink="http://www.w3.org/1999/xlink" width="1440pt" height="1080pt" viewBox="0 0 1440 1080" xmlns="http://www.w3.org/2000/svg" version="1.1">
 <metadata>
  <rdf:RDF xmlns:dc="http://purl.org/dc/elements/1.1/" xmlns:cc="http://creativecommons.org/ns#" xmlns:rdf="http://www.w3.org/1999/02/22-rdf-syntax-ns#">
   <cc:Work>
    <dc:type rdf:resource="http://purl.org/dc/dcmitype/StillImage"/>
    <dc:date>2023-10-06T17:25:52.460652</dc:date>
    <dc:format>image/svg+xml</dc:format>
    <dc:creator>
     <cc:Agent>
      <dc:title>Matplotlib v3.5.2, https://matplotlib.org/</dc:title>
     </cc:Agent>
    </dc:creator>
   </cc:Work>
  </rdf:RDF>
 </metadata>
 <defs>
  <style type="text/css">*{stroke-linejoin: round; stroke-linecap: butt}</style>
 </defs>
 <g id="figure_1">
  <g id="patch_1">
   <path d="M 0 1080 
L 1440 1080 
L 1440 0 
L 0 0 
L 0 1080 
z
" style="fill: none"/>
  </g>
  <g id="axes_1">
   <g id="patch_2">
    <path d="M 180 945 
L 1296 945 
L 1296 129.6 
L 180 129.6 
z
" style="fill: #ffffff"/>
   </g>
   <g id="matplotlib.axis_1">
    <g id="xtick_1">
     <g id="line2d_1">
      <path d="M 294.39508 945 
L 294.39508 129.6 
" clip-path="url(#p2f93e17b36)" style="fill: none; stroke: #b0b0b0; stroke-width: 0.8; stroke-linecap: square"/>
     </g>
     <g id="line2d_2">
      <defs>
       <path id="mc2baa022e6" d="M 0 0 
L 0 3.5 
" style="stroke: #000000; stroke-width: 0.8"/>
      </defs>
      <g>
       <use xlink:href="#mc2baa022e6" x="294.39508" y="945" style="stroke: #000000; stroke-width: 0.8"/>
      </g>
     </g>
     <g id="text_1">
      <!-- 800 -->
      <g transform="translate(270.535705 970.996094)scale(0.25 -0.25)">
       <defs>
        <path id="DejaVuSans-38" d="M 2034 2216 
Q 1584 2216 1326 1975 
Q 1069 1734 1069 1313 
Q 1069 891 1326 650 
Q 1584 409 2034 409 
Q 2484 409 2743 651 
Q 3003 894 3003 1313 
Q 3003 1734 2745 1975 
Q 2488 2216 2034 2216 
z
M 1403 2484 
Q 997 2584 770 2862 
Q 544 3141 544 3541 
Q 544 4100 942 4425 
Q 1341 4750 2034 4750 
Q 2731 4750 3128 4425 
Q 3525 4100 3525 3541 
Q 3525 3141 3298 2862 
Q 3072 2584 2669 2484 
Q 3125 2378 3379 2068 
Q 3634 1759 3634 1313 
Q 3634 634 3220 271 
Q 2806 -91 2034 -91 
Q 1263 -91 848 271 
Q 434 634 434 1313 
Q 434 1759 690 2068 
Q 947 2378 1403 2484 
z
M 1172 3481 
Q 1172 3119 1398 2916 
Q 1625 2713 2034 2713 
Q 2441 2713 2670 2916 
Q 2900 3119 2900 3481 
Q 2900 3844 2670 4047 
Q 2441 4250 2034 4250 
Q 1625 4250 1398 4047 
Q 1172 3844 1172 3481 
z
" transform="scale(0.015625)"/>
        <path id="DejaVuSans-30" d="M 2034 4250 
Q 1547 4250 1301 3770 
Q 1056 3291 1056 2328 
Q 1056 1369 1301 889 
Q 1547 409 2034 409 
Q 2525 409 2770 889 
Q 3016 1369 3016 2328 
Q 3016 3291 2770 3770 
Q 2525 4250 2034 4250 
z
M 2034 4750 
Q 2819 4750 3233 4129 
Q 3647 3509 3647 2328 
Q 3647 1150 3233 529 
Q 2819 -91 2034 -91 
Q 1250 -91 836 529 
Q 422 1150 422 2328 
Q 422 3509 836 4129 
Q 1250 4750 2034 4750 
z
" transform="scale(0.015625)"/>
       </defs>
       <use xlink:href="#DejaVuSans-38"/>
       <use xlink:href="#DejaVuSans-30" x="63.623047"/>
       <use xlink:href="#DejaVuSans-30" x="127.246094"/>
      </g>
     </g>
    </g>
    <g id="xtick_2">
     <g id="line2d_3">
      <path d="M 453.010933 945 
L 453.010933 129.6 
" clip-path="url(#p2f93e17b36)" style="fill: none; stroke: #b0b0b0; stroke-width: 0.8; stroke-linecap: square"/>
     </g>
     <g id="line2d_4">
      <g>
       <use xlink:href="#mc2baa022e6" x="453.010933" y="945" style="stroke: #000000; stroke-width: 0.8"/>
      </g>
     </g>
     <g id="text_2">
      <!-- 850 -->
      <g transform="translate(429.151558 970.996094)scale(0.25 -0.25)">
       <defs>
        <path id="DejaVuSans-35" d="M 691 4666 
L 3169 4666 
L 3169 4134 
L 1269 4134 
L 1269 2991 
Q 1406 3038 1543 3061 
Q 1681 3084 1819 3084 
Q 2600 3084 3056 2656 
Q 3513 2228 3513 1497 
Q 3513 744 3044 326 
Q 2575 -91 1722 -91 
Q 1428 -91 1123 -41 
Q 819 9 494 109 
L 494 744 
Q 775 591 1075 516 
Q 1375 441 1709 441 
Q 2250 441 2565 725 
Q 2881 1009 2881 1497 
Q 2881 1984 2565 2268 
Q 2250 2553 1709 2553 
Q 1456 2553 1204 2497 
Q 953 2441 691 2322 
L 691 4666 
z
" transform="scale(0.015625)"/>
       </defs>
       <use xlink:href="#DejaVuSans-38"/>
       <use xlink:href="#DejaVuSans-35" x="63.623047"/>
       <use xlink:href="#DejaVuSans-30" x="127.246094"/>
      </g>
     </g>
    </g>
    <g id="xtick_3">
     <g id="line2d_5">
      <path d="M 611.626786 945 
L 611.626786 129.6 
" clip-path="url(#p2f93e17b36)" style="fill: none; stroke: #b0b0b0; stroke-width: 0.8; stroke-linecap: square"/>
     </g>
     <g id="line2d_6">
      <g>
       <use xlink:href="#mc2baa022e6" x="611.626786" y="945" style="stroke: #000000; stroke-width: 0.8"/>
      </g>
     </g>
     <g id="text_3">
      <!-- 900 -->
      <g transform="translate(587.767411 970.996094)scale(0.25 -0.25)">
       <defs>
        <path id="DejaVuSans-39" d="M 703 97 
L 703 672 
Q 941 559 1184 500 
Q 1428 441 1663 441 
Q 2288 441 2617 861 
Q 2947 1281 2994 2138 
Q 2813 1869 2534 1725 
Q 2256 1581 1919 1581 
Q 1219 1581 811 2004 
Q 403 2428 403 3163 
Q 403 3881 828 4315 
Q 1253 4750 1959 4750 
Q 2769 4750 3195 4129 
Q 3622 3509 3622 2328 
Q 3622 1225 3098 567 
Q 2575 -91 1691 -91 
Q 1453 -91 1209 -44 
Q 966 3 703 97 
z
M 1959 2075 
Q 2384 2075 2632 2365 
Q 2881 2656 2881 3163 
Q 2881 3666 2632 3958 
Q 2384 4250 1959 4250 
Q 1534 4250 1286 3958 
Q 1038 3666 1038 3163 
Q 1038 2656 1286 2365 
Q 1534 2075 1959 2075 
z
" transform="scale(0.015625)"/>
       </defs>
       <use xlink:href="#DejaVuSans-39"/>
       <use xlink:href="#DejaVuSans-30" x="63.623047"/>
       <use xlink:href="#DejaVuSans-30" x="127.246094"/>
      </g>
     </g>
    </g>
    <g id="xtick_4">
     <g id="line2d_7">
      <path d="M 770.242639 945 
L 770.242639 129.6 
" clip-path="url(#p2f93e17b36)" style="fill: none; stroke: #b0b0b0; stroke-width: 0.8; stroke-linecap: square"/>
     </g>
     <g id="line2d_8">
      <g>
       <use xlink:href="#mc2baa022e6" x="770.242639" y="945" style="stroke: #000000; stroke-width: 0.8"/>
      </g>
     </g>
     <g id="text_4">
      <!-- 950 -->
      <g transform="translate(746.383264 970.996094)scale(0.25 -0.25)">
       <use xlink:href="#DejaVuSans-39"/>
       <use xlink:href="#DejaVuSans-35" x="63.623047"/>
       <use xlink:href="#DejaVuSans-30" x="127.246094"/>
      </g>
     </g>
    </g>
    <g id="xtick_5">
     <g id="line2d_9">
      <path d="M 928.858492 945 
L 928.858492 129.6 
" clip-path="url(#p2f93e17b36)" style="fill: none; stroke: #b0b0b0; stroke-width: 0.8; stroke-linecap: square"/>
     </g>
     <g id="line2d_10">
      <g>
       <use xlink:href="#mc2baa022e6" x="928.858492" y="945" style="stroke: #000000; stroke-width: 0.8"/>
      </g>
     </g>
     <g id="text_5">
      <!-- 1000 -->
      <g transform="translate(897.045992 970.996094)scale(0.25 -0.25)">
       <defs>
        <path id="DejaVuSans-31" d="M 794 531 
L 1825 531 
L 1825 4091 
L 703 3866 
L 703 4441 
L 1819 4666 
L 2450 4666 
L 2450 531 
L 3481 531 
L 3481 0 
L 794 0 
L 794 531 
z
" transform="scale(0.015625)"/>
       </defs>
       <use xlink:href="#DejaVuSans-31"/>
       <use xlink:href="#DejaVuSans-30" x="63.623047"/>
       <use xlink:href="#DejaVuSans-30" x="127.246094"/>
       <use xlink:href="#DejaVuSans-30" x="190.869141"/>
      </g>
     </g>
    </g>
    <g id="xtick_6">
     <g id="line2d_11">
      <path d="M 1087.474345 945 
L 1087.474345 129.6 
" clip-path="url(#p2f93e17b36)" style="fill: none; stroke: #b0b0b0; stroke-width: 0.8; stroke-linecap: square"/>
     </g>
     <g id="line2d_12">
      <g>
       <use xlink:href="#mc2baa022e6" x="1087.474345" y="945" style="stroke: #000000; stroke-width: 0.8"/>
      </g>
     </g>
     <g id="text_6">
      <!-- 1050 -->
      <g transform="translate(1055.661845 970.996094)scale(0.25 -0.25)">
       <use xlink:href="#DejaVuSans-31"/>
       <use xlink:href="#DejaVuSans-30" x="63.623047"/>
       <use xlink:href="#DejaVuSans-35" x="127.246094"/>
       <use xlink:href="#DejaVuSans-30" x="190.869141"/>
      </g>
     </g>
    </g>
    <g id="xtick_7">
     <g id="line2d_13">
      <path d="M 1246.090198 945 
L 1246.090198 129.6 
" clip-path="url(#p2f93e17b36)" style="fill: none; stroke: #b0b0b0; stroke-width: 0.8; stroke-linecap: square"/>
     </g>
     <g id="line2d_14">
      <g>
       <use xlink:href="#mc2baa022e6" x="1246.090198" y="945" style="stroke: #000000; stroke-width: 0.8"/>
      </g>
     </g>
     <g id="text_7">
      <!-- 1100 -->
      <g transform="translate(1214.277698 970.996094)scale(0.25 -0.25)">
       <use xlink:href="#DejaVuSans-31"/>
       <use xlink:href="#DejaVuSans-31" x="63.623047"/>
       <use xlink:href="#DejaVuSans-30" x="127.246094"/>
       <use xlink:href="#DejaVuSans-30" x="190.869141"/>
      </g>
     </g>
    </g>
    <g id="text_8">
     <!-- Longitud de onda [nm] -->
     <g transform="translate(566.346094 1002.990625)scale(0.3 -0.3)">
      <defs>
       <path id="DejaVuSans-4c" d="M 628 4666 
L 1259 4666 
L 1259 531 
L 3531 531 
L 3531 0 
L 628 0 
L 628 4666 
z
" transform="scale(0.015625)"/>
       <path id="DejaVuSans-6f" d="M 1959 3097 
Q 1497 3097 1228 2736 
Q 959 2375 959 1747 
Q 959 1119 1226 758 
Q 1494 397 1959 397 
Q 2419 397 2687 759 
Q 2956 1122 2956 1747 
Q 2956 2369 2687 2733 
Q 2419 3097 1959 3097 
z
M 1959 3584 
Q 2709 3584 3137 3096 
Q 3566 2609 3566 1747 
Q 3566 888 3137 398 
Q 2709 -91 1959 -91 
Q 1206 -91 779 398 
Q 353 888 353 1747 
Q 353 2609 779 3096 
Q 1206 3584 1959 3584 
z
" transform="scale(0.015625)"/>
       <path id="DejaVuSans-6e" d="M 3513 2113 
L 3513 0 
L 2938 0 
L 2938 2094 
Q 2938 2591 2744 2837 
Q 2550 3084 2163 3084 
Q 1697 3084 1428 2787 
Q 1159 2491 1159 1978 
L 1159 0 
L 581 0 
L 581 3500 
L 1159 3500 
L 1159 2956 
Q 1366 3272 1645 3428 
Q 1925 3584 2291 3584 
Q 2894 3584 3203 3211 
Q 3513 2838 3513 2113 
z
" transform="scale(0.015625)"/>
       <path id="DejaVuSans-67" d="M 2906 1791 
Q 2906 2416 2648 2759 
Q 2391 3103 1925 3103 
Q 1463 3103 1205 2759 
Q 947 2416 947 1791 
Q 947 1169 1205 825 
Q 1463 481 1925 481 
Q 2391 481 2648 825 
Q 2906 1169 2906 1791 
z
M 3481 434 
Q 3481 -459 3084 -895 
Q 2688 -1331 1869 -1331 
Q 1566 -1331 1297 -1286 
Q 1028 -1241 775 -1147 
L 775 -588 
Q 1028 -725 1275 -790 
Q 1522 -856 1778 -856 
Q 2344 -856 2625 -561 
Q 2906 -266 2906 331 
L 2906 616 
Q 2728 306 2450 153 
Q 2172 0 1784 0 
Q 1141 0 747 490 
Q 353 981 353 1791 
Q 353 2603 747 3093 
Q 1141 3584 1784 3584 
Q 2172 3584 2450 3431 
Q 2728 3278 2906 2969 
L 2906 3500 
L 3481 3500 
L 3481 434 
z
" transform="scale(0.015625)"/>
       <path id="DejaVuSans-69" d="M 603 3500 
L 1178 3500 
L 1178 0 
L 603 0 
L 603 3500 
z
M 603 4863 
L 1178 4863 
L 1178 4134 
L 603 4134 
L 603 4863 
z
" transform="scale(0.015625)"/>
       <path id="DejaVuSans-74" d="M 1172 4494 
L 1172 3500 
L 2356 3500 
L 2356 3053 
L 1172 3053 
L 1172 1153 
Q 1172 725 1289 603 
Q 1406 481 1766 481 
L 2356 481 
L 2356 0 
L 1766 0 
Q 1100 0 847 248 
Q 594 497 594 1153 
L 594 3053 
L 172 3053 
L 172 3500 
L 594 3500 
L 594 4494 
L 1172 4494 
z
" transform="scale(0.015625)"/>
       <path id="DejaVuSans-75" d="M 544 1381 
L 544 3500 
L 1119 3500 
L 1119 1403 
Q 1119 906 1312 657 
Q 1506 409 1894 409 
Q 2359 409 2629 706 
Q 2900 1003 2900 1516 
L 2900 3500 
L 3475 3500 
L 3475 0 
L 2900 0 
L 2900 538 
Q 2691 219 2414 64 
Q 2138 -91 1772 -91 
Q 1169 -91 856 284 
Q 544 659 544 1381 
z
M 1991 3584 
L 1991 3584 
z
" transform="scale(0.015625)"/>
       <path id="DejaVuSans-64" d="M 2906 2969 
L 2906 4863 
L 3481 4863 
L 3481 0 
L 2906 0 
L 2906 525 
Q 2725 213 2448 61 
Q 2172 -91 1784 -91 
Q 1150 -91 751 415 
Q 353 922 353 1747 
Q 353 2572 751 3078 
Q 1150 3584 1784 3584 
Q 2172 3584 2448 3432 
Q 2725 3281 2906 2969 
z
M 947 1747 
Q 947 1113 1208 752 
Q 1469 391 1925 391 
Q 2381 391 2643 752 
Q 2906 1113 2906 1747 
Q 2906 2381 2643 2742 
Q 2381 3103 1925 3103 
Q 1469 3103 1208 2742 
Q 947 2381 947 1747 
z
" transform="scale(0.015625)"/>
       <path id="DejaVuSans-20" transform="scale(0.015625)"/>
       <path id="DejaVuSans-65" d="M 3597 1894 
L 3597 1613 
L 953 1613 
Q 991 1019 1311 708 
Q 1631 397 2203 397 
Q 2534 397 2845 478 
Q 3156 559 3463 722 
L 3463 178 
Q 3153 47 2828 -22 
Q 2503 -91 2169 -91 
Q 1331 -91 842 396 
Q 353 884 353 1716 
Q 353 2575 817 3079 
Q 1281 3584 2069 3584 
Q 2775 3584 3186 3129 
Q 3597 2675 3597 1894 
z
M 3022 2063 
Q 3016 2534 2758 2815 
Q 2500 3097 2075 3097 
Q 1594 3097 1305 2825 
Q 1016 2553 972 2059 
L 3022 2063 
z
" transform="scale(0.015625)"/>
       <path id="DejaVuSans-61" d="M 2194 1759 
Q 1497 1759 1228 1600 
Q 959 1441 959 1056 
Q 959 750 1161 570 
Q 1363 391 1709 391 
Q 2188 391 2477 730 
Q 2766 1069 2766 1631 
L 2766 1759 
L 2194 1759 
z
M 3341 1997 
L 3341 0 
L 2766 0 
L 2766 531 
Q 2569 213 2275 61 
Q 1981 -91 1556 -91 
Q 1019 -91 701 211 
Q 384 513 384 1019 
Q 384 1609 779 1909 
Q 1175 2209 1959 2209 
L 2766 2209 
L 2766 2266 
Q 2766 2663 2505 2880 
Q 2244 3097 1772 3097 
Q 1472 3097 1187 3025 
Q 903 2953 641 2809 
L 641 3341 
Q 956 3463 1253 3523 
Q 1550 3584 1831 3584 
Q 2591 3584 2966 3190 
Q 3341 2797 3341 1997 
z
" transform="scale(0.015625)"/>
       <path id="DejaVuSans-5b" d="M 550 4863 
L 1875 4863 
L 1875 4416 
L 1125 4416 
L 1125 -397 
L 1875 -397 
L 1875 -844 
L 550 -844 
L 550 4863 
z
" transform="scale(0.015625)"/>
       <path id="DejaVuSans-6d" d="M 3328 2828 
Q 3544 3216 3844 3400 
Q 4144 3584 4550 3584 
Q 5097 3584 5394 3201 
Q 5691 2819 5691 2113 
L 5691 0 
L 5113 0 
L 5113 2094 
Q 5113 2597 4934 2840 
Q 4756 3084 4391 3084 
Q 3944 3084 3684 2787 
Q 3425 2491 3425 1978 
L 3425 0 
L 2847 0 
L 2847 2094 
Q 2847 2600 2669 2842 
Q 2491 3084 2119 3084 
Q 1678 3084 1418 2786 
Q 1159 2488 1159 1978 
L 1159 0 
L 581 0 
L 581 3500 
L 1159 3500 
L 1159 2956 
Q 1356 3278 1631 3431 
Q 1906 3584 2284 3584 
Q 2666 3584 2933 3390 
Q 3200 3197 3328 2828 
z
" transform="scale(0.015625)"/>
       <path id="DejaVuSans-5d" d="M 1947 4863 
L 1947 -844 
L 622 -844 
L 622 -397 
L 1369 -397 
L 1369 4416 
L 622 4416 
L 622 4863 
L 1947 4863 
z
" transform="scale(0.015625)"/>
      </defs>
      <use xlink:href="#DejaVuSans-4c"/>
      <use xlink:href="#DejaVuSans-6f" x="53.962891"/>
      <use xlink:href="#DejaVuSans-6e" x="115.144531"/>
      <use xlink:href="#DejaVuSans-67" x="178.523438"/>
      <use xlink:href="#DejaVuSans-69" x="242"/>
      <use xlink:href="#DejaVuSans-74" x="269.783203"/>
      <use xlink:href="#DejaVuSans-75" x="308.992188"/>
      <use xlink:href="#DejaVuSans-64" x="372.371094"/>
      <use xlink:href="#DejaVuSans-20" x="435.847656"/>
      <use xlink:href="#DejaVuSans-64" x="467.634766"/>
      <use xlink:href="#DejaVuSans-65" x="531.111328"/>
      <use xlink:href="#DejaVuSans-20" x="592.634766"/>
      <use xlink:href="#DejaVuSans-6f" x="624.421875"/>
      <use xlink:href="#DejaVuSans-6e" x="685.603516"/>
      <use xlink:href="#DejaVuSans-64" x="748.982422"/>
      <use xlink:href="#DejaVuSans-61" x="812.458984"/>
      <use xlink:href="#DejaVuSans-20" x="873.738281"/>
      <use xlink:href="#DejaVuSans-5b" x="905.525391"/>
      <use xlink:href="#DejaVuSans-6e" x="944.539062"/>
      <use xlink:href="#DejaVuSans-6d" x="1007.917969"/>
      <use xlink:href="#DejaVuSans-5d" x="1105.330078"/>
     </g>
    </g>
   </g>
   <g id="matplotlib.axis_2">
    <g id="ytick_1">
     <g id="line2d_15">
      <path d="M 180 877.454103 
L 1296 877.454103 
" clip-path="url(#p2f93e17b36)" style="fill: none; stroke: #b0b0b0; stroke-width: 0.8; stroke-linecap: square"/>
     </g>
     <g id="line2d_16">
      <defs>
       <path id="m3f6ccb1b05" d="M 0 0 
L -3.5 0 
" style="stroke: #000000; stroke-width: 0.8"/>
      </defs>
      <g>
       <use xlink:href="#m3f6ccb1b05" x="180" y="877.454103" style="stroke: #000000; stroke-width: 0.8"/>
      </g>
     </g>
     <g id="text_9">
      <!-- 0.25 -->
      <g transform="translate(117.335938 886.95215)scale(0.25 -0.25)">
       <defs>
        <path id="DejaVuSans-2e" d="M 684 794 
L 1344 794 
L 1344 0 
L 684 0 
L 684 794 
z
" transform="scale(0.015625)"/>
        <path id="DejaVuSans-32" d="M 1228 531 
L 3431 531 
L 3431 0 
L 469 0 
L 469 531 
Q 828 903 1448 1529 
Q 2069 2156 2228 2338 
Q 2531 2678 2651 2914 
Q 2772 3150 2772 3378 
Q 2772 3750 2511 3984 
Q 2250 4219 1831 4219 
Q 1534 4219 1204 4116 
Q 875 4013 500 3803 
L 500 4441 
Q 881 4594 1212 4672 
Q 1544 4750 1819 4750 
Q 2544 4750 2975 4387 
Q 3406 4025 3406 3419 
Q 3406 3131 3298 2873 
Q 3191 2616 2906 2266 
Q 2828 2175 2409 1742 
Q 1991 1309 1228 531 
z
" transform="scale(0.015625)"/>
       </defs>
       <use xlink:href="#DejaVuSans-30"/>
       <use xlink:href="#DejaVuSans-2e" x="63.623047"/>
       <use xlink:href="#DejaVuSans-32" x="95.410156"/>
       <use xlink:href="#DejaVuSans-35" x="159.033203"/>
      </g>
     </g>
    </g>
    <g id="ytick_2">
     <g id="line2d_17">
      <path d="M 180 784.428491 
L 1296 784.428491 
" clip-path="url(#p2f93e17b36)" style="fill: none; stroke: #b0b0b0; stroke-width: 0.8; stroke-linecap: square"/>
     </g>
     <g id="line2d_18">
      <g>
       <use xlink:href="#m3f6ccb1b05" x="180" y="784.428491" style="stroke: #000000; stroke-width: 0.8"/>
      </g>
     </g>
     <g id="text_10">
      <!-- 0.50 -->
      <g transform="translate(117.335938 793.926538)scale(0.25 -0.25)">
       <use xlink:href="#DejaVuSans-30"/>
       <use xlink:href="#DejaVuSans-2e" x="63.623047"/>
       <use xlink:href="#DejaVuSans-35" x="95.410156"/>
       <use xlink:href="#DejaVuSans-30" x="159.033203"/>
      </g>
     </g>
    </g>
    <g id="ytick_3">
     <g id="line2d_19">
      <path d="M 180 691.40288 
L 1296 691.40288 
" clip-path="url(#p2f93e17b36)" style="fill: none; stroke: #b0b0b0; stroke-width: 0.8; stroke-linecap: square"/>
     </g>
     <g id="line2d_20">
      <g>
       <use xlink:href="#m3f6ccb1b05" x="180" y="691.40288" style="stroke: #000000; stroke-width: 0.8"/>
      </g>
     </g>
     <g id="text_11">
      <!-- 0.75 -->
      <g transform="translate(117.335938 700.900926)scale(0.25 -0.25)">
       <defs>
        <path id="DejaVuSans-37" d="M 525 4666 
L 3525 4666 
L 3525 4397 
L 1831 0 
L 1172 0 
L 2766 4134 
L 525 4134 
L 525 4666 
z
" transform="scale(0.015625)"/>
       </defs>
       <use xlink:href="#DejaVuSans-30"/>
       <use xlink:href="#DejaVuSans-2e" x="63.623047"/>
       <use xlink:href="#DejaVuSans-37" x="95.410156"/>
       <use xlink:href="#DejaVuSans-35" x="159.033203"/>
      </g>
     </g>
    </g>
    <g id="ytick_4">
     <g id="line2d_21">
      <path d="M 180 598.377268 
L 1296 598.377268 
" clip-path="url(#p2f93e17b36)" style="fill: none; stroke: #b0b0b0; stroke-width: 0.8; stroke-linecap: square"/>
     </g>
     <g id="line2d_22">
      <g>
       <use xlink:href="#m3f6ccb1b05" x="180" y="598.377268" style="stroke: #000000; stroke-width: 0.8"/>
      </g>
     </g>
     <g id="text_12">
      <!-- 1.00 -->
      <g transform="translate(117.335938 607.875315)scale(0.25 -0.25)">
       <use xlink:href="#DejaVuSans-31"/>
       <use xlink:href="#DejaVuSans-2e" x="63.623047"/>
       <use xlink:href="#DejaVuSans-30" x="95.410156"/>
       <use xlink:href="#DejaVuSans-30" x="159.033203"/>
      </g>
     </g>
    </g>
    <g id="ytick_5">
     <g id="line2d_23">
      <path d="M 180 505.351656 
L 1296 505.351656 
" clip-path="url(#p2f93e17b36)" style="fill: none; stroke: #b0b0b0; stroke-width: 0.8; stroke-linecap: square"/>
     </g>
     <g id="line2d_24">
      <g>
       <use xlink:href="#m3f6ccb1b05" x="180" y="505.351656" style="stroke: #000000; stroke-width: 0.8"/>
      </g>
     </g>
     <g id="text_13">
      <!-- 1.25 -->
      <g transform="translate(117.335938 514.849703)scale(0.25 -0.25)">
       <use xlink:href="#DejaVuSans-31"/>
       <use xlink:href="#DejaVuSans-2e" x="63.623047"/>
       <use xlink:href="#DejaVuSans-32" x="95.410156"/>
       <use xlink:href="#DejaVuSans-35" x="159.033203"/>
      </g>
     </g>
    </g>
    <g id="ytick_6">
     <g id="line2d_25">
      <path d="M 180 412.326044 
L 1296 412.326044 
" clip-path="url(#p2f93e17b36)" style="fill: none; stroke: #b0b0b0; stroke-width: 0.8; stroke-linecap: square"/>
     </g>
     <g id="line2d_26">
      <g>
       <use xlink:href="#m3f6ccb1b05" x="180" y="412.326044" style="stroke: #000000; stroke-width: 0.8"/>
      </g>
     </g>
     <g id="text_14">
      <!-- 1.50 -->
      <g transform="translate(117.335938 421.824091)scale(0.25 -0.25)">
       <use xlink:href="#DejaVuSans-31"/>
       <use xlink:href="#DejaVuSans-2e" x="63.623047"/>
       <use xlink:href="#DejaVuSans-35" x="95.410156"/>
       <use xlink:href="#DejaVuSans-30" x="159.033203"/>
      </g>
     </g>
    </g>
    <g id="ytick_7">
     <g id="line2d_27">
      <path d="M 180 319.300432 
L 1296 319.300432 
" clip-path="url(#p2f93e17b36)" style="fill: none; stroke: #b0b0b0; stroke-width: 0.8; stroke-linecap: square"/>
     </g>
     <g id="line2d_28">
      <g>
       <use xlink:href="#m3f6ccb1b05" x="180" y="319.300432" style="stroke: #000000; stroke-width: 0.8"/>
      </g>
     </g>
     <g id="text_15">
      <!-- 1.75 -->
      <g transform="translate(117.335938 328.798479)scale(0.25 -0.25)">
       <use xlink:href="#DejaVuSans-31"/>
       <use xlink:href="#DejaVuSans-2e" x="63.623047"/>
       <use xlink:href="#DejaVuSans-37" x="95.410156"/>
       <use xlink:href="#DejaVuSans-35" x="159.033203"/>
      </g>
     </g>
    </g>
    <g id="ytick_8">
     <g id="line2d_29">
      <path d="M 180 226.274821 
L 1296 226.274821 
" clip-path="url(#p2f93e17b36)" style="fill: none; stroke: #b0b0b0; stroke-width: 0.8; stroke-linecap: square"/>
     </g>
     <g id="line2d_30">
      <g>
       <use xlink:href="#m3f6ccb1b05" x="180" y="226.274821" style="stroke: #000000; stroke-width: 0.8"/>
      </g>
     </g>
     <g id="text_16">
      <!-- 2.00 -->
      <g transform="translate(117.335938 235.772867)scale(0.25 -0.25)">
       <use xlink:href="#DejaVuSans-32"/>
       <use xlink:href="#DejaVuSans-2e" x="63.623047"/>
       <use xlink:href="#DejaVuSans-30" x="95.410156"/>
       <use xlink:href="#DejaVuSans-30" x="159.033203"/>
      </g>
     </g>
    </g>
    <g id="ytick_9">
     <g id="line2d_31">
      <path d="M 180 133.249209 
L 1296 133.249209 
" clip-path="url(#p2f93e17b36)" style="fill: none; stroke: #b0b0b0; stroke-width: 0.8; stroke-linecap: square"/>
     </g>
     <g id="line2d_32">
      <g>
       <use xlink:href="#m3f6ccb1b05" x="180" y="133.249209" style="stroke: #000000; stroke-width: 0.8"/>
      </g>
     </g>
     <g id="text_17">
      <!-- 2.25 -->
      <g transform="translate(117.335938 142.747256)scale(0.25 -0.25)">
       <use xlink:href="#DejaVuSans-32"/>
       <use xlink:href="#DejaVuSans-2e" x="63.623047"/>
       <use xlink:href="#DejaVuSans-32" x="95.410156"/>
       <use xlink:href="#DejaVuSans-35" x="159.033203"/>
      </g>
     </g>
    </g>
    <g id="text_18">
     <!-- Intensidad [u.a.] -->
     <g transform="translate(107.096875 660.771094)rotate(-90)scale(0.3 -0.3)">
      <defs>
       <path id="DejaVuSans-49" d="M 628 4666 
L 1259 4666 
L 1259 0 
L 628 0 
L 628 4666 
z
" transform="scale(0.015625)"/>
       <path id="DejaVuSans-73" d="M 2834 3397 
L 2834 2853 
Q 2591 2978 2328 3040 
Q 2066 3103 1784 3103 
Q 1356 3103 1142 2972 
Q 928 2841 928 2578 
Q 928 2378 1081 2264 
Q 1234 2150 1697 2047 
L 1894 2003 
Q 2506 1872 2764 1633 
Q 3022 1394 3022 966 
Q 3022 478 2636 193 
Q 2250 -91 1575 -91 
Q 1294 -91 989 -36 
Q 684 19 347 128 
L 347 722 
Q 666 556 975 473 
Q 1284 391 1588 391 
Q 1994 391 2212 530 
Q 2431 669 2431 922 
Q 2431 1156 2273 1281 
Q 2116 1406 1581 1522 
L 1381 1569 
Q 847 1681 609 1914 
Q 372 2147 372 2553 
Q 372 3047 722 3315 
Q 1072 3584 1716 3584 
Q 2034 3584 2315 3537 
Q 2597 3491 2834 3397 
z
" transform="scale(0.015625)"/>
      </defs>
      <use xlink:href="#DejaVuSans-49"/>
      <use xlink:href="#DejaVuSans-6e" x="29.492188"/>
      <use xlink:href="#DejaVuSans-74" x="92.871094"/>
      <use xlink:href="#DejaVuSans-65" x="132.080078"/>
      <use xlink:href="#DejaVuSans-6e" x="193.603516"/>
      <use xlink:href="#DejaVuSans-73" x="256.982422"/>
      <use xlink:href="#DejaVuSans-69" x="309.082031"/>
      <use xlink:href="#DejaVuSans-64" x="336.865234"/>
      <use xlink:href="#DejaVuSans-61" x="400.341797"/>
      <use xlink:href="#DejaVuSans-64" x="461.621094"/>
      <use xlink:href="#DejaVuSans-20" x="525.097656"/>
      <use xlink:href="#DejaVuSans-5b" x="556.884766"/>
      <use xlink:href="#DejaVuSans-75" x="595.898438"/>
      <use xlink:href="#DejaVuSans-2e" x="659.277344"/>
      <use xlink:href="#DejaVuSans-61" x="691.064453"/>
      <use xlink:href="#DejaVuSans-2e" x="752.34375"/>
      <use xlink:href="#DejaVuSans-5d" x="784.130859"/>
     </g>
    </g>
    <g id="text_19">
     <!-- 1e6 -->
     <g transform="translate(180 126.6)scale(0.1 -0.1)">
      <defs>
       <path id="DejaVuSans-36" d="M 2113 2584 
Q 1688 2584 1439 2293 
Q 1191 2003 1191 1497 
Q 1191 994 1439 701 
Q 1688 409 2113 409 
Q 2538 409 2786 701 
Q 3034 994 3034 1497 
Q 3034 2003 2786 2293 
Q 2538 2584 2113 2584 
z
M 3366 4563 
L 3366 3988 
Q 3128 4100 2886 4159 
Q 2644 4219 2406 4219 
Q 1781 4219 1451 3797 
Q 1122 3375 1075 2522 
Q 1259 2794 1537 2939 
Q 1816 3084 2150 3084 
Q 2853 3084 3261 2657 
Q 3669 2231 3669 1497 
Q 3669 778 3244 343 
Q 2819 -91 2113 -91 
Q 1303 -91 875 529 
Q 447 1150 447 2328 
Q 447 3434 972 4092 
Q 1497 4750 2381 4750 
Q 2619 4750 2861 4703 
Q 3103 4656 3366 4563 
z
" transform="scale(0.015625)"/>
      </defs>
      <use xlink:href="#DejaVuSans-31"/>
      <use xlink:href="#DejaVuSans-65" x="63.623047"/>
      <use xlink:href="#DejaVuSans-36" x="125.146484"/>
     </g>
    </g>
   </g>
   <g id="line2d_33">
    <path d="M 230.727273 907.569471 
L 232.506851 907.528911 
L 233.396599 907.228625 
L 234.28632 907.486864 
L 247.628861 907.322022 
L 253.853266 907.194391 
L 272.51832 906.722565 
L 276.960561 906.545817 
L 280.513846 906.423023 
L 300.936412 905.264668 
L 304.486617 904.985219 
L 313.360104 904.108546 
L 323.117582 902.685998 
L 336.417516 900.33059 
L 338.190339 899.926114 
L 339.963043 899.534662 
L 346.166571 898.058904 
L 352.368637 896.430584 
L 356.797785 895.162459 
L 360.340561 893.922985 
L 365.65382 891.692231 
L 374.506826 887.219932 
L 380.702116 883.465418 
L 382.471923 882.310784 
L 384.241608 881.167314 
L 386.011169 879.866071 
L 390.434534 876.532033 
L 394.857126 872.785706 
L 395.741552 872.091735 
L 402.815838 865.139745 
L 405.468181 862.396234 
L 408.120244 859.358761 
L 414.307292 851.010271 
L 416.074738 848.347506 
L 423.143258 836.226268 
L 430.209752 823.515621 
L 432.859162 818.980808 
L 437.274209 811.00442 
L 439.040003 807.935319 
L 450.514538 786.293841 
L 451.396969 784.4017 
L 452.279367 782.882778 
L 459.337389 768.493204 
L 463.747597 757.899447 
L 467.275176 749.107411 
L 472.565563 734.84398 
L 475.210314 727.458118 
L 476.973316 722.644973 
L 481.380246 709.938791 
L 482.261533 707.745991 
L 483.142787 704.853639 
L 484.905195 699.852582 
L 486.667471 694.703056 
L 493.715247 674.883764 
L 499.880301 656.926099 
L 501.641444 651.548847 
L 513.085598 619.167004 
L 525.403684 585.248749 
L 526.283293 583.224512 
L 527.162867 580.660726 
L 528.042407 578.504764 
L 528.921913 575.824138 
L 533.31893 564.25845 
L 535.077497 559.713591 
L 539.473314 548.767825 
L 541.2314 544.231896 
L 546.50483 531.007376 
L 548.262363 526.36763 
L 550.898404 519.733416 
L 557.047951 506.154653 
L 557.926318 504.845969 
L 559.682949 501.543187 
L 563.195791 494.978184 
L 565.830055 490.833707 
L 569.341916 486.213311 
L 571.975444 483.28412 
L 572.853216 482.461402 
L 573.730953 481.80985 
L 577.241548 478.193015 
L 578.119109 477.996172 
L 578.996634 477.396343 
L 582.506382 475.733045 
L 585.13832 475.156287 
L 586.015562 474.94456 
L 587.769939 475.106797 
L 588.647074 475.164473 
L 589.524174 475.362059 
L 590.401238 475.19052 
L 592.155259 475.653043 
L 593.032217 476.245803 
L 593.909138 476.253617 
L 594.786024 476.786467 
L 595.662874 477.137732 
L 596.539688 477.357645 
L 599.169916 478.787634 
L 600.046587 479.553793 
L 600.923223 480.010363 
L 601.799822 480.788429 
L 602.676385 481.141927 
L 603.552913 481.935993 
L 605.30586 482.880761 
L 606.18228 483.83446 
L 607.058664 484.385916 
L 608.811323 485.92642 
L 609.687598 486.490155 
L 612.316208 488.966497 
L 613.19234 489.437951 
L 614.944493 491.509445 
L 615.820516 492.287511 
L 616.696502 492.904457 
L 621.951658 498.203196 
L 622.82739 498.890841 
L 624.578746 500.861868 
L 625.454369 501.977431 
L 626.329955 502.788614 
L 627.205505 503.815989 
L 628.081019 504.633126 
L 635.08381 512.826822 
L 635.958994 513.450466 
L 636.834142 514.595053 
L 637.709252 515.556193 
L 638.584326 516.817249 
L 641.209328 519.942909 
L 642.084254 521.250849 
L 644.708813 524.331486 
L 645.583593 525.36593 
L 646.458335 526.213208 
L 647.33304 527.352213 
L 648.207709 528.131768 
L 649.08234 529.373102 
L 649.956934 529.990792 
L 650.831492 531.106727 
L 651.706012 531.699114 
L 652.580495 532.853004 
L 653.454941 533.478508 
L 654.32935 534.493231 
L 655.203722 535.202459 
L 656.952354 537.011621 
L 657.826614 537.628566 
L 659.575023 539.252422 
L 660.449172 539.865646 
L 661.323283 540.972651 
L 662.197357 541.75481 
L 663.071394 542.700323 
L 665.693279 545.104477 
L 666.567167 545.525325 
L 667.441016 546.213714 
L 669.188603 548.086506 
L 673.556914 550.03595 
L 674.430464 550.684153 
L 675.303976 550.677083 
L 677.050887 551.017185 
L 677.924285 551.266865 
L 678.797647 551.323797 
L 679.67097 551.598037 
L 681.417504 551.664643 
L 682.290714 551.553384 
L 684.037021 552.019629 
L 684.910118 551.826135 
L 688.402126 552.389126 
L 689.275033 551.957488 
L 690.147902 552.37201 
L 691.020733 552.152469 
L 691.893527 552.149864 
L 692.766282 551.781111 
L 696.256922 550.853832 
L 697.129487 550.379773 
L 698.874502 549.951855 
L 700.619364 549.233698 
L 701.491737 549.117974 
L 702.364073 548.848572 
L 704.108629 548.677032 
L 704.98085 548.649125 
L 706.725176 548.401677 
L 707.597281 548.282976 
L 708.469348 548.308279 
L 709.341377 548.447445 
L 710.213367 548.44298 
L 711.085319 548.74922 
L 711.957232 548.904015 
L 713.700943 549.452122 
L 714.572741 549.547008 
L 717.187902 551.406032 
L 718.93115 552.59862 
L 723.288592 557.584421 
L 725.031298 559.857595 
L 727.645065 564.466455 
L 728.516243 565.826118 
L 730.258483 569.304159 
L 734.613399 579.351298 
L 736.355093 584.08779 
L 741.579234 600.332666 
L 747.672281 622.419179 
L 752.023277 639.200627 
L 760.722308 673.493961 
L 766.80927 695.774339 
L 771.155906 710.792394 
L 775.501544 724.343993 
L 780.714989 739.203904 
L 783.32117 746.145475 
L 784.189817 748.496791 
L 785.058423 750.499446 
L 785.926989 752.79383 
L 787.664 756.588158 
L 788.532446 758.811098 
L 789.40085 760.453559 
L 792.005823 766.371848 
L 792.874066 768.359619 
L 795.478554 773.474912 
L 798.950636 780.149313 
L 802.42207 786.427798 
L 805.892853 792.282458 
L 810.230415 798.941975 
L 811.097805 800.364523 
L 819.769453 812.05561 
L 827.570425 820.993511 
L 834.501817 827.748658 
L 838.832592 831.688107 
L 841.430558 833.789369 
L 847.491023 838.422789 
L 852.68408 842.208187 
L 855.280044 843.903486 
L 863.930529 849.453022 
L 864.795346 849.914429 
L 865.660121 850.531375 
L 867.389544 851.38535 
L 869.118799 852.446214 
L 880.354826 858.284501 
L 889.856624 862.539121 
L 891.583668 863.225278 
L 893.310542 863.837758 
L 894.173914 864.282049 
L 895.037244 864.485961 
L 897.626976 865.495103 
L 899.353249 866.116142 
L 901.942336 867.006955 
L 904.531036 867.952839 
L 905.39385 868.106518 
L 907.982033 868.957888 
L 911.432339 869.963309 
L 912.294808 870.14043 
L 913.157233 870.439972 
L 914.881953 870.810586 
L 915.744248 871.113105 
L 916.6065 871.180456 
L 918.330873 871.648561 
L 921.779099 872.563189 
L 922.641046 872.610074 
L 923.50295 872.876499 
L 925.226628 873.167855 
L 926.950131 873.56154 
L 935.565026 875.128091 
L 940.73186 875.90132 
L 947.61851 876.861344 
L 949.339731 877.108048 
L 950.200276 877.274378 
L 951.060776 877.244237 
L 954.502335 877.691505 
L 955.362615 877.721645 
L 957.08304 878.013001 
L 967.40186 879.147169 
L 973.418209 879.941608 
L 975.995973 880.184219 
L 978.573334 880.625532 
L 985.444321 881.488438 
L 988.020199 881.835237 
L 993.170737 882.637862 
L 994.887221 882.874892 
L 1000.035588 883.594166 
L 1001.751347 883.873615 
L 1003.466924 884.120319 
L 1006.897534 884.595866 
L 1007.755073 884.62489 
L 1009.470013 884.951968 
L 1011.184771 885.202765 
L 1015.470867 885.749755 
L 1018.89892 886.211534 
L 1039.451796 888.632061 
L 1046.296839 889.315985 
L 1059.977989 890.527551 
L 1061.687291 890.671554 
L 1063.396407 890.85835 
L 1065.959728 891.118077 
L 1068.522627 891.329804 
L 1069.375824 895.488048 
L 1102.569161 898.845157 
L 1106.933241 899.338192 
L 1117.403706 900.557944 
L 1120.892813 900.97135 
L 1133.100535 902.377897 
L 1140.944926 903.209174 
L 1154.0129 904.422228 
L 1161.850052 905.06671 
L 1167.073298 905.428021 
L 1171.425068 905.721238 
L 1179.256106 906.175203 
L 1185.344996 906.472885 
L 1192.301662 906.767218 
L 1201.863464 907.114389 
L 1211.421055 907.384908 
L 1227.919625 907.746219 
L 1245.272727 907.936364 
L 1245.272727 907.936364 
" clip-path="url(#p2f93e17b36)" style="fill: none; stroke: #1f77b4; stroke-width: 3; stroke-linecap: square"/>
   </g>
   <g id="line2d_34">
    <path d="M 230.727273 907.463049 
L 234.28632 907.369652 
L 258.29844 906.828987 
L 276.072169 906.018548 
L 281.402097 905.681051 
L 288.507082 905.111734 
L 292.058891 904.767539 
L 301.824007 903.658674 
L 314.247293 901.5589 
L 316.908686 900.954978 
L 319.569817 900.370777 
L 332.871516 896.349838 
L 339.076706 893.935265 
L 342.621877 892.378388 
L 349.710788 888.875044 
L 355.912015 885.367234 
L 362.111769 881.116336 
L 366.539258 877.537082 
L 370.080703 874.379793 
L 372.736468 871.74754 
L 376.277062 868.044377 
L 382.471923 860.756378 
L 384.241608 858.403946 
L 386.011169 856.07198 
L 388.66528 852.096066 
L 389.549922 850.918361 
L 393.088182 845.087516 
L 396.625946 838.92736 
L 400.163214 832.148026 
L 401.931661 828.603006 
L 404.584098 822.968258 
L 406.352233 819.088346 
L 413.423522 801.310035 
L 416.958413 791.367086 
L 421.376317 777.612319 
L 425.793431 763.036322 
L 427.560055 756.780163 
L 429.326551 750.772941 
L 437.274209 722.193241 
L 439.922853 711.971214 
L 441.688455 705.148344 
L 445.219275 691.07022 
L 446.984491 683.838781 
L 447.867051 680.393857 
L 449.632074 672.90976 
L 454.926369 650.370026 
L 456.690874 642.46471 
L 462.865621 612.990847 
L 467.275176 589.707281 
L 473.44718 554.658207 
L 480.498926 512.493418 
L 483.142787 496.43943 
L 487.54856 468.979758 
L 490.191625 453.435923 
L 492.834392 437.44668 
L 496.357613 416.189956 
L 501.641444 384.849627 
L 504.282907 370.458193 
L 506.924068 355.776519 
L 514.845732 316.047885 
L 515.725748 311.305067 
L 519.245473 295.102238 
L 520.125319 290.538774 
L 521.88491 283.174122 
L 522.764655 278.476701 
L 524.524042 271.257541 
L 528.921913 252.435855 
L 533.31893 235.39654 
L 534.198231 231.562768 
L 538.594219 216.735602 
L 540.352374 211.717429 
L 542.110391 205.835605 
L 543.86827 200.501517 
L 546.50483 192.318984 
L 550.019758 183.368059 
L 550.898404 180.771529 
L 553.534133 176.243042 
L 554.412639 174.977149 
L 555.291111 173.390132 
L 556.169548 172.223219 
L 557.047951 170.791369 
L 558.804651 169.165653 
L 559.682949 168.856064 
L 560.561211 168.278933 
L 561.439439 167.475936 
L 563.195791 166.816198 
L 564.073914 166.686707 
L 565.830055 166.663636 
L 567.586056 168.07837 
L 568.464004 168.538288 
L 571.975444 172.138008 
L 573.730953 175.183666 
L 577.241548 181.23554 
L 578.119109 183.652346 
L 578.996634 185.703374 
L 579.874124 188.323348 
L 581.628998 193.136493 
L 584.261043 201.655034 
L 586.015562 207.185221 
L 587.769939 214.396938 
L 588.647074 217.611531 
L 590.401238 224.899902 
L 591.278267 228.351896 
L 593.032217 235.946879 
L 593.909138 239.649671 
L 595.662874 247.721689 
L 598.293209 259.715667 
L 600.923223 272.496642 
L 602.676385 280.829132 
L 605.30586 294.146307 
L 606.18228 298.279249 
L 607.058664 301.809013 
L 608.811323 309.695724 
L 610.563838 317.713788 
L 613.19234 330.459413 
L 614.944493 338.473011 
L 617.572452 350.623272 
L 618.448366 354.079732 
L 619.324244 358.413609 
L 620.200085 361.941884 
L 621.951658 369.499285 
L 628.956496 397.792095 
L 634.208589 417.354637 
L 636.834142 426.487891 
L 637.709252 429.046096 
L 638.584326 432.587022 
L 639.459364 435.164204 
L 642.084254 443.935403 
L 644.708813 451.761089 
L 649.08234 465.056682 
L 650.831492 469.827407 
L 653.454941 476.541624 
L 656.078057 482.766154 
L 657.826614 486.474155 
L 659.575023 490.362253 
L 660.449172 492.325094 
L 661.323283 493.856667 
L 663.071394 497.970632 
L 663.945393 499.321364 
L 664.819355 501.25332 
L 665.693279 502.484607 
L 667.441016 505.377331 
L 670.062341 509.465993 
L 671.809703 511.875728 
L 673.556914 513.512607 
L 674.430464 514.7945 
L 675.303976 515.373119 
L 677.050887 516.873064 
L 677.924285 517.323308 
L 678.797647 518.148259 
L 679.67097 518.560549 
L 680.544256 519.193123 
L 681.417504 519.375453 
L 682.290714 520.210079 
L 683.163886 520.399851 
L 684.037021 521.016797 
L 685.783177 521.708163 
L 687.529181 522.84382 
L 688.402126 522.881402 
L 689.275033 523.148944 
L 690.147902 523.97129 
L 691.020733 523.93408 
L 692.766282 524.510095 
L 693.638999 524.07734 
L 694.511678 524.229902 
L 695.384319 524.069897 
L 696.256922 524.313252 
L 698.002013 523.833985 
L 700.619364 523.982081 
L 702.364073 523.837333 
L 704.108629 524.473629 
L 704.98085 524.135015 
L 707.597281 524.526839 
L 708.469348 524.50042 
L 710.213367 524.977455 
L 712.829107 526.368002 
L 713.700943 526.840944 
L 714.572741 527.121138 
L 716.31622 528.243771 
L 718.059545 530.070422 
L 718.93115 530.867093 
L 719.802716 531.85056 
L 720.674243 532.588067 
L 722.417181 535.048036 
L 723.288592 535.815311 
L 724.159965 537.461492 
L 725.031298 538.672686 
L 725.902593 540.09635 
L 726.773848 541.79016 
L 727.645065 543.034099 
L 728.516243 544.84661 
L 730.258483 547.845755 
L 735.484265 560.084949 
L 736.355093 562.349193 
L 741.579234 578.275177 
L 745.931607 593.548494 
L 748.542559 603.07655 
L 750.282997 609.574575 
L 751.153157 613.464534 
L 753.7634 623.404134 
L 756.373287 633.75528 
L 758.113014 640.594151 
L 761.591993 654.285661 
L 769.417371 683.062203 
L 772.894281 694.77636 
L 774.632496 700.302454 
L 775.501544 703.290437 
L 777.239519 708.393822 
L 778.977334 713.563069 
L 782.452483 723.347503 
L 786.795515 734.447319 
L 789.40085 740.540496 
L 791.137539 744.418176 
L 792.874066 748.181992 
L 796.346635 755.242636 
L 800.686435 763.174 
L 805.025218 770.3686 
L 810.230415 777.892884 
L 812.832462 781.215387 
L 817.168389 786.134953 
L 819.769453 788.917163 
L 821.50329 790.37841 
L 823.236963 792.057708 
L 824.103738 792.604326 
L 825.837164 793.978501 
L 828.436994 795.722917 
L 829.303521 796.180231 
L 831.902855 797.882972 
L 832.769217 798.316099 
L 833.635538 798.617874 
L 834.501817 799.243378 
L 837.96652 800.539783 
L 838.832592 801.007888 
L 846.625368 803.105057 
L 853.549444 804.297646 
L 854.414765 804.154758 
L 856.145282 804.237737 
L 857.010477 804.460999 
L 868.254192 805.464559 
L 869.118799 805.369301 
L 869.983362 805.711263 
L 871.712363 805.714984 
L 893.310542 808.109091 
L 894.173914 808.338306 
L 895.037244 808.306678 
L 906.256621 809.665968 
L 907.119349 809.650712 
L 907.982033 809.911183 
L 910.569828 810.059652 
L 913.157233 810.240866 
L 914.881953 810.483105 
L 916.6065 810.659481 
L 918.330873 810.781159 
L 919.192995 810.969815 
L 920.917107 811.040142 
L 923.50295 811.527224 
L 926.088401 811.82379 
L 927.811817 812.053749 
L 928.67346 812.225661 
L 929.535059 812.232358 
L 931.258125 812.510319 
L 932.119593 812.472737 
L 932.981017 812.66809 
L 933.842397 812.733208 
L 936.426275 813.23257 
L 939.009758 813.452482 
L 940.73186 813.713326 
L 946.757833 814.475764 
L 947.61851 814.7954 
L 950.200276 814.99187 
L 951.060776 815.195782 
L 951.921232 815.244528 
L 952.781644 815.464812 
L 956.222849 815.87673 
L 959.663345 816.380929 
L 968.261473 817.991016 
L 976.855138 820.13321 
L 978.573334 820.758714 
L 979.432365 820.788854 
L 980.29135 821.192585 
L 981.150291 821.299751 
L 982.009187 821.528594 
L 984.585605 822.461083 
L 985.444321 822.662018 
L 986.302992 823.077284 
L 988.878735 823.961028 
L 990.595671 824.353224 
L 991.454072 824.781141 
L 994.887221 825.914193 
L 996.603525 826.624909 
L 997.461608 826.92073 
L 998.319647 827.341578 
L 1000.035588 827.814893 
L 1001.751347 828.527469 
L 1002.609158 828.77008 
L 1005.18232 829.776617 
L 1006.03995 829.93997 
L 1007.755073 830.696082 
L 1008.612566 830.892924 
L 1010.327415 831.684014 
L 1012.042082 832.232121 
L 1020.612672 835.301594 
L 1021.469479 835.827747 
L 1022.32624 835.968774 
L 1024.896249 837.00359 
L 1026.609357 837.522673 
L 1027.465843 837.947986 
L 1029.178676 838.507256 
L 1030.035023 838.88308 
L 1032.603788 839.685705 
L 1036.028162 840.947504 
L 1036.88414 841.1503 
L 1039.451796 842.060091 
L 1040.307588 842.275166 
L 1042.019035 842.894716 
L 1048.862963 844.965839 
L 1049.718245 845.346871 
L 1051.428669 845.752835 
L 1058.268499 847.873075 
L 1061.687291 848.906031 
L 1062.541873 849.227156 
L 1064.250894 849.689307 
L 1068.522627 851.152414 
L 1069.375824 864.48224 
L 1076.367734 867.290497 
L 1078.115393 867.886233 
L 1079.862925 868.626345 
L 1099.077313 875.563823 
L 1100.823302 876.250352 
L 1107.805959 879.006143 
L 1115.658956 882.096081 
L 1116.531347 882.502417 
L 1118.276032 883.166248 
L 1120.892813 884.215205 
L 1123.509298 885.164438 
L 1124.381394 885.612077 
L 1125.253457 885.873293 
L 1126.125487 886.262512 
L 1127.869447 886.873877 
L 1135.715632 889.845487 
L 1143.559124 892.504903 
L 1145.301755 893.033289 
L 1147.044252 893.643537 
L 1159.237972 897.12902 
L 1165.332351 898.540405 
L 1167.073298 898.98916 
L 1181.865837 901.800394 
L 1185.344996 902.30757 
L 1187.954005 902.747767 
L 1189.693171 902.926376 
L 1194.909842 903.598021 
L 1203.601522 904.494788 
L 1208.814858 904.970707 
L 1218.36937 905.697423 
L 1224.447299 906.049804 
L 1227.051596 906.201622 
L 1235.730283 906.613539 
L 1245.272727 906.937269 
L 1245.272727 906.937269 
" clip-path="url(#p2f93e17b36)" style="fill: none; stroke: #ff7f0e; stroke-width: 3; stroke-linecap: square"/>
   </g>
   <g id="patch_3">
    <path d="M 180 945 
L 180 129.6 
" style="fill: none; stroke: #000000; stroke-width: 0.8; stroke-linejoin: miter; stroke-linecap: square"/>
   </g>
   <g id="patch_4">
    <path d="M 1296 945 
L 1296 129.6 
" style="fill: none; stroke: #000000; stroke-width: 0.8; stroke-linejoin: miter; stroke-linecap: square"/>
   </g>
   <g id="patch_5">
    <path d="M 180 945 
L 1296 945 
" style="fill: none; stroke: #000000; stroke-width: 0.8; stroke-linejoin: miter; stroke-linecap: square"/>
   </g>
   <g id="patch_6">
    <path d="M 180 129.6 
L 1296 129.6 
" style="fill: none; stroke: #000000; stroke-width: 0.8; stroke-linejoin: miter; stroke-linecap: square"/>
   </g>
   <g id="text_20">
    <!-- Emisión de las muestras -->
    <g transform="translate(524.076172 122.321094)scale(0.35 -0.35)">
     <defs>
      <path id="DejaVuSans-45" d="M 628 4666 
L 3578 4666 
L 3578 4134 
L 1259 4134 
L 1259 2753 
L 3481 2753 
L 3481 2222 
L 1259 2222 
L 1259 531 
L 3634 531 
L 3634 0 
L 628 0 
L 628 4666 
z
" transform="scale(0.015625)"/>
      <path id="DejaVuSans-f3" d="M 1959 3097 
Q 1497 3097 1228 2736 
Q 959 2375 959 1747 
Q 959 1119 1226 758 
Q 1494 397 1959 397 
Q 2419 397 2687 759 
Q 2956 1122 2956 1747 
Q 2956 2369 2687 2733 
Q 2419 3097 1959 3097 
z
M 1959 3584 
Q 2709 3584 3137 3096 
Q 3566 2609 3566 1747 
Q 3566 888 3137 398 
Q 2709 -91 1959 -91 
Q 1206 -91 779 398 
Q 353 888 353 1747 
Q 353 2609 779 3096 
Q 1206 3584 1959 3584 
z
M 2394 5119 
L 3016 5119 
L 1998 3944 
L 1519 3944 
L 2394 5119 
z
" transform="scale(0.015625)"/>
      <path id="DejaVuSans-6c" d="M 603 4863 
L 1178 4863 
L 1178 0 
L 603 0 
L 603 4863 
z
" transform="scale(0.015625)"/>
      <path id="DejaVuSans-72" d="M 2631 2963 
Q 2534 3019 2420 3045 
Q 2306 3072 2169 3072 
Q 1681 3072 1420 2755 
Q 1159 2438 1159 1844 
L 1159 0 
L 581 0 
L 581 3500 
L 1159 3500 
L 1159 2956 
Q 1341 3275 1631 3429 
Q 1922 3584 2338 3584 
Q 2397 3584 2469 3576 
Q 2541 3569 2628 3553 
L 2631 2963 
z
" transform="scale(0.015625)"/>
     </defs>
     <use xlink:href="#DejaVuSans-45"/>
     <use xlink:href="#DejaVuSans-6d" x="63.183594"/>
     <use xlink:href="#DejaVuSans-69" x="160.595703"/>
     <use xlink:href="#DejaVuSans-73" x="188.378906"/>
     <use xlink:href="#DejaVuSans-69" x="240.478516"/>
     <use xlink:href="#DejaVuSans-f3" x="268.261719"/>
     <use xlink:href="#DejaVuSans-6e" x="329.443359"/>
     <use xlink:href="#DejaVuSans-20" x="392.822266"/>
     <use xlink:href="#DejaVuSans-64" x="424.609375"/>
     <use xlink:href="#DejaVuSans-65" x="488.085938"/>
     <use xlink:href="#DejaVuSans-20" x="549.609375"/>
     <use xlink:href="#DejaVuSans-6c" x="581.396484"/>
     <use xlink:href="#DejaVuSans-61" x="609.179688"/>
     <use xlink:href="#DejaVuSans-73" x="670.458984"/>
     <use xlink:href="#DejaVuSans-20" x="722.558594"/>
     <use xlink:href="#DejaVuSans-6d" x="754.345703"/>
     <use xlink:href="#DejaVuSans-75" x="851.757812"/>
     <use xlink:href="#DejaVuSans-65" x="915.136719"/>
     <use xlink:href="#DejaVuSans-73" x="976.660156"/>
     <use xlink:href="#DejaVuSans-74" x="1028.759766"/>
     <use xlink:href="#DejaVuSans-72" x="1067.96875"/>
     <use xlink:href="#DejaVuSans-61" x="1109.082031"/>
     <use xlink:href="#DejaVuSans-73" x="1170.361328"/>
    </g>
   </g>
   <g id="legend_1">
    <g id="patch_7">
     <path d="M 1170.409375 204.3125 
L 1282 204.3125 
Q 1286 204.3125 1286 200.3125 
L 1286 143.6 
Q 1286 139.6 1282 139.6 
L 1170.409375 139.6 
Q 1166.409375 139.6 1166.409375 143.6 
L 1166.409375 200.3125 
Q 1166.409375 204.3125 1170.409375 204.3125 
z
" style="fill: #ffffff; opacity: 0.8; stroke: #cccccc; stroke-linejoin: miter"/>
    </g>
    <g id="line2d_35">
     <path d="M 1174.409375 155.796875 
L 1194.409375 155.796875 
L 1214.409375 155.796875 
" style="fill: none; stroke: #1f77b4; stroke-width: 3; stroke-linecap: square"/>
    </g>
    <g id="text_21">
     <!-- Pr -->
     <g transform="translate(1230.409375 162.796875)scale(0.2 -0.2)">
      <defs>
       <path id="DejaVuSans-50" d="M 1259 4147 
L 1259 2394 
L 2053 2394 
Q 2494 2394 2734 2622 
Q 2975 2850 2975 3272 
Q 2975 3691 2734 3919 
Q 2494 4147 2053 4147 
L 1259 4147 
z
M 628 4666 
L 2053 4666 
Q 2838 4666 3239 4311 
Q 3641 3956 3641 3272 
Q 3641 2581 3239 2228 
Q 2838 1875 2053 1875 
L 1259 1875 
L 1259 0 
L 628 0 
L 628 4666 
z
" transform="scale(0.015625)"/>
      </defs>
      <use xlink:href="#DejaVuSans-50"/>
      <use xlink:href="#DejaVuSans-72" x="58.552734"/>
     </g>
    </g>
    <g id="line2d_36">
     <path d="M 1174.409375 185.153125 
L 1194.409375 185.153125 
L 1214.409375 185.153125 
" style="fill: none; stroke: #ff7f0e; stroke-width: 3; stroke-linecap: square"/>
    </g>
    <g id="text_22">
     <!-- PrNp -->
     <g transform="translate(1230.409375 192.153125)scale(0.2 -0.2)">
      <defs>
       <path id="DejaVuSans-4e" d="M 628 4666 
L 1478 4666 
L 3547 763 
L 3547 4666 
L 4159 4666 
L 4159 0 
L 3309 0 
L 1241 3903 
L 1241 0 
L 628 0 
L 628 4666 
z
" transform="scale(0.015625)"/>
       <path id="DejaVuSans-70" d="M 1159 525 
L 1159 -1331 
L 581 -1331 
L 581 3500 
L 1159 3500 
L 1159 2969 
Q 1341 3281 1617 3432 
Q 1894 3584 2278 3584 
Q 2916 3584 3314 3078 
Q 3713 2572 3713 1747 
Q 3713 922 3314 415 
Q 2916 -91 2278 -91 
Q 1894 -91 1617 61 
Q 1341 213 1159 525 
z
M 3116 1747 
Q 3116 2381 2855 2742 
Q 2594 3103 2138 3103 
Q 1681 3103 1420 2742 
Q 1159 2381 1159 1747 
Q 1159 1113 1420 752 
Q 1681 391 2138 391 
Q 2594 391 2855 752 
Q 3116 1113 3116 1747 
z
" transform="scale(0.015625)"/>
      </defs>
      <use xlink:href="#DejaVuSans-50"/>
      <use xlink:href="#DejaVuSans-72" x="58.552734"/>
      <use xlink:href="#DejaVuSans-4e" x="99.666016"/>
      <use xlink:href="#DejaVuSans-70" x="174.470703"/>
     </g>
    </g>
   </g>
  </g>
 </g>
 <defs>
  <clipPath id="p2f93e17b36">
   <rect x="180" y="129.6" width="1116" height="815.4"/>
  </clipPath>
 </defs>
</svg>
