<?xml version="1.0" encoding="utf-8" standalone="no"?>
<!DOCTYPE svg PUBLIC "-//W3C//DTD SVG 1.1//EN"
  "http://www.w3.org/Graphics/SVG/1.1/DTD/svg11.dtd">
<svg xmlns:xlink="http://www.w3.org/1999/xlink" width="1440pt" height="720pt" viewBox="0 0 1440 720" xmlns="http://www.w3.org/2000/svg" version="1.1">
 <metadata>
  <rdf:RDF xmlns:dc="http://purl.org/dc/elements/1.1/" xmlns:cc="http://creativecommons.org/ns#" xmlns:rdf="http://www.w3.org/1999/02/22-rdf-syntax-ns#">
   <cc:Work>
    <dc:type rdf:resource="http://purl.org/dc/dcmitype/StillImage"/>
    <dc:date>2024-03-21T16:06:16.849160</dc:date>
    <dc:format>image/svg+xml</dc:format>
    <dc:creator>
     <cc:Agent>
      <dc:title>Matplotlib v3.5.2, https://matplotlib.org/</dc:title>
     </cc:Agent>
    </dc:creator>
   </cc:Work>
  </rdf:RDF>
 </metadata>
 <defs>
  <style type="text/css">*{stroke-linejoin: round; stroke-linecap: butt}</style>
 </defs>
 <g id="figure_1">
  <g id="patch_1">
   <path d="M 0 720 
L 1440 720 
L 1440 0 
L 0 0 
L 0 720 
z
" style="fill: none"/>
  </g>
  <g id="axes_1">
   <g id="patch_2">
    <path d="M 180 630 
L 1296 630 
L 1296 86.4 
L 180 86.4 
z
" style="fill: #ffffff"/>
   </g>
   <g id="matplotlib.axis_1">
    <g id="xtick_1">
     <g id="line2d_1">
      <path d="M 263.431084 630 
L 263.431084 86.4 
" clip-path="url(#pf1469f6628)" style="fill: none; stroke: #b0b0b0; stroke-width: 0.8; stroke-linecap: square"/>
     </g>
     <g id="line2d_2">
      <defs>
       <path id="mf06768936f" d="M 0 0 
L 0 3.5 
" style="stroke: #000000; stroke-width: 0.8"/>
      </defs>
      <g>
       <use xlink:href="#mf06768936f" x="263.431084" y="630" style="stroke: #000000; stroke-width: 0.8"/>
      </g>
     </g>
     <g id="text_1">
      <!-- 4.7 -->
      <g transform="translate(243.552178 655.996094)scale(0.25 -0.25)">
       <defs>
        <path id="DejaVuSans-34" d="M 2419 4116 
L 825 1625 
L 2419 1625 
L 2419 4116 
z
M 2253 4666 
L 3047 4666 
L 3047 1625 
L 3713 1625 
L 3713 1100 
L 3047 1100 
L 3047 0 
L 2419 0 
L 2419 1100 
L 313 1100 
L 313 1709 
L 2253 4666 
z
" transform="scale(0.015625)"/>
        <path id="DejaVuSans-2e" d="M 684 794 
L 1344 794 
L 1344 0 
L 684 0 
L 684 794 
z
" transform="scale(0.015625)"/>
        <path id="DejaVuSans-37" d="M 525 4666 
L 3525 4666 
L 3525 4397 
L 1831 0 
L 1172 0 
L 2766 4134 
L 525 4134 
L 525 4666 
z
" transform="scale(0.015625)"/>
       </defs>
       <use xlink:href="#DejaVuSans-34"/>
       <use xlink:href="#DejaVuSans-2e" x="63.623047"/>
       <use xlink:href="#DejaVuSans-37" x="95.410156"/>
      </g>
     </g>
    </g>
    <g id="xtick_2">
     <g id="line2d_3">
      <path d="M 486.415145 630 
L 486.415145 86.4 
" clip-path="url(#pf1469f6628)" style="fill: none; stroke: #b0b0b0; stroke-width: 0.8; stroke-linecap: square"/>
     </g>
     <g id="line2d_4">
      <g>
       <use xlink:href="#mf06768936f" x="486.415145" y="630" style="stroke: #000000; stroke-width: 0.8"/>
      </g>
     </g>
     <g id="text_2">
      <!-- 4.8 -->
      <g transform="translate(466.536239 655.996094)scale(0.25 -0.25)">
       <defs>
        <path id="DejaVuSans-38" d="M 2034 2216 
Q 1584 2216 1326 1975 
Q 1069 1734 1069 1313 
Q 1069 891 1326 650 
Q 1584 409 2034 409 
Q 2484 409 2743 651 
Q 3003 894 3003 1313 
Q 3003 1734 2745 1975 
Q 2488 2216 2034 2216 
z
M 1403 2484 
Q 997 2584 770 2862 
Q 544 3141 544 3541 
Q 544 4100 942 4425 
Q 1341 4750 2034 4750 
Q 2731 4750 3128 4425 
Q 3525 4100 3525 3541 
Q 3525 3141 3298 2862 
Q 3072 2584 2669 2484 
Q 3125 2378 3379 2068 
Q 3634 1759 3634 1313 
Q 3634 634 3220 271 
Q 2806 -91 2034 -91 
Q 1263 -91 848 271 
Q 434 634 434 1313 
Q 434 1759 690 2068 
Q 947 2378 1403 2484 
z
M 1172 3481 
Q 1172 3119 1398 2916 
Q 1625 2713 2034 2713 
Q 2441 2713 2670 2916 
Q 2900 3119 2900 3481 
Q 2900 3844 2670 4047 
Q 2441 4250 2034 4250 
Q 1625 4250 1398 4047 
Q 1172 3844 1172 3481 
z
" transform="scale(0.015625)"/>
       </defs>
       <use xlink:href="#DejaVuSans-34"/>
       <use xlink:href="#DejaVuSans-2e" x="63.623047"/>
       <use xlink:href="#DejaVuSans-38" x="95.410156"/>
      </g>
     </g>
    </g>
    <g id="xtick_3">
     <g id="line2d_5">
      <path d="M 709.399206 630 
L 709.399206 86.4 
" clip-path="url(#pf1469f6628)" style="fill: none; stroke: #b0b0b0; stroke-width: 0.8; stroke-linecap: square"/>
     </g>
     <g id="line2d_6">
      <g>
       <use xlink:href="#mf06768936f" x="709.399206" y="630" style="stroke: #000000; stroke-width: 0.8"/>
      </g>
     </g>
     <g id="text_3">
      <!-- 4.9 -->
      <g transform="translate(689.5203 655.996094)scale(0.25 -0.25)">
       <defs>
        <path id="DejaVuSans-39" d="M 703 97 
L 703 672 
Q 941 559 1184 500 
Q 1428 441 1663 441 
Q 2288 441 2617 861 
Q 2947 1281 2994 2138 
Q 2813 1869 2534 1725 
Q 2256 1581 1919 1581 
Q 1219 1581 811 2004 
Q 403 2428 403 3163 
Q 403 3881 828 4315 
Q 1253 4750 1959 4750 
Q 2769 4750 3195 4129 
Q 3622 3509 3622 2328 
Q 3622 1225 3098 567 
Q 2575 -91 1691 -91 
Q 1453 -91 1209 -44 
Q 966 3 703 97 
z
M 1959 2075 
Q 2384 2075 2632 2365 
Q 2881 2656 2881 3163 
Q 2881 3666 2632 3958 
Q 2384 4250 1959 4250 
Q 1534 4250 1286 3958 
Q 1038 3666 1038 3163 
Q 1038 2656 1286 2365 
Q 1534 2075 1959 2075 
z
" transform="scale(0.015625)"/>
       </defs>
       <use xlink:href="#DejaVuSans-34"/>
       <use xlink:href="#DejaVuSans-2e" x="63.623047"/>
       <use xlink:href="#DejaVuSans-39" x="95.410156"/>
      </g>
     </g>
    </g>
    <g id="xtick_4">
     <g id="line2d_7">
      <path d="M 932.383267 630 
L 932.383267 86.4 
" clip-path="url(#pf1469f6628)" style="fill: none; stroke: #b0b0b0; stroke-width: 0.8; stroke-linecap: square"/>
     </g>
     <g id="line2d_8">
      <g>
       <use xlink:href="#mf06768936f" x="932.383267" y="630" style="stroke: #000000; stroke-width: 0.8"/>
      </g>
     </g>
     <g id="text_4">
      <!-- 5.0 -->
      <g transform="translate(912.504361 655.996094)scale(0.25 -0.25)">
       <defs>
        <path id="DejaVuSans-35" d="M 691 4666 
L 3169 4666 
L 3169 4134 
L 1269 4134 
L 1269 2991 
Q 1406 3038 1543 3061 
Q 1681 3084 1819 3084 
Q 2600 3084 3056 2656 
Q 3513 2228 3513 1497 
Q 3513 744 3044 326 
Q 2575 -91 1722 -91 
Q 1428 -91 1123 -41 
Q 819 9 494 109 
L 494 744 
Q 775 591 1075 516 
Q 1375 441 1709 441 
Q 2250 441 2565 725 
Q 2881 1009 2881 1497 
Q 2881 1984 2565 2268 
Q 2250 2553 1709 2553 
Q 1456 2553 1204 2497 
Q 953 2441 691 2322 
L 691 4666 
z
" transform="scale(0.015625)"/>
        <path id="DejaVuSans-30" d="M 2034 4250 
Q 1547 4250 1301 3770 
Q 1056 3291 1056 2328 
Q 1056 1369 1301 889 
Q 1547 409 2034 409 
Q 2525 409 2770 889 
Q 3016 1369 3016 2328 
Q 3016 3291 2770 3770 
Q 2525 4250 2034 4250 
z
M 2034 4750 
Q 2819 4750 3233 4129 
Q 3647 3509 3647 2328 
Q 3647 1150 3233 529 
Q 2819 -91 2034 -91 
Q 1250 -91 836 529 
Q 422 1150 422 2328 
Q 422 3509 836 4129 
Q 1250 4750 2034 4750 
z
" transform="scale(0.015625)"/>
       </defs>
       <use xlink:href="#DejaVuSans-35"/>
       <use xlink:href="#DejaVuSans-2e" x="63.623047"/>
       <use xlink:href="#DejaVuSans-30" x="95.410156"/>
      </g>
     </g>
    </g>
    <g id="xtick_5">
     <g id="line2d_9">
      <path d="M 1155.367328 630 
L 1155.367328 86.4 
" clip-path="url(#pf1469f6628)" style="fill: none; stroke: #b0b0b0; stroke-width: 0.8; stroke-linecap: square"/>
     </g>
     <g id="line2d_10">
      <g>
       <use xlink:href="#mf06768936f" x="1155.367328" y="630" style="stroke: #000000; stroke-width: 0.8"/>
      </g>
     </g>
     <g id="text_5">
      <!-- 5.1 -->
      <g transform="translate(1135.488421 655.996094)scale(0.25 -0.25)">
       <defs>
        <path id="DejaVuSans-31" d="M 794 531 
L 1825 531 
L 1825 4091 
L 703 3866 
L 703 4441 
L 1819 4666 
L 2450 4666 
L 2450 531 
L 3481 531 
L 3481 0 
L 794 0 
L 794 531 
z
" transform="scale(0.015625)"/>
       </defs>
       <use xlink:href="#DejaVuSans-35"/>
       <use xlink:href="#DejaVuSans-2e" x="63.623047"/>
       <use xlink:href="#DejaVuSans-31" x="95.410156"/>
      </g>
     </g>
    </g>
    <g id="text_6">
     <!-- frecuencia $\nu~[s^{-1}$] -->
     <g transform="translate(693.7 673.515625)scale(0.1 -0.1)">
      <defs>
       <path id="DejaVuSans-66" d="M 2375 4863 
L 2375 4384 
L 1825 4384 
Q 1516 4384 1395 4259 
Q 1275 4134 1275 3809 
L 1275 3500 
L 2222 3500 
L 2222 3053 
L 1275 3053 
L 1275 0 
L 697 0 
L 697 3053 
L 147 3053 
L 147 3500 
L 697 3500 
L 697 3744 
Q 697 4328 969 4595 
Q 1241 4863 1831 4863 
L 2375 4863 
z
" transform="scale(0.015625)"/>
       <path id="DejaVuSans-72" d="M 2631 2963 
Q 2534 3019 2420 3045 
Q 2306 3072 2169 3072 
Q 1681 3072 1420 2755 
Q 1159 2438 1159 1844 
L 1159 0 
L 581 0 
L 581 3500 
L 1159 3500 
L 1159 2956 
Q 1341 3275 1631 3429 
Q 1922 3584 2338 3584 
Q 2397 3584 2469 3576 
Q 2541 3569 2628 3553 
L 2631 2963 
z
" transform="scale(0.015625)"/>
       <path id="DejaVuSans-65" d="M 3597 1894 
L 3597 1613 
L 953 1613 
Q 991 1019 1311 708 
Q 1631 397 2203 397 
Q 2534 397 2845 478 
Q 3156 559 3463 722 
L 3463 178 
Q 3153 47 2828 -22 
Q 2503 -91 2169 -91 
Q 1331 -91 842 396 
Q 353 884 353 1716 
Q 353 2575 817 3079 
Q 1281 3584 2069 3584 
Q 2775 3584 3186 3129 
Q 3597 2675 3597 1894 
z
M 3022 2063 
Q 3016 2534 2758 2815 
Q 2500 3097 2075 3097 
Q 1594 3097 1305 2825 
Q 1016 2553 972 2059 
L 3022 2063 
z
" transform="scale(0.015625)"/>
       <path id="DejaVuSans-63" d="M 3122 3366 
L 3122 2828 
Q 2878 2963 2633 3030 
Q 2388 3097 2138 3097 
Q 1578 3097 1268 2742 
Q 959 2388 959 1747 
Q 959 1106 1268 751 
Q 1578 397 2138 397 
Q 2388 397 2633 464 
Q 2878 531 3122 666 
L 3122 134 
Q 2881 22 2623 -34 
Q 2366 -91 2075 -91 
Q 1284 -91 818 406 
Q 353 903 353 1747 
Q 353 2603 823 3093 
Q 1294 3584 2113 3584 
Q 2378 3584 2631 3529 
Q 2884 3475 3122 3366 
z
" transform="scale(0.015625)"/>
       <path id="DejaVuSans-75" d="M 544 1381 
L 544 3500 
L 1119 3500 
L 1119 1403 
Q 1119 906 1312 657 
Q 1506 409 1894 409 
Q 2359 409 2629 706 
Q 2900 1003 2900 1516 
L 2900 3500 
L 3475 3500 
L 3475 0 
L 2900 0 
L 2900 538 
Q 2691 219 2414 64 
Q 2138 -91 1772 -91 
Q 1169 -91 856 284 
Q 544 659 544 1381 
z
M 1991 3584 
L 1991 3584 
z
" transform="scale(0.015625)"/>
       <path id="DejaVuSans-6e" d="M 3513 2113 
L 3513 0 
L 2938 0 
L 2938 2094 
Q 2938 2591 2744 2837 
Q 2550 3084 2163 3084 
Q 1697 3084 1428 2787 
Q 1159 2491 1159 1978 
L 1159 0 
L 581 0 
L 581 3500 
L 1159 3500 
L 1159 2956 
Q 1366 3272 1645 3428 
Q 1925 3584 2291 3584 
Q 2894 3584 3203 3211 
Q 3513 2838 3513 2113 
z
" transform="scale(0.015625)"/>
       <path id="DejaVuSans-69" d="M 603 3500 
L 1178 3500 
L 1178 0 
L 603 0 
L 603 3500 
z
M 603 4863 
L 1178 4863 
L 1178 4134 
L 603 4134 
L 603 4863 
z
" transform="scale(0.015625)"/>
       <path id="DejaVuSans-61" d="M 2194 1759 
Q 1497 1759 1228 1600 
Q 959 1441 959 1056 
Q 959 750 1161 570 
Q 1363 391 1709 391 
Q 2188 391 2477 730 
Q 2766 1069 2766 1631 
L 2766 1759 
L 2194 1759 
z
M 3341 1997 
L 3341 0 
L 2766 0 
L 2766 531 
Q 2569 213 2275 61 
Q 1981 -91 1556 -91 
Q 1019 -91 701 211 
Q 384 513 384 1019 
Q 384 1609 779 1909 
Q 1175 2209 1959 2209 
L 2766 2209 
L 2766 2266 
Q 2766 2663 2505 2880 
Q 2244 3097 1772 3097 
Q 1472 3097 1187 3025 
Q 903 2953 641 2809 
L 641 3341 
Q 956 3463 1253 3523 
Q 1550 3584 1831 3584 
Q 2591 3584 2966 3190 
Q 3341 2797 3341 1997 
z
" transform="scale(0.015625)"/>
       <path id="DejaVuSans-20" transform="scale(0.015625)"/>
       <path id="DejaVuSans-Oblique-3bd" d="M 959 0 
L 572 3500 
L 1191 3500 
L 1522 563 
Q 1972 950 2391 1488 
Q 2706 1891 2788 2241 
Q 2825 2406 2809 2719 
Q 2794 3091 2544 3500 
L 3125 3500 
L 3125 3500 
Q 3288 3222 3353 2834 
Q 3416 2478 3369 2234 
Q 3250 1622 2719 1075 
Q 2025 363 1572 0 
L 959 0 
z
" transform="scale(0.015625)"/>
       <path id="DejaVuSans-5b" d="M 550 4863 
L 1875 4863 
L 1875 4416 
L 1125 4416 
L 1125 -397 
L 1875 -397 
L 1875 -844 
L 550 -844 
L 550 4863 
z
" transform="scale(0.015625)"/>
       <path id="DejaVuSans-Oblique-73" d="M 3200 3397 
L 3091 2853 
Q 2863 2978 2609 3040 
Q 2356 3103 2088 3103 
Q 1634 3103 1373 2948 
Q 1113 2794 1113 2528 
Q 1113 2219 1719 2053 
Q 1766 2041 1788 2034 
L 1972 1978 
Q 2547 1819 2739 1644 
Q 2931 1469 2931 1166 
Q 2931 609 2489 259 
Q 2047 -91 1331 -91 
Q 1053 -91 747 -37 
Q 441 16 72 128 
L 184 722 
Q 500 559 806 475 
Q 1113 391 1394 391 
Q 1816 391 2080 572 
Q 2344 753 2344 1031 
Q 2344 1331 1650 1516 
L 1591 1531 
L 1394 1581 
Q 956 1697 753 1886 
Q 550 2075 550 2369 
Q 550 2928 970 3256 
Q 1391 3584 2113 3584 
Q 2397 3584 2667 3537 
Q 2938 3491 3200 3397 
z
" transform="scale(0.015625)"/>
       <path id="DejaVuSans-2212" d="M 678 2272 
L 4684 2272 
L 4684 1741 
L 678 1741 
L 678 2272 
z
" transform="scale(0.015625)"/>
       <path id="DejaVuSans-5d" d="M 1947 4863 
L 1947 -844 
L 622 -844 
L 622 -397 
L 1369 -397 
L 1369 4416 
L 622 4416 
L 622 4863 
L 1947 4863 
z
" transform="scale(0.015625)"/>
      </defs>
      <use xlink:href="#DejaVuSans-66" transform="translate(0 0.684375)"/>
      <use xlink:href="#DejaVuSans-72" transform="translate(35.205078 0.684375)"/>
      <use xlink:href="#DejaVuSans-65" transform="translate(76.318359 0.684375)"/>
      <use xlink:href="#DejaVuSans-63" transform="translate(137.841797 0.684375)"/>
      <use xlink:href="#DejaVuSans-75" transform="translate(192.822266 0.684375)"/>
      <use xlink:href="#DejaVuSans-65" transform="translate(256.201172 0.684375)"/>
      <use xlink:href="#DejaVuSans-6e" transform="translate(317.724609 0.684375)"/>
      <use xlink:href="#DejaVuSans-63" transform="translate(381.103516 0.684375)"/>
      <use xlink:href="#DejaVuSans-69" transform="translate(436.083984 0.684375)"/>
      <use xlink:href="#DejaVuSans-61" transform="translate(463.867188 0.684375)"/>
      <use xlink:href="#DejaVuSans-20" transform="translate(525.146484 0.684375)"/>
      <use xlink:href="#DejaVuSans-Oblique-3bd" transform="translate(556.933594 0.684375)"/>
      <use xlink:href="#DejaVuSans-5b" transform="translate(645.263347 0.684375)"/>
      <use xlink:href="#DejaVuSans-Oblique-73" transform="translate(684.277019 0.684375)"/>
      <use xlink:href="#DejaVuSans-2212" transform="translate(741.026524 38.965625)scale(0.7)"/>
      <use xlink:href="#DejaVuSans-31" transform="translate(799.678868 38.965625)scale(0.7)"/>
      <use xlink:href="#DejaVuSans-5d" transform="translate(846.949376 0.684375)"/>
     </g>
    </g>
    <g id="text_7">
     <!-- 1e14 -->
     <g transform="translate(1270.759375 671.79375)scale(0.1 -0.1)">
      <use xlink:href="#DejaVuSans-31"/>
      <use xlink:href="#DejaVuSans-65" x="63.623047"/>
      <use xlink:href="#DejaVuSans-31" x="125.146484"/>
      <use xlink:href="#DejaVuSans-34" x="188.769531"/>
     </g>
    </g>
   </g>
   <g id="matplotlib.axis_2">
    <g id="ytick_1">
     <g id="line2d_11">
      <path d="M 180 581.854945 
L 1296 581.854945 
" clip-path="url(#pf1469f6628)" style="fill: none; stroke: #b0b0b0; stroke-width: 0.8; stroke-linecap: square"/>
     </g>
     <g id="line2d_12">
      <defs>
       <path id="m1eff0c7b57" d="M 0 0 
L -3.5 0 
" style="stroke: #000000; stroke-width: 0.8"/>
      </defs>
      <g>
       <use xlink:href="#m1eff0c7b57" x="180" y="581.854945" style="stroke: #000000; stroke-width: 0.8"/>
      </g>
     </g>
     <g id="text_8">
      <!-- 3.6 -->
      <g transform="translate(133.242188 591.352992)scale(0.25 -0.25)">
       <defs>
        <path id="DejaVuSans-33" d="M 2597 2516 
Q 3050 2419 3304 2112 
Q 3559 1806 3559 1356 
Q 3559 666 3084 287 
Q 2609 -91 1734 -91 
Q 1441 -91 1130 -33 
Q 819 25 488 141 
L 488 750 
Q 750 597 1062 519 
Q 1375 441 1716 441 
Q 2309 441 2620 675 
Q 2931 909 2931 1356 
Q 2931 1769 2642 2001 
Q 2353 2234 1838 2234 
L 1294 2234 
L 1294 2753 
L 1863 2753 
Q 2328 2753 2575 2939 
Q 2822 3125 2822 3475 
Q 2822 3834 2567 4026 
Q 2313 4219 1838 4219 
Q 1578 4219 1281 4162 
Q 984 4106 628 3988 
L 628 4550 
Q 988 4650 1302 4700 
Q 1616 4750 1894 4750 
Q 2613 4750 3031 4423 
Q 3450 4097 3450 3541 
Q 3450 3153 3228 2886 
Q 3006 2619 2597 2516 
z
" transform="scale(0.015625)"/>
        <path id="DejaVuSans-36" d="M 2113 2584 
Q 1688 2584 1439 2293 
Q 1191 2003 1191 1497 
Q 1191 994 1439 701 
Q 1688 409 2113 409 
Q 2538 409 2786 701 
Q 3034 994 3034 1497 
Q 3034 2003 2786 2293 
Q 2538 2584 2113 2584 
z
M 3366 4563 
L 3366 3988 
Q 3128 4100 2886 4159 
Q 2644 4219 2406 4219 
Q 1781 4219 1451 3797 
Q 1122 3375 1075 2522 
Q 1259 2794 1537 2939 
Q 1816 3084 2150 3084 
Q 2853 3084 3261 2657 
Q 3669 2231 3669 1497 
Q 3669 778 3244 343 
Q 2819 -91 2113 -91 
Q 1303 -91 875 529 
Q 447 1150 447 2328 
Q 447 3434 972 4092 
Q 1497 4750 2381 4750 
Q 2619 4750 2861 4703 
Q 3103 4656 3366 4563 
z
" transform="scale(0.015625)"/>
       </defs>
       <use xlink:href="#DejaVuSans-33"/>
       <use xlink:href="#DejaVuSans-2e" x="63.623047"/>
       <use xlink:href="#DejaVuSans-36" x="95.410156"/>
      </g>
     </g>
    </g>
    <g id="ytick_2">
     <g id="line2d_13">
      <path d="M 180 468.795457 
L 1296 468.795457 
" clip-path="url(#pf1469f6628)" style="fill: none; stroke: #b0b0b0; stroke-width: 0.8; stroke-linecap: square"/>
     </g>
     <g id="line2d_14">
      <g>
       <use xlink:href="#m1eff0c7b57" x="180" y="468.795457" style="stroke: #000000; stroke-width: 0.8"/>
      </g>
     </g>
     <g id="text_9">
      <!-- 3.7 -->
      <g transform="translate(133.242188 478.293504)scale(0.25 -0.25)">
       <use xlink:href="#DejaVuSans-33"/>
       <use xlink:href="#DejaVuSans-2e" x="63.623047"/>
       <use xlink:href="#DejaVuSans-37" x="95.410156"/>
      </g>
     </g>
    </g>
    <g id="ytick_3">
     <g id="line2d_15">
      <path d="M 180 355.73597 
L 1296 355.73597 
" clip-path="url(#pf1469f6628)" style="fill: none; stroke: #b0b0b0; stroke-width: 0.8; stroke-linecap: square"/>
     </g>
     <g id="line2d_16">
      <g>
       <use xlink:href="#m1eff0c7b57" x="180" y="355.73597" style="stroke: #000000; stroke-width: 0.8"/>
      </g>
     </g>
     <g id="text_10">
      <!-- 3.8 -->
      <g transform="translate(133.242188 365.234017)scale(0.25 -0.25)">
       <use xlink:href="#DejaVuSans-33"/>
       <use xlink:href="#DejaVuSans-2e" x="63.623047"/>
       <use xlink:href="#DejaVuSans-38" x="95.410156"/>
      </g>
     </g>
    </g>
    <g id="ytick_4">
     <g id="line2d_17">
      <path d="M 180 242.676482 
L 1296 242.676482 
" clip-path="url(#pf1469f6628)" style="fill: none; stroke: #b0b0b0; stroke-width: 0.8; stroke-linecap: square"/>
     </g>
     <g id="line2d_18">
      <g>
       <use xlink:href="#m1eff0c7b57" x="180" y="242.676482" style="stroke: #000000; stroke-width: 0.8"/>
      </g>
     </g>
     <g id="text_11">
      <!-- 3.9 -->
      <g transform="translate(133.242188 252.174529)scale(0.25 -0.25)">
       <use xlink:href="#DejaVuSans-33"/>
       <use xlink:href="#DejaVuSans-2e" x="63.623047"/>
       <use xlink:href="#DejaVuSans-39" x="95.410156"/>
      </g>
     </g>
    </g>
    <g id="ytick_5">
     <g id="line2d_19">
      <path d="M 180 129.616995 
L 1296 129.616995 
" clip-path="url(#pf1469f6628)" style="fill: none; stroke: #b0b0b0; stroke-width: 0.8; stroke-linecap: square"/>
     </g>
     <g id="line2d_20">
      <g>
       <use xlink:href="#m1eff0c7b57" x="180" y="129.616995" style="stroke: #000000; stroke-width: 0.8"/>
      </g>
     </g>
     <g id="text_12">
      <!-- 4.0 -->
      <g transform="translate(133.242188 139.115042)scale(0.25 -0.25)">
       <use xlink:href="#DejaVuSans-34"/>
       <use xlink:href="#DejaVuSans-2e" x="63.623047"/>
       <use xlink:href="#DejaVuSans-30" x="95.410156"/>
      </g>
     </g>
    </g>
    <g id="text_13">
     <!-- Coeficiente de absorción $\alpha~[cm^{-1}]$ -->
     <g transform="translate(127.1625 443.75)rotate(-90)scale(0.1 -0.1)">
      <defs>
       <path id="DejaVuSans-43" d="M 4122 4306 
L 4122 3641 
Q 3803 3938 3442 4084 
Q 3081 4231 2675 4231 
Q 1875 4231 1450 3742 
Q 1025 3253 1025 2328 
Q 1025 1406 1450 917 
Q 1875 428 2675 428 
Q 3081 428 3442 575 
Q 3803 722 4122 1019 
L 4122 359 
Q 3791 134 3420 21 
Q 3050 -91 2638 -91 
Q 1578 -91 968 557 
Q 359 1206 359 2328 
Q 359 3453 968 4101 
Q 1578 4750 2638 4750 
Q 3056 4750 3426 4639 
Q 3797 4528 4122 4306 
z
" transform="scale(0.015625)"/>
       <path id="DejaVuSans-6f" d="M 1959 3097 
Q 1497 3097 1228 2736 
Q 959 2375 959 1747 
Q 959 1119 1226 758 
Q 1494 397 1959 397 
Q 2419 397 2687 759 
Q 2956 1122 2956 1747 
Q 2956 2369 2687 2733 
Q 2419 3097 1959 3097 
z
M 1959 3584 
Q 2709 3584 3137 3096 
Q 3566 2609 3566 1747 
Q 3566 888 3137 398 
Q 2709 -91 1959 -91 
Q 1206 -91 779 398 
Q 353 888 353 1747 
Q 353 2609 779 3096 
Q 1206 3584 1959 3584 
z
" transform="scale(0.015625)"/>
       <path id="DejaVuSans-74" d="M 1172 4494 
L 1172 3500 
L 2356 3500 
L 2356 3053 
L 1172 3053 
L 1172 1153 
Q 1172 725 1289 603 
Q 1406 481 1766 481 
L 2356 481 
L 2356 0 
L 1766 0 
Q 1100 0 847 248 
Q 594 497 594 1153 
L 594 3053 
L 172 3053 
L 172 3500 
L 594 3500 
L 594 4494 
L 1172 4494 
z
" transform="scale(0.015625)"/>
       <path id="DejaVuSans-64" d="M 2906 2969 
L 2906 4863 
L 3481 4863 
L 3481 0 
L 2906 0 
L 2906 525 
Q 2725 213 2448 61 
Q 2172 -91 1784 -91 
Q 1150 -91 751 415 
Q 353 922 353 1747 
Q 353 2572 751 3078 
Q 1150 3584 1784 3584 
Q 2172 3584 2448 3432 
Q 2725 3281 2906 2969 
z
M 947 1747 
Q 947 1113 1208 752 
Q 1469 391 1925 391 
Q 2381 391 2643 752 
Q 2906 1113 2906 1747 
Q 2906 2381 2643 2742 
Q 2381 3103 1925 3103 
Q 1469 3103 1208 2742 
Q 947 2381 947 1747 
z
" transform="scale(0.015625)"/>
       <path id="DejaVuSans-62" d="M 3116 1747 
Q 3116 2381 2855 2742 
Q 2594 3103 2138 3103 
Q 1681 3103 1420 2742 
Q 1159 2381 1159 1747 
Q 1159 1113 1420 752 
Q 1681 391 2138 391 
Q 2594 391 2855 752 
Q 3116 1113 3116 1747 
z
M 1159 2969 
Q 1341 3281 1617 3432 
Q 1894 3584 2278 3584 
Q 2916 3584 3314 3078 
Q 3713 2572 3713 1747 
Q 3713 922 3314 415 
Q 2916 -91 2278 -91 
Q 1894 -91 1617 61 
Q 1341 213 1159 525 
L 1159 0 
L 581 0 
L 581 4863 
L 1159 4863 
L 1159 2969 
z
" transform="scale(0.015625)"/>
       <path id="DejaVuSans-73" d="M 2834 3397 
L 2834 2853 
Q 2591 2978 2328 3040 
Q 2066 3103 1784 3103 
Q 1356 3103 1142 2972 
Q 928 2841 928 2578 
Q 928 2378 1081 2264 
Q 1234 2150 1697 2047 
L 1894 2003 
Q 2506 1872 2764 1633 
Q 3022 1394 3022 966 
Q 3022 478 2636 193 
Q 2250 -91 1575 -91 
Q 1294 -91 989 -36 
Q 684 19 347 128 
L 347 722 
Q 666 556 975 473 
Q 1284 391 1588 391 
Q 1994 391 2212 530 
Q 2431 669 2431 922 
Q 2431 1156 2273 1281 
Q 2116 1406 1581 1522 
L 1381 1569 
Q 847 1681 609 1914 
Q 372 2147 372 2553 
Q 372 3047 722 3315 
Q 1072 3584 1716 3584 
Q 2034 3584 2315 3537 
Q 2597 3491 2834 3397 
z
" transform="scale(0.015625)"/>
       <path id="DejaVuSans-f3" d="M 1959 3097 
Q 1497 3097 1228 2736 
Q 959 2375 959 1747 
Q 959 1119 1226 758 
Q 1494 397 1959 397 
Q 2419 397 2687 759 
Q 2956 1122 2956 1747 
Q 2956 2369 2687 2733 
Q 2419 3097 1959 3097 
z
M 1959 3584 
Q 2709 3584 3137 3096 
Q 3566 2609 3566 1747 
Q 3566 888 3137 398 
Q 2709 -91 1959 -91 
Q 1206 -91 779 398 
Q 353 888 353 1747 
Q 353 2609 779 3096 
Q 1206 3584 1959 3584 
z
M 2394 5119 
L 3016 5119 
L 1998 3944 
L 1519 3944 
L 2394 5119 
z
" transform="scale(0.015625)"/>
       <path id="DejaVuSans-Oblique-3b1" d="M 2619 1628 
L 2622 2350 
Q 2625 3088 2069 3091 
Q 1653 3094 1394 2747 
Q 1069 2319 959 1747 
Q 825 1059 994 731 
Q 1169 397 1547 397 
Q 1966 397 2319 1063 
L 2619 1628 
z
M 2166 3578 
Q 3141 3594 3128 2584 
Q 3128 2584 3616 3500 
L 4128 3500 
L 3119 1603 
L 3109 919 
Q 3109 766 3194 638 
Q 3291 488 3391 488 
L 3669 488 
L 3575 0 
L 3228 0 
Q 2934 0 2722 263 
Q 2622 394 2619 669 
Q 2416 334 2066 50 
Q 1900 -81 1453 -78 
Q 722 -72 456 397 
Q 184 884 353 1747 
Q 534 2675 1009 3097 
Q 1544 3569 2166 3578 
z
" transform="scale(0.015625)"/>
       <path id="DejaVuSans-Oblique-63" d="M 3431 3366 
L 3316 2797 
Q 3109 2947 2876 3022 
Q 2644 3097 2394 3097 
Q 2119 3097 1870 3000 
Q 1622 2903 1453 2725 
Q 1184 2453 1037 2087 
Q 891 1722 891 1331 
Q 891 859 1127 628 
Q 1363 397 1844 397 
Q 2081 397 2348 469 
Q 2616 541 2906 684 
L 2797 116 
Q 2547 13 2283 -39 
Q 2019 -91 1741 -91 
Q 1044 -91 669 257 
Q 294 606 294 1253 
Q 294 1797 489 2255 
Q 684 2713 1069 3078 
Q 1331 3328 1684 3456 
Q 2038 3584 2456 3584 
Q 2700 3584 2940 3529 
Q 3181 3475 3431 3366 
z
" transform="scale(0.015625)"/>
       <path id="DejaVuSans-Oblique-6d" d="M 5747 2113 
L 5338 0 
L 4763 0 
L 5166 2094 
Q 5191 2228 5203 2325 
Q 5216 2422 5216 2491 
Q 5216 2772 5059 2928 
Q 4903 3084 4622 3084 
Q 4203 3084 3875 2770 
Q 3547 2456 3450 1953 
L 3066 0 
L 2491 0 
L 2900 2094 
Q 2925 2209 2937 2307 
Q 2950 2406 2950 2484 
Q 2950 2769 2794 2926 
Q 2638 3084 2363 3084 
Q 1938 3084 1609 2770 
Q 1281 2456 1184 1953 
L 800 0 
L 225 0 
L 909 3500 
L 1484 3500 
L 1375 2956 
Q 1609 3263 1923 3423 
Q 2238 3584 2597 3584 
Q 2978 3584 3223 3384 
Q 3469 3184 3519 2828 
Q 3781 3197 4126 3390 
Q 4472 3584 4856 3584 
Q 5306 3584 5551 3325 
Q 5797 3066 5797 2591 
Q 5797 2488 5784 2364 
Q 5772 2241 5747 2113 
z
" transform="scale(0.015625)"/>
      </defs>
      <use xlink:href="#DejaVuSans-43" transform="translate(0 0.684375)"/>
      <use xlink:href="#DejaVuSans-6f" transform="translate(69.824219 0.684375)"/>
      <use xlink:href="#DejaVuSans-65" transform="translate(131.005859 0.684375)"/>
      <use xlink:href="#DejaVuSans-66" transform="translate(192.529297 0.684375)"/>
      <use xlink:href="#DejaVuSans-69" transform="translate(227.734375 0.684375)"/>
      <use xlink:href="#DejaVuSans-63" transform="translate(255.517578 0.684375)"/>
      <use xlink:href="#DejaVuSans-69" transform="translate(310.498047 0.684375)"/>
      <use xlink:href="#DejaVuSans-65" transform="translate(338.28125 0.684375)"/>
      <use xlink:href="#DejaVuSans-6e" transform="translate(399.804688 0.684375)"/>
      <use xlink:href="#DejaVuSans-74" transform="translate(463.183594 0.684375)"/>
      <use xlink:href="#DejaVuSans-65" transform="translate(502.392578 0.684375)"/>
      <use xlink:href="#DejaVuSans-20" transform="translate(563.916016 0.684375)"/>
      <use xlink:href="#DejaVuSans-64" transform="translate(595.703125 0.684375)"/>
      <use xlink:href="#DejaVuSans-65" transform="translate(659.179688 0.684375)"/>
      <use xlink:href="#DejaVuSans-20" transform="translate(720.703125 0.684375)"/>
      <use xlink:href="#DejaVuSans-61" transform="translate(752.490234 0.684375)"/>
      <use xlink:href="#DejaVuSans-62" transform="translate(813.769531 0.684375)"/>
      <use xlink:href="#DejaVuSans-73" transform="translate(877.246094 0.684375)"/>
      <use xlink:href="#DejaVuSans-6f" transform="translate(929.345703 0.684375)"/>
      <use xlink:href="#DejaVuSans-72" transform="translate(990.527344 0.684375)"/>
      <use xlink:href="#DejaVuSans-63" transform="translate(1031.640625 0.684375)"/>
      <use xlink:href="#DejaVuSans-69" transform="translate(1086.621094 0.684375)"/>
      <use xlink:href="#DejaVuSans-f3" transform="translate(1114.404297 0.684375)"/>
      <use xlink:href="#DejaVuSans-6e" transform="translate(1175.585938 0.684375)"/>
      <use xlink:href="#DejaVuSans-20" transform="translate(1238.964844 0.684375)"/>
      <use xlink:href="#DejaVuSans-Oblique-3b1" transform="translate(1270.751953 0.684375)"/>
      <use xlink:href="#DejaVuSans-5b" transform="translate(1369.1403 0.684375)"/>
      <use xlink:href="#DejaVuSans-Oblique-63" transform="translate(1408.153972 0.684375)"/>
      <use xlink:href="#DejaVuSans-Oblique-6d" transform="translate(1463.134441 0.684375)"/>
      <use xlink:href="#DejaVuSans-2212" transform="translate(1565.196446 38.965625)scale(0.7)"/>
      <use xlink:href="#DejaVuSans-31" transform="translate(1623.84879 38.965625)scale(0.7)"/>
      <use xlink:href="#DejaVuSans-5d" transform="translate(1671.119298 0.684375)"/>
     </g>
    </g>
   </g>
   <g id="line2d_21">
    <defs>
     <path id="m5f87c9a2af" d="M 0 3 
C 0.795609 3 1.55874 2.683901 2.12132 2.12132 
C 2.683901 1.55874 3 0.795609 3 0 
C 3 -0.795609 2.683901 -1.55874 2.12132 -2.12132 
C 1.55874 -2.683901 0.795609 -3 0 -3 
C -0.795609 -3 -1.55874 -2.683901 -2.12132 -2.12132 
C -2.683901 -1.55874 -3 -0.795609 -3 0 
C -3 0.795609 -2.683901 1.55874 -2.12132 2.12132 
C -1.55874 2.683901 -0.795609 3 0 3 
z
" style="stroke: #1f77b4"/>
    </defs>
    <g clip-path="url(#pf1469f6628)">
     <use xlink:href="#m5f87c9a2af" x="1245.272727" y="605.290909" style="fill: #1f77b4; stroke: #1f77b4"/>
     <use xlink:href="#m5f87c9a2af" x="1234.000985" y="550.328376" style="fill: #1f77b4; stroke: #1f77b4"/>
     <use xlink:href="#m5f87c9a2af" x="1222.752586" y="497.271057" style="fill: #1f77b4; stroke: #1f77b4"/>
     <use xlink:href="#m5f87c9a2af" x="1211.526263" y="452.381646" style="fill: #1f77b4; stroke: #1f77b4"/>
     <use xlink:href="#m5f87c9a2af" x="1200.323143" y="420.73806" style="fill: #1f77b4; stroke: #1f77b4"/>
     <use xlink:href="#m5f87c9a2af" x="1189.143155" y="396.252906" style="fill: #1f77b4; stroke: #1f77b4"/>
     <use xlink:href="#m5f87c9a2af" x="1177.98504" y="365.857481" style="fill: #1f77b4; stroke: #1f77b4"/>
     <use xlink:href="#m5f87c9a2af" x="1166.849918" y="328.772586" style="fill: #1f77b4; stroke: #1f77b4"/>
     <use xlink:href="#m5f87c9a2af" x="1155.737719" y="285.174848" style="fill: #1f77b4; stroke: #1f77b4"/>
     <use xlink:href="#m5f87c9a2af" x="1144.647193" y="247.925517" style="fill: #1f77b4; stroke: #1f77b4"/>
     <use xlink:href="#m5f87c9a2af" x="1133.579454" y="219.498083" style="fill: #1f77b4; stroke: #1f77b4"/>
     <use xlink:href="#m5f87c9a2af" x="1122.53443" y="192.538676" style="fill: #1f77b4; stroke: #1f77b4"/>
     <use xlink:href="#m5f87c9a2af" x="1111.510881" y="165.836232" style="fill: #1f77b4; stroke: #1f77b4"/>
     <use xlink:href="#m5f87c9a2af" x="1100.509914" y="142.363611" style="fill: #1f77b4; stroke: #1f77b4"/>
     <use xlink:href="#m5f87c9a2af" x="1089.53146" y="129.883232" style="fill: #1f77b4; stroke: #1f77b4"/>
     <use xlink:href="#m5f87c9a2af" x="1078.575449" y="121.437721" style="fill: #1f77b4; stroke: #1f77b4"/>
     <use xlink:href="#m5f87c9a2af" x="1067.640651" y="120.550182" style="fill: #1f77b4; stroke: #1f77b4"/>
     <use xlink:href="#m5f87c9a2af" x="1056.727004" y="123.875355" style="fill: #1f77b4; stroke: #1f77b4"/>
     <use xlink:href="#m5f87c9a2af" x="1045.836762" y="129.181712" style="fill: #1f77b4; stroke: #1f77b4"/>
     <use xlink:href="#m5f87c9a2af" x="1034.96754" y="129.682875" style="fill: #1f77b4; stroke: #1f77b4"/>
     <use xlink:href="#m5f87c9a2af" x="1024.120431" y="126.80765" style="fill: #1f77b4; stroke: #1f77b4"/>
     <use xlink:href="#m5f87c9a2af" x="1013.294216" y="124.27051" style="fill: #1f77b4; stroke: #1f77b4"/>
     <use xlink:href="#m5f87c9a2af" x="1002.489983" y="128.428019" style="fill: #1f77b4; stroke: #1f77b4"/>
     <use xlink:href="#m5f87c9a2af" x="991.707667" y="128.841983" style="fill: #1f77b4; stroke: #1f77b4"/>
     <use xlink:href="#m5f87c9a2af" x="980.946055" y="138.149901" style="fill: #1f77b4; stroke: #1f77b4"/>
     <use xlink:href="#m5f87c9a2af" x="970.206231" y="145.508058" style="fill: #1f77b4; stroke: #1f77b4"/>
     <use xlink:href="#m5f87c9a2af" x="959.488129" y="155.182201" style="fill: #1f77b4; stroke: #1f77b4"/>
     <use xlink:href="#m5f87c9a2af" x="948.791684" y="166.286639" style="fill: #1f77b4; stroke: #1f77b4"/>
     <use xlink:href="#m5f87c9a2af" x="938.115693" y="180.347418" style="fill: #1f77b4; stroke: #1f77b4"/>
     <use xlink:href="#m5f87c9a2af" x="927.460098" y="201.413126" style="fill: #1f77b4; stroke: #1f77b4"/>
     <use xlink:href="#m5f87c9a2af" x="916.827105" y="224.365865" style="fill: #1f77b4; stroke: #1f77b4"/>
     <use xlink:href="#m5f87c9a2af" x="906.214383" y="241.466558" style="fill: #1f77b4; stroke: #1f77b4"/>
     <use xlink:href="#m5f87c9a2af" x="895.623001" y="257.00771" style="fill: #1f77b4; stroke: #1f77b4"/>
     <use xlink:href="#m5f87c9a2af" x="885.05177" y="264.104942" style="fill: #1f77b4; stroke: #1f77b4"/>
     <use xlink:href="#m5f87c9a2af" x="874.502879" y="273.424525" style="fill: #1f77b4; stroke: #1f77b4"/>
     <use xlink:href="#m5f87c9a2af" x="863.972896" y="281.62587" style="fill: #1f77b4; stroke: #1f77b4"/>
     <use xlink:href="#m5f87c9a2af" x="853.465125" y="294.49813" style="fill: #1f77b4; stroke: #1f77b4"/>
     <use xlink:href="#m5f87c9a2af" x="842.977264" y="315.901767" style="fill: #1f77b4; stroke: #1f77b4"/>
     <use xlink:href="#m5f87c9a2af" x="832.510371" y="327.689686" style="fill: #1f77b4; stroke: #1f77b4"/>
     <use xlink:href="#m5f87c9a2af" x="822.064383" y="332.661069" style="fill: #1f77b4; stroke: #1f77b4"/>
     <use xlink:href="#m5f87c9a2af" x="811.638128" y="345.165592" style="fill: #1f77b4; stroke: #1f77b4"/>
     <use xlink:href="#m5f87c9a2af" x="801.232658" y="360.325364" style="fill: #1f77b4; stroke: #1f77b4"/>
     <use xlink:href="#m5f87c9a2af" x="790.846805" y="383.967323" style="fill: #1f77b4; stroke: #1f77b4"/>
     <use xlink:href="#m5f87c9a2af" x="780.482722" y="404.332655" style="fill: #1f77b4; stroke: #1f77b4"/>
     <use xlink:href="#m5f87c9a2af" x="770.138137" y="423.40361" style="fill: #1f77b4; stroke: #1f77b4"/>
     <use xlink:href="#m5f87c9a2af" x="759.812994" y="438.885385" style="fill: #1f77b4; stroke: #1f77b4"/>
     <use xlink:href="#m5f87c9a2af" x="749.509436" y="442.174347" style="fill: #1f77b4; stroke: #1f77b4"/>
     <use xlink:href="#m5f87c9a2af" x="739.225203" y="450.010215" style="fill: #1f77b4; stroke: #1f77b4"/>
     <use xlink:href="#m5f87c9a2af" x="728.960242" y="463.121689" style="fill: #1f77b4; stroke: #1f77b4"/>
     <use xlink:href="#m5f87c9a2af" x="718.716681" y="467.063264" style="fill: #1f77b4; stroke: #1f77b4"/>
     <use xlink:href="#m5f87c9a2af" x="708.492274" y="470.200152" style="fill: #1f77b4; stroke: #1f77b4"/>
     <use xlink:href="#m5f87c9a2af" x="698.286969" y="461.764592" style="fill: #1f77b4; stroke: #1f77b4"/>
     <use xlink:href="#m5f87c9a2af" x="688.102883" y="458.67962" style="fill: #1f77b4; stroke: #1f77b4"/>
     <use xlink:href="#m5f87c9a2af" x="677.937784" y="455.545718" style="fill: #1f77b4; stroke: #1f77b4"/>
     <use xlink:href="#m5f87c9a2af" x="667.791618" y="451.523286" style="fill: #1f77b4; stroke: #1f77b4"/>
     <use xlink:href="#m5f87c9a2af" x="657.666491" y="449.299043" style="fill: #1f77b4; stroke: #1f77b4"/>
     <use xlink:href="#m5f87c9a2af" x="647.560184" y="447.422853" style="fill: #1f77b4; stroke: #1f77b4"/>
     <use xlink:href="#m5f87c9a2af" x="637.473721" y="445.267328" style="fill: #1f77b4; stroke: #1f77b4"/>
     <use xlink:href="#m5f87c9a2af" x="627.405968" y="444.994946" style="fill: #1f77b4; stroke: #1f77b4"/>
     <use xlink:href="#m5f87c9a2af" x="617.357947" y="448.526917" style="fill: #1f77b4; stroke: #1f77b4"/>
     <use xlink:href="#m5f87c9a2af" x="607.329598" y="457.889073" style="fill: #1f77b4; stroke: #1f77b4"/>
     <use xlink:href="#m5f87c9a2af" x="597.320865" y="462.573962" style="fill: #1f77b4; stroke: #1f77b4"/>
     <use xlink:href="#m5f87c9a2af" x="587.330624" y="470.292536" style="fill: #1f77b4; stroke: #1f77b4"/>
     <use xlink:href="#m5f87c9a2af" x="577.359888" y="473.98381" style="fill: #1f77b4; stroke: #1f77b4"/>
     <use xlink:href="#m5f87c9a2af" x="567.407539" y="478.514206" style="fill: #1f77b4; stroke: #1f77b4"/>
     <use xlink:href="#m5f87c9a2af" x="557.475645" y="487.25157" style="fill: #1f77b4; stroke: #1f77b4"/>
     <use xlink:href="#m5f87c9a2af" x="547.562027" y="492.432417" style="fill: #1f77b4; stroke: #1f77b4"/>
     <use xlink:href="#m5f87c9a2af" x="537.666637" y="497.32031" style="fill: #1f77b4; stroke: #1f77b4"/>
     <use xlink:href="#m5f87c9a2af" x="527.791531" y="497.28001" style="fill: #1f77b4; stroke: #1f77b4"/>
     <use xlink:href="#m5f87c9a2af" x="517.934543" y="503.269338" style="fill: #1f77b4; stroke: #1f77b4"/>
     <use xlink:href="#m5f87c9a2af" x="508.095625" y="504.871742" style="fill: #1f77b4; stroke: #1f77b4"/>
     <use xlink:href="#m5f87c9a2af" x="498.276822" y="503.484204" style="fill: #1f77b4; stroke: #1f77b4"/>
     <use xlink:href="#m5f87c9a2af" x="488.475981" y="504.968564" style="fill: #1f77b4; stroke: #1f77b4"/>
     <use xlink:href="#m5f87c9a2af" x="478.693053" y="503.440146" style="fill: #1f77b4; stroke: #1f77b4"/>
     <use xlink:href="#m5f87c9a2af" x="468.930073" y="500.662069" style="fill: #1f77b4; stroke: #1f77b4"/>
     <use xlink:href="#m5f87c9a2af" x="459.184901" y="502.094093" style="fill: #1f77b4; stroke: #1f77b4"/>
     <use xlink:href="#m5f87c9a2af" x="449.458527" y="501.084412" style="fill: #1f77b4; stroke: #1f77b4"/>
     <use xlink:href="#m5f87c9a2af" x="439.749858" y="501.212025" style="fill: #1f77b4; stroke: #1f77b4"/>
     <use xlink:href="#m5f87c9a2af" x="430.059883" y="496.510942" style="fill: #1f77b4; stroke: #1f77b4"/>
     <use xlink:href="#m5f87c9a2af" x="420.388547" y="497.553046" style="fill: #1f77b4; stroke: #1f77b4"/>
     <use xlink:href="#m5f87c9a2af" x="410.735796" y="497.157265" style="fill: #1f77b4; stroke: #1f77b4"/>
     <use xlink:href="#m5f87c9a2af" x="401.100548" y="499.787556" style="fill: #1f77b4; stroke: #1f77b4"/>
     <use xlink:href="#m5f87c9a2af" x="391.483784" y="505.139709" style="fill: #1f77b4; stroke: #1f77b4"/>
     <use xlink:href="#m5f87c9a2af" x="381.884423" y="510.423633" style="fill: #1f77b4; stroke: #1f77b4"/>
     <use xlink:href="#m5f87c9a2af" x="372.304467" y="510.380027" style="fill: #1f77b4; stroke: #1f77b4"/>
     <use xlink:href="#m5f87c9a2af" x="362.741814" y="512.968552" style="fill: #1f77b4; stroke: #1f77b4"/>
     <use xlink:href="#m5f87c9a2af" x="353.196416" y="516.894403" style="fill: #1f77b4; stroke: #1f77b4"/>
     <use xlink:href="#m5f87c9a2af" x="343.670264" y="517.780945" style="fill: #1f77b4; stroke: #1f77b4"/>
     <use xlink:href="#m5f87c9a2af" x="334.161268" y="517.868156" style="fill: #1f77b4; stroke: #1f77b4"/>
     <use xlink:href="#m5f87c9a2af" x="324.66938" y="519.395806" style="fill: #1f77b4; stroke: #1f77b4"/>
     <use xlink:href="#m5f87c9a2af" x="315.196581" y="518.008596" style="fill: #1f77b4; stroke: #1f77b4"/>
     <use xlink:href="#m5f87c9a2af" x="305.740791" y="515.613853" style="fill: #1f77b4; stroke: #1f77b4"/>
     <use xlink:href="#m5f87c9a2af" x="296.302974" y="511.394737" style="fill: #1f77b4; stroke: #1f77b4"/>
     <use xlink:href="#m5f87c9a2af" x="286.882072" y="510.692692" style="fill: #1f77b4; stroke: #1f77b4"/>
     <use xlink:href="#m5f87c9a2af" x="277.479045" y="510.771873" style="fill: #1f77b4; stroke: #1f77b4"/>
     <use xlink:href="#m5f87c9a2af" x="268.093842" y="505.559908" style="fill: #1f77b4; stroke: #1f77b4"/>
     <use xlink:href="#m5f87c9a2af" x="258.726412" y="501.916021" style="fill: #1f77b4; stroke: #1f77b4"/>
     <use xlink:href="#m5f87c9a2af" x="249.375705" y="501.690426" style="fill: #1f77b4; stroke: #1f77b4"/>
     <use xlink:href="#m5f87c9a2af" x="240.042676" y="500.745281" style="fill: #1f77b4; stroke: #1f77b4"/>
     <use xlink:href="#m5f87c9a2af" x="230.727273" y="500.199086" style="fill: #1f77b4; stroke: #1f77b4"/>
    </g>
   </g>
   <g id="line2d_22">
    <path d="M 1245.272727 590.7819 
L 1239.179361 569.797057 
L 1231.054873 540.890806 
L 1220.899263 503.856939 
L 1196.525799 414.698176 
L 1187.385749 382.352676 
L 1180.276822 357.939365 
L 1173.167895 334.31585 
L 1167.074529 314.80008 
L 1160.981163 295.996205 
L 1155.903358 280.914074 
L 1150.825553 266.403938 
L 1144.732187 249.788578 
L 1139.654382 236.609774 
L 1134.576577 224.07224 
L 1129.498771 212.184063 
L 1125.436527 203.137803 
L 1121.374283 194.521483 
L 1117.312039 186.334564 
L 1113.249795 178.573542 
L 1109.187551 171.259441 
L 1105.125307 164.380402 
L 1101.063063 157.924294 
L 1097.000819 151.905944 
L 1092.938575 146.318072 
L 1088.876331 141.170384 
L 1084.814087 136.445088 
L 1080.751843 132.140567 
L 1076.689599 128.261943 
L 1073.642916 125.612758 
L 1069.580672 122.448993 
L 1066.533989 120.342422 
L 1063.487305 118.456886 
L 1060.440622 116.797237 
L 1057.393939 115.361049 
L 1054.347256 114.13727 
L 1051.300573 113.122126 
L 1047.238329 112.101053 
L 1044.191646 111.570838 
L 1041.144963 111.236321 
L 1037.082719 111.109091 
L 1033.020475 111.324735 
L 1028.958231 111.865731 
L 1024.895987 112.74448 
L 1020.833743 113.917583 
L 1016.771499 115.413881 
L 1012.709255 117.188091 
L 1008.647011 119.264203 
L 1004.584767 121.593695 
L 1000.522523 124.201638 
L 995.444717 127.812864 
L 991.382473 130.971777 
L 986.304668 135.240178 
L 981.226863 139.841748 
L 976.149058 144.768402 
L 971.071253 149.98887 
L 965.993448 155.48105 
L 959.900082 162.405104 
L 952.791155 170.90875 
L 945.682228 179.810529 
L 938.573301 189.040895 
L 928.41769 202.745331 
L 917.246519 218.321287 
L 905.059787 235.713234 
L 864.437346 293.971849 
L 854.281736 308.043958 
L 844.126126 321.737613 
L 834.986077 333.677005 
L 826.861589 343.951626 
L 816.705979 356.285107 
L 808.581491 365.720065 
L 801.472563 373.64902 
L 793.348075 382.314129 
L 786.239148 389.541972 
L 780.145782 395.474605 
L 774.052416 401.157359 
L 767.95905 406.596706 
L 760.850123 412.615596 
L 752.725635 419.075747 
L 746.632269 423.642814 
L 740.538903 427.957578 
L 733.429975 432.688804 
L 726.321048 437.104382 
L 719.212121 441.205389 
L 712.103194 445.003417 
L 706.009828 448.036447 
L 697.88534 451.757113 
L 690.776413 454.729494 
L 682.651925 457.823983 
L 675.542998 460.282053 
L 667.418509 462.826112 
L 659.294021 465.117328 
L 649.138411 467.648448 
L 641.013923 469.444761 
L 631.873874 471.254013 
L 619.687142 473.376488 
L 606.484848 475.392758 
L 588.20475 477.852985 
L 572.971335 479.789197 
L 540.473382 484.051398 
L 524.224406 486.451514 
L 505.944308 489.458129 
L 487.66421 492.791713 
L 474.461916 495.374587 
L 441.963964 502.099711 
L 423.683866 505.838706 
L 407.434889 508.919178 
L 391.185913 511.599362 
L 377.98362 513.359016 
L 368.843571 514.315396 
L 360.719083 514.953972 
L 350.563473 515.453457 
L 343.454545 515.594973 
L 335.330057 515.531897 
L 327.205569 515.227839 
L 320.096642 514.758544 
L 311.972154 514.000826 
L 302.832105 512.864113 
L 295.723178 511.796406 
L 286.583129 510.224632 
L 269.318591 506.763818 
L 250.022932 502.716183 
L 240.882883 501.019604 
L 233.773956 499.916317 
L 230.727273 499.526271 
L 230.727273 499.526271 
" clip-path="url(#pf1469f6628)" style="fill: none; stroke: #ff7f0e; stroke-width: 1.5; stroke-linecap: square"/>
   </g>
   <g id="patch_3">
    <path d="M 180 630 
L 180 86.4 
" style="fill: none; stroke: #000000; stroke-width: 0.8; stroke-linejoin: miter; stroke-linecap: square"/>
   </g>
   <g id="patch_4">
    <path d="M 1296 630 
L 1296 86.4 
" style="fill: none; stroke: #000000; stroke-width: 0.8; stroke-linejoin: miter; stroke-linecap: square"/>
   </g>
   <g id="patch_5">
    <path d="M 180 630 
L 1296 630 
" style="fill: none; stroke: #000000; stroke-width: 0.8; stroke-linejoin: miter; stroke-linecap: square"/>
   </g>
   <g id="patch_6">
    <path d="M 180 86.4 
L 1296 86.4 
" style="fill: none; stroke: #000000; stroke-width: 0.8; stroke-linejoin: miter; stroke-linecap: square"/>
   </g>
   <g id="text_14">
    <!-- Interpolación de los picos -->
    <g transform="translate(661.395937 80.4)scale(0.12 -0.12)">
     <defs>
      <path id="DejaVuSans-49" d="M 628 4666 
L 1259 4666 
L 1259 0 
L 628 0 
L 628 4666 
z
" transform="scale(0.015625)"/>
      <path id="DejaVuSans-70" d="M 1159 525 
L 1159 -1331 
L 581 -1331 
L 581 3500 
L 1159 3500 
L 1159 2969 
Q 1341 3281 1617 3432 
Q 1894 3584 2278 3584 
Q 2916 3584 3314 3078 
Q 3713 2572 3713 1747 
Q 3713 922 3314 415 
Q 2916 -91 2278 -91 
Q 1894 -91 1617 61 
Q 1341 213 1159 525 
z
M 3116 1747 
Q 3116 2381 2855 2742 
Q 2594 3103 2138 3103 
Q 1681 3103 1420 2742 
Q 1159 2381 1159 1747 
Q 1159 1113 1420 752 
Q 1681 391 2138 391 
Q 2594 391 2855 752 
Q 3116 1113 3116 1747 
z
" transform="scale(0.015625)"/>
      <path id="DejaVuSans-6c" d="M 603 4863 
L 1178 4863 
L 1178 0 
L 603 0 
L 603 4863 
z
" transform="scale(0.015625)"/>
     </defs>
     <use xlink:href="#DejaVuSans-49"/>
     <use xlink:href="#DejaVuSans-6e" x="29.492188"/>
     <use xlink:href="#DejaVuSans-74" x="92.871094"/>
     <use xlink:href="#DejaVuSans-65" x="132.080078"/>
     <use xlink:href="#DejaVuSans-72" x="193.603516"/>
     <use xlink:href="#DejaVuSans-70" x="234.716797"/>
     <use xlink:href="#DejaVuSans-6f" x="298.193359"/>
     <use xlink:href="#DejaVuSans-6c" x="359.375"/>
     <use xlink:href="#DejaVuSans-61" x="387.158203"/>
     <use xlink:href="#DejaVuSans-63" x="448.4375"/>
     <use xlink:href="#DejaVuSans-69" x="503.417969"/>
     <use xlink:href="#DejaVuSans-f3" x="531.201172"/>
     <use xlink:href="#DejaVuSans-6e" x="592.382812"/>
     <use xlink:href="#DejaVuSans-20" x="655.761719"/>
     <use xlink:href="#DejaVuSans-64" x="687.548828"/>
     <use xlink:href="#DejaVuSans-65" x="751.025391"/>
     <use xlink:href="#DejaVuSans-20" x="812.548828"/>
     <use xlink:href="#DejaVuSans-6c" x="844.335938"/>
     <use xlink:href="#DejaVuSans-6f" x="872.119141"/>
     <use xlink:href="#DejaVuSans-73" x="933.300781"/>
     <use xlink:href="#DejaVuSans-20" x="985.400391"/>
     <use xlink:href="#DejaVuSans-70" x="1017.1875"/>
     <use xlink:href="#DejaVuSans-69" x="1080.664062"/>
     <use xlink:href="#DejaVuSans-63" x="1108.447266"/>
     <use xlink:href="#DejaVuSans-6f" x="1163.427734"/>
     <use xlink:href="#DejaVuSans-73" x="1224.609375"/>
    </g>
   </g>
   <g id="legend_1">
    <g id="patch_7">
     <path d="M 194 161.9125 
L 388.8125 161.9125 
Q 392.8125 161.9125 392.8125 157.9125 
L 392.8125 100.4 
Q 392.8125 96.4 388.8125 96.4 
L 194 96.4 
Q 190 96.4 190 100.4 
L 190 157.9125 
Q 190 161.9125 194 161.9125 
z
" style="fill: #ffffff; opacity: 0.8; stroke: #cccccc; stroke-linejoin: miter"/>
    </g>
    <g id="line2d_23">
     <g>
      <use xlink:href="#m5f87c9a2af" x="218" y="112.596875" style="fill: #1f77b4; stroke: #1f77b4"/>
     </g>
    </g>
    <g id="text_15">
     <!-- datos -->
     <g transform="translate(254 119.596875)scale(0.2 -0.2)">
      <use xlink:href="#DejaVuSans-64"/>
      <use xlink:href="#DejaVuSans-61" x="63.476562"/>
      <use xlink:href="#DejaVuSans-74" x="124.755859"/>
      <use xlink:href="#DejaVuSans-6f" x="163.964844"/>
      <use xlink:href="#DejaVuSans-73" x="225.146484"/>
     </g>
    </g>
    <g id="line2d_24">
     <path d="M 198 142.753125 
L 218 142.753125 
L 238 142.753125 
" style="fill: none; stroke: #ff7f0e; stroke-width: 1.5; stroke-linecap: square"/>
    </g>
    <g id="text_16">
     <!-- interpolación -->
     <g transform="translate(254 149.753125)scale(0.2 -0.2)">
      <use xlink:href="#DejaVuSans-69"/>
      <use xlink:href="#DejaVuSans-6e" x="27.783203"/>
      <use xlink:href="#DejaVuSans-74" x="91.162109"/>
      <use xlink:href="#DejaVuSans-65" x="130.371094"/>
      <use xlink:href="#DejaVuSans-72" x="191.894531"/>
      <use xlink:href="#DejaVuSans-70" x="233.007812"/>
      <use xlink:href="#DejaVuSans-6f" x="296.484375"/>
      <use xlink:href="#DejaVuSans-6c" x="357.666016"/>
      <use xlink:href="#DejaVuSans-61" x="385.449219"/>
      <use xlink:href="#DejaVuSans-63" x="446.728516"/>
      <use xlink:href="#DejaVuSans-69" x="501.708984"/>
      <use xlink:href="#DejaVuSans-f3" x="529.492188"/>
      <use xlink:href="#DejaVuSans-6e" x="590.673828"/>
     </g>
    </g>
   </g>
  </g>
 </g>
 <defs>
  <clipPath id="pf1469f6628">
   <rect x="180" y="86.4" width="1116" height="543.6"/>
  </clipPath>
 </defs>
</svg>
